<?xml version="1.0" standalone="no"?>
<!DOCTYPE svg PUBLIC "-//W3C//DTD SVG 1.1//EN" "http://www.w3.org/Graphics/SVG/1.1/DTD/svg11.dtd" >
<svg xmlns="http://www.w3.org/2000/svg" xmlns:xlink="http://www.w3.org/1999/xlink" version="1.1">
<metadata>
Created by FontForge 20170910 at Wed Oct 26 00:51:35 2011
 By Jimmy Wärting
Copyright 1992, 1994, 1997, 2000, 2004 Adobe Systems Incorporated. All rights reserved. Myriad is either a registered trademark or a trademark of Adobe Systems Incorporated in the United States and/or other countries.
</metadata>
<defs>
<font id="MyriadHebrew-Regular" horiz-adv-x="0" >
  <font-face 
    font-family="Myriad Hebrew"
    font-weight="400"
    font-stretch="normal"
    units-per-em="1000"
    panose-1="1 1 1 1 1 1 1 1 1 1"
    ascent="750"
    descent="-250"
    x-height="483"
    cap-height="674"
    bbox="-158 -325 1132 882"
    underline-thickness="50"
    underline-position="-100"
    stemh="72"
    stemv="46"
    unicode-range="U+0020-FB4F"
  />
<missing-glyph horiz-adv-x="500" 
d="M0 0v700h500v-700h-500zM250 395l170 255h-340zM280 350l170 -255v510zM80 50h340l-170 255zM50 605v-510l170 255z" />
    <glyph glyph-name=".notdef" horiz-adv-x="500" 
d="M0 0v700h500v-700h-500zM250 395l170 255h-340zM280 350l170 -255v510zM80 50h340l-170 255zM50 605v-510l170 255z" />
    <glyph glyph-name="space" unicode=" " horiz-adv-x="213" 
 />
    <glyph glyph-name="uni05D0" unicode="&#x5d0;" horiz-adv-x="573" 
d="M78 0c-11 39 -18 88 -18 133c0 98 23 189 94 264c-44 51 -95 102 -135 139l3 5l107 8c51 -52 125 -136 230 -266c40 27 65 67 65 131c-1 38 -11 83 -30 126l98 9c13 -38 19 -74 19 -118c0 -82 -42 -155 -114 -197c54 -66 139 -186 169 -234h-106
c-34 54 -120 178 -263 344c-44 -54 -53 -125 -51 -189c1 -57 15 -113 28 -155h-96z" />
    <glyph glyph-name="uni05D1" unicode="&#x5d1;" horiz-adv-x="512" 
d="M20 -3l17 89c30 5 102 5 158 5h152c0 68 1 163 -1 214c-2 107 -14 148 -109 148h-87c-58 0 -96 2 -111 6l18 89c20 -4 64 -4 128 -4h79c143 0 159 -66 159 -203v-165c0 -21 -2 -68 -4 -85h73l-17 -91h-326c-43 0 -106 0 -129 -3z" />
    <glyph glyph-name="uni05D2" unicode="&#x5d2;" horiz-adv-x="375" 
d="M20 -8l16 100c84 3 188 59 187 190v39c-1 82 -20 106 -95 125c-21 6 -67 15 -82 22l18 88c15 -6 48 -13 80 -20c133 -29 153 -79 157 -209l4 -146c2 -74 8 -142 18 -181h-78c-9 22 -17 91 -16 147c-31 -94 -111 -155 -209 -155z" />
    <glyph glyph-name="uni05D3" unicode="&#x5d3;" horiz-adv-x="488" 
d="M115 453c-59 0 -97 2 -111 6l17 89c20 -4 71 -4 139 -4h294l-18 -91h-38c-30 0 -41 -21 -41 -93c0 -120 5 -262 8 -360h-78c-1 65 -7 233 -7 342c0 69 8 92 21 111h-186z" />
    <glyph glyph-name="uni05D4" unicode="&#x5d4;" horiz-adv-x="595" 
d="M75 0v286h78v-286h-78zM444 0v298c0 111 -10 155 -104 155h-170c-59 0 -101 2 -115 6l17 89c20 -4 70 -4 138 -4h137c142 0 174 -41 174 -205v-339h-77z" />
    <glyph glyph-name="uni05D5" unicode="&#x5d5;" horiz-adv-x="311" 
d="M160 0v313c0 86 -10 117 -88 136c-35 9 -54 13 -68 19l17 88c13 -5 33 -10 69 -16c112 -24 148 -61 148 -213v-327h-78z" />
    <glyph glyph-name="uni05D6" unicode="&#x5d6;" horiz-adv-x="337" 
d="M109 0c-8 169 -13 273 -12 320c2 57 11 94 36 120c-39 6 -102 18 -125 27l17 89c44 -19 215 -42 281 -46l-15 -90c-21 1 -58 7 -72 8c-28 1 -41 -14 -44 -85c-1 -52 6 -232 13 -343h-79z" />
    <glyph glyph-name="uni05D7" unicode="&#x5d7;" horiz-adv-x="607" 
d="M88 0v315c0 67 3 119 8 139c-18 1 -66 4 -73 5l17 90c21 -5 71 -5 139 -5h181c146 0 174 -45 174 -211v-333h-78v304c0 110 -10 149 -105 149h-186v-453h-77z" />
    <glyph glyph-name="uni05D8" unicode="&#x5d8;" horiz-adv-x="586" 
d="M138 -7c-30 178 -65 389 -108 547l94 9c25 -120 52 -282 77 -460c17 1 43 4 84 11c111 19 175 98 175 212c0 96 -49 150 -125 151c-37 0 -66 -8 -91 -18l17 93c31 12 58 16 92 16c127 0 186 -98 185 -226c0 -212 -142 -292 -252 -315c-57 -12 -116 -17 -148 -20z" />
    <glyph glyph-name="uni05D9" unicode="&#x5d9;" horiz-adv-x="256" 
d="M129 208l-62 30c41 64 63 113 63 153c0 33 -19 44 -65 57c-24 7 -44 13 -61 20l17 88c14 -5 34 -11 59 -17c95 -21 128 -51 128 -125c0 -63 -30 -133 -79 -206z" />
    <glyph glyph-name="uni05DA" unicode="&#x5da;" horiz-adv-x="461" 
d="M310 -192v586c0 56 -8 59 -38 59h-157c-59 0 -97 2 -111 6l17 90c20 -5 71 -5 139 -5h164c55 0 63 -13 63 -98v-638h-77z" />
    <glyph glyph-name="uni05DB" unicode="&#x5db;" horiz-adv-x="524" 
d="M20 -3l17 90c20 3 77 3 136 3h191c10 50 19 127 19 186c0 134 -30 177 -139 177h-92c-59 0 -100 2 -115 6l18 89c20 -4 69 -4 125 -4h83c165 0 197 -73 197 -260c0 -107 -17 -212 -33 -284h-275c-43 0 -108 1 -132 -3z" />
    <glyph glyph-name="uni05DC" unicode="&#x5dc;" horiz-adv-x="462" 
d="M76 -9l18 102c133 40 237 144 237 285c0 63 -25 75 -78 75h-238v144c0 61 -3 134 -14 159l81 14c6 -13 10 -81 10 -155v-71h193c102 0 126 -51 126 -140c0 -225 -177 -378 -335 -413z" />
    <glyph glyph-name="uni05DD" unicode="&#x5dd;" horiz-adv-x="629" 
d="M380 544c147 0 175 -42 175 -213v-241c0 -6 -11 -62 -17 -90h-450v358c0 46 3 77 7 96c-27 0 -61 2 -72 6l17 89c26 -5 83 -5 138 -5h202zM479 307c0 99 -11 146 -103 146h-213v-362h316v216z" />
    <glyph glyph-name="uni05DE" unicode="&#x5de;" horiz-adv-x="629" 
d="M53 0c20 103 44 233 55 307c14 100 -26 139 -89 154l18 93c80 -13 128 -64 137 -141c23 61 83 140 194 140c156 0 194 -143 194 -336v-128c0 -9 -11 -75 -14 -89h-197c-40 0 -92 -1 -113 -3l17 89c21 4 68 4 123 4h105c1 42 1 83 1 123c0 126 -16 249 -133 249
c-111 0 -150 -110 -165 -178c-16 -67 -37 -188 -55 -284h-78z" />
    <glyph glyph-name="uni05DF" unicode="&#x5df;" horiz-adv-x="312" 
d="M160 -192v504c0 87 -10 117 -88 136c-36 9 -54 14 -68 21l17 87c13 -5 33 -11 76 -20c108 -25 141 -59 141 -206v-522h-78z" />
    <glyph glyph-name="uni05E0" unicode="&#x5e0;" horiz-adv-x="382" 
d="M20 -3l17 90c25 3 57 4 123 4h70v223c0 87 -10 111 -99 132c-36 8 -71 16 -87 22l17 88c13 -5 43 -12 86 -20c116 -24 161 -58 161 -205v-243l-17 -88h-139c-43 0 -112 -1 -132 -3z" />
    <glyph glyph-name="uni05E1" unicode="&#x5e1;" horiz-adv-x="599" 
d="M147 -7c-25 135 -67 386 -81 461c-23 1 -38 3 -51 6l18 89c16 -4 80 -5 142 -5h227c122 0 144 -64 144 -167c0 -235 -137 -344 -270 -368c-52 -10 -101 -14 -129 -16zM208 87c18 2 49 5 82 12c124 25 177 128 177 256c0 66 -19 98 -88 98h-233c12 -73 46 -271 62 -366z
" />
    <glyph glyph-name="uni05E2" unicode="&#x5e2;" horiz-adv-x="559" 
d="M33 52c67 7 151 21 203 39c-33 109 -137 342 -209 448l106 9c55 -97 140 -299 175 -434c74 31 113 96 113 219c0 57 -15 141 -42 206l99 10c12 -34 26 -107 26 -190c-1 -146 -37 -262 -201 -335c-76 -34 -195 -59 -287 -70z" />
    <glyph glyph-name="uni05E3" unicode="&#x5e3;" horiz-adv-x="538" 
d="M193 193c-104 13 -156 64 -156 152c0 67 50 145 73 211c20 -5 62 -12 126 -22c163 -24 229 -57 229 -255v-471h-78v441c0 127 -16 171 -149 194c-50 9 -93 15 -96 16c-16 -30 -30 -66 -30 -88c0 -38 24 -71 102 -84z" />
    <glyph glyph-name="uni05E4" unicode="&#x5e4;" horiz-adv-x="573" 
d="M38 -3l17 89c24 4 91 4 152 5h215v179c-1 110 -35 152 -159 173c-45 8 -85 14 -111 18c-16 -31 -28 -59 -28 -82c0 -36 24 -60 97 -72l-20 -86c-111 14 -149 66 -149 139c0 62 45 139 66 196c16 -4 71 -13 155 -25c150 -20 227 -68 226 -242v-204c0 -11 -10 -71 -13 -85
h-312c-50 0 -113 0 -136 -3z" />
    <glyph glyph-name="uni05E5" unicode="&#x5e5;" horiz-adv-x="490" 
d="M160 118c0 38 -3 68 -6 92c-17 103 -91 244 -155 330l106 10c51 -83 98 -174 122 -295c100 37 135 91 135 167c0 37 -10 83 -25 118l98 9c8 -22 14 -58 14 -105c0 -126 -70 -207 -215 -259c2 -18 3 -48 3 -103v-274h-77v310z" />
    <glyph glyph-name="uni05E6" unicode="&#x5e6;" horiz-adv-x="507" 
d="M34 -3l21 89c23 4 80 5 137 5h155c-28 28 -91 107 -199 250c-51 68 -111 147 -152 199l112 10c42 -60 112 -162 168 -238c76 31 88 75 88 130c0 30 -11 70 -23 98l98 9c8 -24 13 -54 13 -86c0 -95 -36 -159 -141 -203c84 -112 139 -173 156 -186l-17 -74h-268
c-67 0 -126 -1 -148 -3z" />
    <glyph glyph-name="uni05E7" unicode="&#x5e7;" horiz-adv-x="566" 
d="M204 -8l15 108c120 35 220 116 220 266c0 64 -23 87 -99 87h-137c-68 0 -132 0 -148 7l17 88c28 -5 82 -4 147 -4h140c128 0 158 -44 158 -156c0 -216 -144 -353 -313 -396zM75 -192v494h78v-494h-78z" />
    <glyph glyph-name="uni05E8" unicode="&#x5e8;" horiz-adv-x="470" 
d="M319 0v310c0 99 -11 143 -105 143h-99c-59 0 -97 2 -111 6l17 89c20 -4 71 -4 139 -4h62c146 0 174 -35 174 -206v-338h-77z" />
    <glyph glyph-name="uni05E9" unicode="&#x5e9;" horiz-adv-x="654" 
d="M139 -7c-21 132 -80 465 -109 547l95 9c7 -24 20 -99 51 -285c100 23 117 63 117 135c0 40 -12 97 -27 141l94 9c10 -33 20 -88 21 -137c0 -94 -28 -180 -197 -212c2 -10 13 -81 19 -114c22 2 60 5 109 16c124 27 199 80 199 250c0 66 -16 140 -34 188l96 8
c11 -36 24 -102 24 -176c1 -245 -143 -328 -299 -357c-63 -11 -125 -19 -159 -22z" />
    <glyph glyph-name="uni05EA" unicode="&#x5ea;" horiz-adv-x="625" 
d="M17 -4l19 90c15 3 29 5 82 5h15c-1 97 -9 298 -16 362h-3c-18 0 -60 1 -76 7l18 88c31 -6 96 -4 157 -4h164c147 0 175 -35 175 -206v-338h-78v310c0 99 -11 143 -104 143h-176c5 -64 16 -293 15 -363l-14 -90h-79c-40 0 -76 -1 -99 -4z" />
    <glyph glyph-name="uni05F0" unicode="&#x5f0;" horiz-adv-x="621" 
d="M160 0v313c0 86 -10 117 -88 136c-35 9 -54 13 -68 19l17 88c13 -5 33 -10 69 -16c112 -24 148 -61 148 -213v-327h-78zM470 0v313c0 86 -10 117 -88 136c-35 9 -54 13 -68 19l18 88c12 -5 32 -10 69 -16c111 -24 147 -61 147 -213v-327h-78z" />
    <glyph glyph-name="uni05F1" unicode="&#x5f1;" horiz-adv-x="556" 
d="M129 208l-62 30c41 64 63 113 63 153c0 33 -19 44 -65 57c-24 7 -44 13 -61 20l17 88c14 -5 34 -11 59 -17c95 -21 128 -51 128 -125c0 -63 -30 -133 -79 -206zM405 0v313c0 86 -11 117 -89 136c-35 9 -53 13 -68 19l18 88c12 -5 32 -10 69 -16c111 -24 147 -61 147 -213
v-327h-77z" />
    <glyph glyph-name="uni05F2" unicode="&#x5f2;" horiz-adv-x="490" 
d="M128 208l-61 30c41 64 62 113 62 153c0 33 -19 44 -65 57c-24 7 -43 13 -61 20l18 88c13 -5 34 -11 59 -17c94 -21 127 -51 127 -125c0 -63 -30 -133 -79 -206zM373 208l-62 30c42 64 63 113 63 153c0 33 -19 44 -65 57c-24 7 -44 13 -61 20l17 88c14 -5 35 -11 59 -17
c95 -21 128 -51 128 -125c0 -63 -30 -133 -79 -206z" />
    <glyph glyph-name="uni05D0.j" unicode="&#xfb21;" horiz-adv-x="676" 
d="M656 0h-107c-34 43 -196 218 -338 349c-46 -54 -67 -130 -65 -195c1 -57 15 -112 28 -154h-96c-11 39 -18 88 -18 133c0 101 32 191 103 266c-46 49 -106 104 -148 141l114 9c86 -78 208 -201 306 -298c44 31 79 91 79 163c-1 38 -11 83 -30 126l98 9
c13 -38 19 -74 18 -118c0 -100 -50 -183 -121 -225c54 -58 148 -161 177 -206z" />
    <glyph glyph-name="uni05D3.j" unicode="&#xfb22;" horiz-adv-x="558" 
d="M112 453c-58 0 -96 2 -111 6l18 89c20 -4 70 -4 138 -4h380l-18 -91h-38c-30 0 -40 -21 -40 -93c0 -120 5 -262 8 -360h-78c-2 65 -8 233 -8 342c0 69 9 92 21 111h-272z" />
    <glyph glyph-name="uni05D4.j" unicode="&#xfb23;" horiz-adv-x="682" 
d="M153 286v-286h-78v286h78zM427 453h-257c-59 0 -101 2 -115 6l17 89c20 -4 70 -4 138 -4h223c143 0 175 -41 175 -205v-339h-77v298c0 111 -10 155 -104 155z" />
    <glyph glyph-name="uni05DB.j" unicode="&#xfb24;" horiz-adv-x="612" 
d="M333 453h-182c-59 0 -100 2 -115 6l18 89c20 -4 69 -4 125 -4h173c164 0 197 -73 197 -260c0 -107 -18 -212 -33 -284h-364c-43 0 -108 1 -132 -3l17 90c20 3 77 3 136 3h280c9 50 18 127 18 186c0 134 -30 177 -138 177z" />
    <glyph glyph-name="uni05DC.j" unicode="&#xfb25;" horiz-adv-x="555" 
d="M1 756l81 14c6 -13 10 -81 10 -155v-71h285c102 0 127 -46 127 -140c0 -225 -229 -380 -401 -413l18 102c143 37 303 144 303 285c0 63 -24 75 -78 75h-331v144c0 61 -3 134 -14 159z" />
    <glyph glyph-name="uni05DD.j" unicode="&#xfb26;" horiz-adv-x="719" 
d="M471 544c146 0 174 -42 174 -213v-236c0 -9 -10 -66 -16 -95h-541v377c0 39 2 58 7 76c-27 0 -60 3 -71 7l17 89c25 -5 88 -5 128 -5h302zM570 307c0 99 -11 146 -103 146h-303v-362h406v216z" />
    <glyph glyph-name="uni05E8.j" unicode="&#xfb27;" horiz-adv-x="561" 
d="M306 453h-191c-59 0 -97 2 -111 6l17 89c20 -4 71 -4 139 -4h153c147 0 175 -35 175 -206v-338h-78v310c0 99 -11 143 -104 143z" />
    <glyph glyph-name="uni05EA.j" unicode="&#xfb28;" horiz-adv-x="723" 
d="M467 453h-273c5 -64 16 -293 15 -363l-14 -90h-79c-40 0 -76 -1 -99 -4l19 91c15 2 26 4 80 4h17c-1 97 -9 298 -16 362h-3c-18 0 -60 1 -76 7l18 88c31 -6 96 -4 157 -4h261c147 0 175 -35 175 -206v-338h-77v310c0 99 -11 143 -105 143z" />
    <glyph glyph-name="u05D005B7" unicode="&#xfb2e;" horiz-adv-x="573" 
d="M78 0c-11 39 -18 88 -18 133c0 98 23 189 94 264c-44 51 -95 102 -135 139l3 5l107 8c51 -52 125 -136 230 -266c40 27 65 67 65 131c-1 38 -11 83 -30 126l98 9c13 -38 19 -74 19 -118c0 -82 -42 -155 -114 -197c54 -66 139 -186 169 -234h-106
c-34 54 -120 178 -263 344c-44 -54 -53 -125 -51 -189c1 -57 15 -113 28 -155h-96zM416 -86v-44h-209v44h209z" />
    <glyph glyph-name="u05D005B8" unicode="&#xfb2f;" horiz-adv-x="573" 
d="M78 0c-11 39 -18 88 -18 133c0 98 23 189 94 264c-44 51 -95 102 -135 139l3 5l107 8c51 -52 125 -136 230 -266c40 27 65 67 65 131c-1 38 -11 83 -30 126l98 9c13 -38 19 -74 19 -118c0 -82 -42 -155 -114 -197c54 -66 139 -186 169 -234h-106
c-34 54 -120 178 -263 344c-44 -54 -53 -125 -51 -189c1 -57 15 -113 28 -155h-96zM412 -86v-44h-82l8 -92h-53l8 92h-84v44h203z" />
    <glyph glyph-name="u05D005BC" unicode="&#xfb30;" horiz-adv-x="573" 
d="M78 0c-11 39 -18 88 -18 133c0 98 23 189 94 264c-44 51 -95 102 -135 139l3 5l107 8c51 -52 125 -136 230 -266c40 27 65 67 65 131c-1 38 -11 83 -30 126l98 9c13 -38 19 -74 19 -118c0 -82 -42 -155 -114 -197c54 -66 139 -186 169 -234h-106
c-34 54 -120 178 -263 344c-44 -54 -53 -125 -51 -189c1 -57 15 -113 28 -155h-96zM259 145c21 0 38 -16 38 -38c0 -23 -17 -39 -38 -39c-22 0 -39 16 -39 39c0 22 17 38 39 38z" />
    <glyph glyph-name="u05D105BC" unicode="&#xfb31;" horiz-adv-x="512" 
d="M20 -3l17 89c30 5 102 5 158 5h152c0 68 1 163 -1 214c-2 107 -14 148 -109 148h-87c-58 0 -96 2 -111 6l18 89c20 -4 64 -4 128 -4h79c143 0 159 -66 159 -203v-165c0 -21 -2 -68 -4 -85h73l-17 -91h-326c-43 0 -106 0 -129 -3zM191 315c21 0 38 -17 38 -39
c0 -23 -17 -38 -38 -38c-22 0 -39 15 -39 38s17 39 39 39z" />
    <glyph glyph-name="u05D205BC" unicode="&#xfb32;" horiz-adv-x="375" 
d="M20 -8l16 100c84 3 188 59 187 190v39c-1 82 -20 106 -95 125c-21 6 -67 15 -82 22l18 88c15 -6 48 -13 80 -20c133 -29 153 -79 157 -209l4 -146c2 -74 8 -142 18 -181h-78c-9 22 -17 91 -16 147c-31 -94 -111 -155 -209 -155zM114 327c21 0 38 -16 38 -38
c0 -23 -17 -39 -38 -39c-22 0 -39 16 -39 39c0 22 17 38 39 38z" />
    <glyph glyph-name="u05D305BC" unicode="&#xfb33;" horiz-adv-x="488" 
d="M115 453c-59 0 -97 2 -111 6l17 89c20 -4 71 -4 139 -4h294l-18 -91h-38c-30 0 -41 -21 -41 -93c0 -120 5 -262 8 -360h-78c-1 65 -7 233 -7 342c0 69 8 92 21 111h-186zM156 273c21 0 39 -17 39 -39c0 -23 -18 -38 -39 -38s-38 15 -38 38c0 22 17 39 38 39z" />
    <glyph glyph-name="u05D405BC" unicode="&#xfb34;" horiz-adv-x="595" 
d="M75 0v286h78v-286h-78zM444 0v298c0 111 -10 155 -104 155h-170c-59 0 -101 2 -115 6l17 89c20 -4 70 -4 138 -4h137c142 0 174 -41 174 -205v-339h-77zM300 273c21 0 38 -17 38 -39c0 -23 -17 -38 -38 -38c-22 0 -39 15 -39 38c0 22 17 39 39 39z" />
    <glyph glyph-name="u05D505BC" unicode="&#xfb35;" horiz-adv-x="311" 
d="M160 0v313c0 86 -10 117 -88 136c-35 9 -54 13 -68 19l17 88c13 -5 33 -10 69 -16c112 -24 148 -61 148 -213v-327h-78zM64 271c21 0 39 -16 39 -38c0 -23 -18 -39 -39 -39s-38 16 -38 39c0 22 17 38 38 38z" />
    <glyph glyph-name="u05D505B9" unicode="&#xfb4b;" horiz-adv-x="311" 
d="M160 0v313c0 86 -10 117 -88 136c-35 9 -54 13 -68 19l17 88c13 -5 33 -10 69 -16c112 -24 148 -61 148 -213v-327h-78zM127 666c21 0 38 -17 38 -39c0 -23 -17 -38 -38 -38s-39 15 -39 38c0 22 18 39 39 39z" />
    <glyph glyph-name="u05D605BC" unicode="&#xfb36;" horiz-adv-x="407" 
d="M179 0c-8 169 -13 273 -12 320c2 57 11 94 36 120c-39 6 -102 18 -125 27l17 89c44 -19 215 -42 281 -46l-15 -90c-21 1 -58 7 -72 8c-28 1 -41 -14 -44 -85c-1 -52 6 -232 13 -343h-79zM84 271c21 0 39 -16 39 -38c0 -23 -18 -39 -39 -39s-38 16 -38 39
c0 22 17 38 38 38z" />
    <glyph glyph-name="u05D805BC" unicode="&#xfb38;" horiz-adv-x="586" 
d="M138 -7c-30 178 -65 389 -108 547l94 9c25 -120 52 -282 77 -460c17 1 43 4 84 11c111 19 175 98 175 212c0 96 -49 150 -125 151c-37 0 -66 -8 -91 -18l17 93c31 12 58 16 92 16c127 0 186 -98 185 -226c0 -212 -142 -292 -252 -315c-57 -12 -116 -17 -148 -20zM307 328
c21 0 39 -16 39 -38c0 -23 -18 -38 -39 -38s-38 15 -38 38c0 22 17 38 38 38z" />
    <glyph glyph-name="u05D905BC" unicode="&#xfb39;" horiz-adv-x="306" 
d="M179 208l-62 30c41 64 63 113 63 153c0 33 -19 44 -65 57c-24 7 -44 13 -61 20l17 88c14 -5 34 -11 59 -17c95 -21 128 -51 128 -125c0 -63 -30 -133 -79 -206zM78 397c21 0 39 -16 39 -38c0 -23 -18 -39 -39 -39s-38 16 -38 39c0 22 17 38 38 38z" />
    <glyph glyph-name="u05DA05BC" unicode="&#xfb3a;" horiz-adv-x="461" 
d="M310 -192v586c0 56 -8 59 -38 59h-157c-59 0 -97 2 -111 6l17 90c20 -5 71 -5 139 -5h164c55 0 63 -13 63 -98v-638h-77zM167 310c22 0 39 -17 39 -39s-17 -38 -39 -38c-21 0 -38 16 -38 38c0 23 17 39 38 39z" />
    <glyph glyph-name="u05DB05BC" unicode="&#xfb3b;" horiz-adv-x="524" 
d="M20 -3l17 90c20 3 77 3 136 3h191c10 50 19 127 19 186c0 134 -30 177 -139 177h-92c-59 0 -100 2 -115 6l18 89c20 -4 69 -4 125 -4h83c165 0 197 -73 197 -260c0 -107 -17 -212 -33 -284h-275c-43 0 -108 1 -132 -3zM208 315c21 0 38 -17 38 -39c0 -23 -17 -38 -38 -38
s-39 15 -39 38s18 39 39 39z" />
    <glyph glyph-name="u05DC05BC" unicode="&#xfb3c;" horiz-adv-x="462" 
d="M76 -9l18 102c133 40 237 144 237 285c0 63 -25 75 -78 75h-238v144c0 61 -3 134 -14 159l81 14c6 -13 10 -81 10 -155v-71h193c102 0 126 -51 126 -140c0 -225 -177 -378 -335 -413zM167 343c21 0 39 -16 39 -38c0 -23 -18 -38 -39 -38s-38 15 -38 38c0 22 17 38 38 38z
" />
    <glyph glyph-name="u05DE05BC" unicode="&#xfb3e;" horiz-adv-x="629" 
d="M53 0c20 103 44 233 55 307c14 100 -26 139 -89 154l18 93c80 -13 128 -64 137 -141c23 61 83 140 194 140c156 0 194 -143 194 -336v-128c0 -9 -11 -75 -14 -89h-197c-40 0 -92 -1 -113 -3l17 89c21 4 68 4 123 4h105c1 42 1 83 1 123c0 126 -16 249 -133 249
c-111 0 -150 -110 -165 -178c-16 -67 -37 -188 -55 -284h-78zM343 315c21 0 38 -17 38 -39c0 -23 -17 -38 -38 -38s-38 15 -38 38s17 39 38 39z" />
    <glyph glyph-name="u05E005BC" unicode="&#xfb40;" horiz-adv-x="382" 
d="M20 -3l17 90c25 3 57 4 123 4h70v223c0 87 -10 111 -99 132c-36 8 -71 16 -87 22l17 88c13 -5 43 -12 86 -20c116 -24 161 -58 161 -205v-243l-17 -88h-139c-43 0 -112 -1 -132 -3zM128 313c21 0 38 -16 38 -38c0 -23 -17 -38 -38 -38s-38 15 -38 38c0 22 17 38 38 38z
" />
    <glyph glyph-name="u05E105BC" unicode="&#xfb41;" horiz-adv-x="599" 
d="M147 -7c-25 135 -67 386 -81 461c-23 1 -38 3 -51 6l18 89c16 -4 80 -5 142 -5h227c122 0 144 -64 144 -167c0 -235 -137 -344 -270 -368c-52 -10 -101 -14 -129 -16zM208 87c18 2 49 5 82 12c124 25 177 128 177 256c0 66 -19 98 -88 98h-233c12 -73 46 -271 62 -366z
M313 328c21 0 38 -16 38 -38c0 -23 -17 -38 -38 -38s-39 15 -39 38c0 22 18 38 39 38z" />
    <glyph glyph-name="u05E305BC" unicode="&#xfb43;" horiz-adv-x="538" 
d="M193 193c-104 13 -156 64 -156 152c0 67 50 145 73 211c20 -5 62 -12 126 -22c163 -24 229 -57 229 -255v-471h-78v441c0 127 -16 171 -149 194c-50 9 -93 15 -96 16c-16 -30 -30 -66 -30 -88c0 -38 24 -71 102 -84zM295 255c21 0 39 -17 39 -39c0 -23 -18 -38 -39 -38
s-38 15 -38 38c0 22 17 39 38 39z" />
    <glyph glyph-name="u05E405BC" unicode="&#xfb44;" horiz-adv-x="573" 
d="M38 -3l17 89c24 4 91 4 152 5h215v179c-1 110 -35 152 -159 173c-45 8 -85 14 -111 18c-16 -31 -28 -59 -28 -82c0 -36 24 -60 97 -72l-20 -86c-111 14 -149 66 -149 139c0 62 45 139 66 196c16 -4 71 -13 155 -25c150 -20 227 -68 226 -242v-204c0 -11 -10 -71 -13 -85
h-312c-50 0 -113 0 -136 -3zM311 283c21 0 38 -16 38 -38c0 -23 -17 -39 -38 -39c-22 0 -39 16 -39 39c0 22 17 38 39 38z" />
    <glyph glyph-name="u05E605BC" unicode="&#xfb46;" horiz-adv-x="507" 
d="M34 -3l21 89c23 4 80 5 137 5h155c-28 28 -91 107 -199 250c-51 68 -111 147 -152 199l112 10c42 -60 112 -162 168 -238c76 31 88 75 88 130c0 30 -11 70 -23 98l98 9c8 -24 13 -54 13 -86c0 -95 -36 -159 -141 -203c84 -112 139 -173 156 -186l-17 -74h-268
c-67 0 -126 -1 -148 -3zM122 237c21 0 38 -16 38 -38c0 -23 -17 -38 -38 -38s-38 15 -38 38c0 22 17 38 38 38z" />
    <glyph glyph-name="u05E705BC" unicode="&#xfb47;" horiz-adv-x="566" 
d="M204 -8l15 108c120 35 220 116 220 266c0 64 -23 87 -99 87h-137c-68 0 -132 0 -148 7l17 88c28 -5 82 -4 147 -4h140c128 0 158 -44 158 -156c0 -216 -144 -353 -313 -396zM75 -192v494h78v-494h-78zM280 333c21 0 38 -16 38 -38c0 -23 -17 -38 -38 -38
c-22 0 -39 15 -39 38c0 22 17 38 39 38z" />
    <glyph glyph-name="u05E805BC" unicode="&#xfb48;" horiz-adv-x="470" 
d="M319 0v310c0 99 -11 143 -105 143h-99c-59 0 -97 2 -111 6l17 89c20 -4 71 -4 139 -4h62c146 0 174 -35 174 -206v-338h-77zM162 273c21 0 39 -17 39 -39c0 -23 -18 -38 -39 -38s-38 15 -38 38c0 22 17 39 38 39z" />
    <glyph glyph-name="u05E905C1" unicode="&#xfb2a;" horiz-adv-x="654" 
d="M139 -7c-21 132 -80 465 -109 547l95 9c7 -24 20 -99 51 -285c100 23 117 63 117 135c0 40 -12 97 -27 141l94 9c10 -33 20 -88 21 -137c0 -94 -28 -180 -197 -212c2 -10 13 -81 19 -114c22 2 60 5 109 16c124 27 199 80 199 250c0 66 -16 140 -34 188l96 8
c11 -36 24 -102 24 -176c1 -245 -143 -328 -299 -357c-63 -11 -125 -19 -159 -22zM512 666c21 0 38 -17 38 -39c0 -23 -17 -38 -38 -38s-39 15 -39 38c0 22 18 39 39 39z" />
    <glyph glyph-name="u05E905C2" unicode="&#xfb2b;" horiz-adv-x="654" 
d="M139 -7c-21 132 -80 465 -109 547l95 9c7 -24 20 -99 51 -285c100 23 117 63 117 135c0 40 -12 97 -27 141l94 9c10 -33 20 -88 21 -137c0 -94 -28 -180 -197 -212c2 -10 13 -81 19 -114c22 2 60 5 109 16c124 27 199 80 199 250c0 66 -16 140 -34 188l96 8
c11 -36 24 -102 24 -176c1 -245 -143 -328 -299 -357c-63 -11 -125 -19 -159 -22zM61 666c21 0 39 -17 39 -39c0 -23 -18 -38 -39 -38s-38 15 -38 38c0 22 17 39 38 39z" />
    <glyph glyph-name="u05E905BC" unicode="&#xfb49;" horiz-adv-x="654" 
d="M139 -7c-21 132 -80 465 -109 547l95 9c7 -24 20 -99 51 -285c100 23 117 63 117 135c0 40 -12 97 -27 141l94 9c10 -33 20 -88 21 -137c0 -94 -28 -180 -197 -212c2 -10 13 -81 19 -114c22 2 60 5 109 16c124 27 199 80 199 250c0 66 -16 140 -34 188l96 8
c11 -36 24 -102 24 -176c1 -245 -143 -328 -299 -357c-63 -11 -125 -19 -159 -22zM419 301c21 0 38 -17 38 -39s-17 -38 -38 -38c-22 0 -39 16 -39 38c0 23 17 39 39 39z" />
    <glyph glyph-name="u05E905C105BC" unicode="&#xfb2c;" horiz-adv-x="654" 
d="M139 -7c-21 132 -80 465 -109 547l95 9c7 -24 20 -99 51 -285c100 23 117 63 117 135c0 40 -12 97 -27 141l94 9c10 -33 20 -88 21 -137c0 -94 -28 -180 -197 -212c2 -10 13 -81 19 -114c22 2 60 5 109 16c124 27 199 80 199 250c0 66 -16 140 -34 188l96 8
c11 -36 24 -102 24 -176c1 -245 -143 -328 -299 -357c-63 -11 -125 -19 -159 -22zM512 666c21 0 38 -17 38 -39c0 -23 -17 -38 -38 -38s-39 15 -39 38c0 22 18 39 39 39zM419 301c21 0 38 -17 38 -39s-17 -38 -38 -38c-22 0 -39 16 -39 38c0 23 17 39 39 39z" />
    <glyph glyph-name="u05E905C205BC" unicode="&#xfb2d;" horiz-adv-x="654" 
d="M139 -7c-21 132 -80 465 -109 547l95 9c7 -24 20 -99 51 -285c100 23 117 63 117 135c0 40 -12 97 -27 141l94 9c10 -33 20 -88 21 -137c0 -94 -28 -180 -197 -212c2 -10 13 -81 19 -114c22 2 60 5 109 16c124 27 199 80 199 250c0 66 -16 140 -34 188l96 8
c11 -36 24 -102 24 -176c1 -245 -143 -328 -299 -357c-63 -11 -125 -19 -159 -22zM61 666c21 0 39 -17 39 -39c0 -23 -18 -38 -39 -38s-38 15 -38 38c0 22 17 39 38 39zM419 301c21 0 38 -17 38 -39s-17 -38 -38 -38c-22 0 -39 16 -39 38c0 23 17 39 39 39z" />
    <glyph glyph-name="u05EA05BC" unicode="&#xfb4a;" horiz-adv-x="625" 
d="M17 -4l19 90c15 3 29 5 82 5h15c-1 97 -9 298 -16 362h-3c-18 0 -60 1 -76 7l18 88c31 -6 96 -4 157 -4h164c147 0 175 -35 175 -206v-338h-78v310c0 99 -11 143 -104 143h-176c5 -64 16 -293 15 -363l-14 -90h-79c-40 0 -76 -1 -99 -4zM339 273c21 0 39 -17 39 -39
c0 -23 -18 -38 -39 -38s-38 15 -38 38c0 22 17 39 38 39z" />
    <glyph glyph-name="u05D105BF" unicode="&#xfb4c;" horiz-adv-x="512" 
d="M20 -3l17 89c30 5 102 5 158 5h152c0 68 1 163 -1 214c-2 107 -14 148 -109 148h-87c-58 0 -96 2 -111 6l18 89c20 -4 64 -4 128 -4h79c143 0 159 -66 159 -203v-165c0 -21 -2 -68 -4 -85h73l-17 -91h-326c-43 0 -106 0 -129 -3zM327 672v-44h-210v44h210z" />
    <glyph glyph-name="u05DB05BF" unicode="&#xfb4d;" horiz-adv-x="524" 
d="M20 -3l17 90c20 3 77 3 136 3h191c10 50 19 127 19 186c0 134 -30 177 -139 177h-92c-59 0 -100 2 -115 6l18 89c20 -4 69 -4 125 -4h83c165 0 197 -73 197 -260c0 -107 -17 -212 -33 -284h-275c-43 0 -108 1 -132 -3zM337 672v-44h-209v44h209z" />
    <glyph glyph-name="u05E405BF" unicode="&#xfb4e;" horiz-adv-x="573" 
d="M38 -3l17 89c24 4 91 4 152 5h215v179c-1 110 -35 152 -159 173c-45 8 -85 14 -111 18c-16 -31 -28 -59 -28 -82c0 -36 24 -60 97 -72l-20 -86c-111 14 -149 66 -149 139c0 62 45 139 66 196c16 -4 71 -13 155 -25c150 -20 227 -68 226 -242v-204c0 -11 -10 -71 -13 -85
h-312c-50 0 -113 0 -136 -3zM400 672v-44h-210v44h210z" />
    <glyph glyph-name="u05D905B4" unicode="&#xfb1d;" horiz-adv-x="245" 
d="M128 208l-61 30c41 64 62 113 62 153c0 33 -19 44 -65 57c-24 7 -43 13 -61 20l18 88c13 -5 34 -11 59 -17c94 -21 127 -51 127 -125c0 -63 -30 -133 -79 -206zM94 158c22 0 39 -17 39 -39c0 -23 -17 -38 -39 -38c-21 0 -38 15 -38 38c0 22 17 39 38 39z" />
    <glyph glyph-name="u05F205B7" unicode="&#xfb1f;" horiz-adv-x="490" 
d="M128 208l-61 30c41 64 62 113 62 153c0 33 -19 44 -65 57c-24 7 -43 13 -61 20l18 88c13 -5 34 -11 59 -17c94 -21 127 -51 127 -125c0 -63 -30 -133 -79 -206zM373 208l-62 30c42 64 63 113 63 153c0 33 -19 44 -65 57c-24 7 -44 13 -61 20l17 88c14 -5 35 -11 59 -17
c95 -21 128 -51 128 -125c0 -63 -30 -133 -79 -206zM347 148v-44h-209v44h209z" />
    <glyph glyph-name="u05D005DC" unicode="&#xfb4f;" horiz-adv-x="512" 
d="M270 229c55 -61 141 -146 207 -214l-83 -41c-69 72 -152 163 -212 230c-83 94 -143 186 -143 305c0 71 10 126 27 185l91 7c-26 -76 -38 -135 -38 -193c0 -84 35 -156 105 -232c85 42 135 88 134 164c-1 33 -8 64 -24 100l97 9c12 -36 15 -54 15 -96
c0 -115 -90 -181 -176 -224z" />
    <glyph glyph-name="uni05B0" unicode="&#x5b0;" 
d="M0 -80c21 0 38 -17 38 -39c0 -23 -17 -38 -38 -38s-38 15 -38 38c0 22 17 39 38 39zM0 -203c21 0 38 -17 38 -39c0 -23 -17 -38 -38 -38s-38 15 -38 38s17 39 38 39z" />
    <glyph glyph-name="uni05B1" unicode="&#x5b1;" 
d="M124 -204c21 0 35 -14 35 -34s-14 -36 -35 -36c-20 0 -34 16 -34 36s14 34 34 34zM124 -80c21 0 35 -16 35 -36s-14 -34 -35 -34c-20 0 -34 14 -34 34s14 36 34 36zM1 -80c21 0 34 -16 34 -36s-13 -34 -34 -34c-20 0 -35 14 -35 34s15 36 35 36zM-61 -204
c19 0 34 -14 34 -34s-15 -36 -34 -36c-20 0 -35 16 -35 36s15 34 35 34zM-124 -80c20 0 33 -16 33 -36s-13 -34 -33 -34s-34 14 -34 34s14 36 34 36z" />
    <glyph glyph-name="uni05B2" unicode="&#x5b2;" 
d="M13 -86v-44h-143v44h143zM104 -80c21 0 39 -17 39 -39c0 -23 -18 -38 -39 -38s-38 15 -38 38c0 22 17 39 38 39zM104 -203c21 0 39 -17 39 -39c0 -23 -18 -38 -39 -38s-38 15 -38 38s17 39 38 39z" />
    <glyph glyph-name="uni05B3" unicode="&#x5b3;" 
d="M104 -80c21 0 39 -17 39 -39c0 -23 -18 -38 -39 -38s-38 15 -38 38c0 22 17 39 38 39zM104 -203c21 0 39 -17 39 -39c0 -23 -18 -38 -39 -38s-38 15 -38 38s17 39 38 39zM19 -86v-44h-58l9 -92h-54l9 92h-61v44h155z" />
    <glyph glyph-name="uni05B4" unicode="&#x5b4;" 
d="M0 -80c21 0 38 -17 38 -39c0 -23 -17 -38 -38 -38s-38 15 -38 38c0 22 17 39 38 39z" />
    <glyph glyph-name="uni05B5" unicode="&#x5b5;" 
d="M-64 -80c21 0 39 -17 39 -39c0 -23 -18 -38 -39 -38s-38 15 -38 38c0 22 17 39 38 39zM63 -80c21 0 38 -17 38 -39c0 -23 -17 -38 -38 -38s-39 15 -39 38c0 22 18 39 39 39z" />
    <glyph glyph-name="uni05B6" unicode="&#x5b6;" 
d="M-64 -80c21 0 39 -17 39 -39c0 -23 -18 -38 -39 -38s-38 15 -38 38c0 22 17 39 38 39zM63 -80c21 0 38 -17 38 -39c0 -23 -17 -38 -38 -38s-39 15 -39 38c0 22 18 39 39 39zM0 -191c21 0 38 -16 38 -38c0 -23 -17 -39 -38 -39s-38 16 -38 39c0 22 17 38 38 38z" />
    <glyph glyph-name="uni05B7" unicode="&#x5b7;" 
d="M105 -86v-44h-210v44h210z" />
    <glyph glyph-name="uni05B8" unicode="&#x5b8;" 
d="M101 -86v-44h-83l9 -92h-54l9 92h-85v44h204z" />
    <glyph glyph-name="uni05BB" unicode="&#x5bb;" 
d="M-76 -75c21 0 37 -16 37 -37c0 -22 -16 -36 -37 -36c-22 0 -36 14 -36 36c0 21 14 37 36 37zM0 -162c21 0 37 -15 37 -37c0 -20 -16 -37 -37 -37s-37 17 -37 37c0 22 16 37 37 37zM76 -252c18 0 35 -16 35 -36c0 -22 -17 -37 -35 -37c-22 0 -37 15 -37 37
c0 20 15 36 37 36z" />
    <glyph glyph-name="uni05BD" unicode="&#x5bd;" 
d="M-17 -89h34v-178h-34v178z" />
    <glyph glyph-name="uni05C7" unicode="&#x5c7;" 
d="M91 -86v-44h-72l5 -168h-48l5 168h-74v44h184z" />
    <glyph glyph-name="uni05BC" unicode="&#x5bc;" 
d="M0 315c21 0 38 -17 38 -39c0 -23 -17 -38 -38 -38s-38 15 -38 38s17 39 38 39z" />
    <glyph glyph-name="uni05B9" unicode="&#x5b9;" 
d="M0 696c21 0 38 -17 38 -39c0 -23 -17 -38 -38 -38s-38 15 -38 38c0 22 17 39 38 39z" />
    <glyph glyph-name="uni05BA" unicode="&#x5ba;" 
d="M0 696c21 0 38 -17 38 -39c0 -23 -17 -38 -38 -38s-38 15 -38 38c0 22 17 39 38 39z" />
    <glyph glyph-name="uni05C1" unicode="&#x5c1;" 
d="M0 696c21 0 38 -17 38 -39c0 -23 -17 -38 -38 -38s-38 15 -38 38c0 22 17 39 38 39z" />
    <glyph glyph-name="uni05C2" unicode="&#x5c2;" 
d="M0 696c21 0 38 -17 38 -39c0 -23 -17 -38 -38 -38s-38 15 -38 38c0 22 17 39 38 39z" />
    <glyph glyph-name="uni05BF" unicode="&#x5bf;" 
d="M105 671v-44h-210v44h210z" />
    <glyph glyph-name="uniFB1E" unicode="&#xfb1e;" 
d="M0 619c-86 0 -125 62 -129 122h57c7 -37 30 -65 72 -65c52 0 68 33 73 65h56c-6 -74 -54 -122 -129 -122z" />
    <glyph glyph-name="u05B005C7" 
d="M19 -86v-44h-57l4 -168h-47l4 168h-59v44h155zM104 -80c21 0 39 -17 39 -39c0 -23 -18 -38 -39 -38s-38 15 -38 38c0 22 17 39 38 39zM104 -203c21 0 39 -17 39 -39c0 -23 -18 -38 -39 -38s-38 15 -38 38s17 39 38 39z" />
    <glyph glyph-name="uni05F3" unicode="&#x5f3;" horiz-adv-x="236" 
d="M37 381l77 233l91 6l-102 -236z" />
    <glyph glyph-name="uni05F4" unicode="&#x5f4;" horiz-adv-x="410" 
d="M211 381l77 233l91 6l-102 -236zM37 381l77 233l91 6l-102 -236z" />
    <glyph glyph-name="uni05BE" unicode="&#x5be;" horiz-adv-x="329" 
d="M36 453v91h257v-91h-257z" />
    <glyph glyph-name="uni05C0" unicode="&#x5c0;" horiz-adv-x="283" 
d="M100 -106v760l70 -1v-759h-70z" />
    <glyph glyph-name="uni05C3" unicode="&#x5c3;" horiz-adv-x="271" 
d="M135 387c-34 0 -59 28 -58 62c0 37 24 63 59 63c36 0 59 -26 59 -63c0 -34 -23 -62 -60 -62zM135 -11c-34 0 -59 27 -58 62c0 37 24 63 59 63c36 0 59 -25 59 -63c0 -35 -23 -62 -60 -62z" />
    <glyph glyph-name="A" unicode="A" horiz-adv-x="612" 
d="M424 212h-239l-69 -212h-91l230 674h104l230 -674h-93zM203 280h203l-66 194c-15 44 -25 84 -35 123h-3c-9 -40 -20 -81 -33 -122z" />
    <glyph glyph-name="B" unicode="B" horiz-adv-x="542" 
d="M75 2v663c39 8 100 14 160 14c87 0 143 -15 184 -49c36 -26 57 -66 57 -119c0 -65 -44 -123 -114 -148v-2c64 -16 139 -68 139 -170c0 -57 -22 -101 -58 -134c-46 -43 -122 -63 -232 -63c-61 0 -106 4 -136 8zM163 606v-218h79c91 0 146 49 146 114
c0 79 -60 110 -148 110c-40 0 -63 -3 -77 -6zM163 323v-257c18 -3 41 -4 73 -4c90 0 174 33 174 130c0 93 -80 131 -175 131h-72z" />
    <glyph glyph-name="C" unicode="C" horiz-adv-x="580" 
d="M529 91l18 -70c-32 -15 -96 -32 -179 -32c-189 0 -332 121 -332 342c0 211 143 353 352 353c83 0 137 -17 160 -29l-21 -71c-33 16 -80 28 -136 28c-158 0 -263 -101 -263 -278c0 -165 95 -271 259 -271c53 0 107 11 142 28z" />
    <glyph glyph-name="D" unicode="D" horiz-adv-x="666" 
d="M75 2v663c54 8 117 14 186 14c125 0 214 -29 273 -84c60 -55 95 -134 95 -242c0 -110 -34 -199 -97 -262c-64 -63 -167 -97 -298 -97c-62 0 -114 3 -159 8zM163 601v-532c22 -4 54 -5 88 -5c186 0 287 104 287 286c1 159 -89 260 -273 260c-45 0 -79 -5 -102 -9z" />
    <glyph glyph-name="E" unicode="E" horiz-adv-x="491" 
d="M424 388v-72h-261v-244h292v-72h-380v674h365v-72h-277v-214h261z" />
    <glyph glyph-name="F" unicode="F" horiz-adv-x="486" 
d="M75 0v674h363v-72h-275v-225h255v-72h-255v-305h-88z" />
    <glyph glyph-name="G" unicode="G" horiz-adv-x="646" 
d="M589 354v-324c-39 -14 -116 -37 -207 -37c-102 0 -186 26 -252 89c-58 56 -94 146 -94 251c1 200 139 348 365 348c78 0 140 -18 168 -31l-21 -71c-36 16 -81 29 -149 29c-164 0 -271 -102 -271 -271c0 -171 102 -272 260 -272c57 0 96 8 116 18v201h-137v70h222z" />
    <glyph glyph-name="H" unicode="H" horiz-adv-x="652" 
d="M75 674h88v-283h326v283h87v-674h-87v316h-326v-316h-88v674z" />
    <glyph glyph-name="I" unicode="I" horiz-adv-x="239" 
d="M75 674h88v-674h-88v674z" />
    <glyph glyph-name="J" unicode="J" horiz-adv-x="370" 
d="M213 231v443h88v-451c0 -179 -88 -234 -204 -234c-33 0 -71 7 -93 15l13 72c18 -8 43 -13 73 -13c78 0 123 36 123 168z" />
    <glyph glyph-name="K" unicode="K" horiz-adv-x="542" 
d="M75 0v674h88v-325h3c18 26 36 50 53 72l206 253h107l-243 -286l263 -388h-103l-222 331l-64 -74v-257h-88z" />
    <glyph glyph-name="L" unicode="L" horiz-adv-x="472" 
d="M75 0v674h88v-600h288v-74h-376z" />
    <glyph glyph-name="M" unicode="M" horiz-adv-x="804" 
d="M660 0l-15 296c-6 93 -12 207 -11 290h-3c-23 -78 -53 -169 -86 -259l-117 -323h-69l-107 321c-33 95 -59 182 -77 261h-3c-3 -83 -6 -195 -13 -297l-18 -289h-83l47 674h111l115 -327c28 -81 50 -161 67 -231h3c17 68 41 147 72 232l120 326h111l42 -674h-86z" />
    <glyph glyph-name="N" unicode="N" horiz-adv-x="658" 
d="M158 0h-83v674h97l215 -340c49 -80 89 -151 121 -220l2 1c-8 90 -10 172 -10 276v283h82v-674h-88l-214 342c-47 75 -92 152 -126 225l-3 -1c5 -85 7 -166 7 -278v-288z" />
    <glyph glyph-name="O" unicode="O" horiz-adv-x="689" 
d="M351 685c192 0 301 -152 301 -347c0 -224 -143 -349 -313 -349c-182 0 -303 143 -303 344c0 207 129 352 315 352zM345 614c-140 0 -216 -126 -216 -278c0 -153 78 -276 215 -276c142 0 216 129 216 276c0 138 -67 278 -215 278z" />
    <glyph glyph-name="P" unicode="P" horiz-adv-x="532" 
d="M75 0v666c42 7 99 13 168 13c86 0 149 -20 189 -56c36 -32 59 -81 59 -142c0 -62 -18 -110 -52 -145c-46 -49 -121 -74 -204 -74c-28 0 -54 2 -72 5v-267h-88zM163 604v-266c14 -4 43 -6 72 -6c105 0 169 52 169 144c0 91 -63 134 -159 134c-39 0 -67 -3 -82 -6z" />
    <glyph glyph-name="Q" unicode="Q" horiz-adv-x="689" 
d="M658 -26l-27 -73c-77 21 -163 48 -257 78c-18 6 -31 9 -42 10c-185 10 -296 146 -296 343c0 207 128 353 315 353c192 0 301 -153 301 -346c0 -166 -81 -279 -192 -319v-4c67 -16 140 -32 198 -42zM343 60c142 0 217 128 217 277c0 141 -69 277 -214 277
c-144 0 -217 -133 -217 -279s73 -275 214 -275z" />
    <glyph glyph-name="R" unicode="R" horiz-adv-x="538" 
d="M75 0v665c45 9 108 14 168 14c93 0 153 -17 195 -55c33 -30 53 -76 53 -128c0 -89 -56 -148 -127 -172v-2c52 -19 83 -68 99 -137c22 -95 38 -159 52 -185h-90c-11 19 -26 77 -45 161c-20 92 -56 128 -135 131h-82v-292h-88zM163 604v-246h89c93 0 152 51 152 128
c0 88 -63 125 -155 126c-43 0 -72 -4 -86 -8z" />
    <glyph glyph-name="S" unicode="S" horiz-adv-x="493" 
d="M41 33l23 73c39 -24 96 -44 156 -44c89 0 141 47 141 115c0 63 -36 99 -128 134c-109 38 -177 97 -177 191c0 104 87 182 218 182c68 0 119 -16 149 -32l-24 -71c-22 12 -67 32 -128 32c-92 0 -127 -55 -127 -101c0 -63 41 -94 134 -130c114 -45 172 -99 172 -198
c0 -104 -77 -195 -236 -195c-66 0 -137 20 -173 44z" />
    <glyph glyph-name="T" unicode="T" horiz-adv-x="497" 
d="M204 0v600h-205v74h499v-74h-206v-600h-88z" />
    <glyph glyph-name="U" unicode="U" horiz-adv-x="647" 
d="M75 674h88v-401c0 -149 66 -213 157 -213c99 0 164 66 164 213v401h87v-394c0 -207 -108 -291 -254 -291c-138 0 -242 78 -242 287v398z" />
    <glyph glyph-name="V" unicode="V" horiz-adv-x="557" 
d="M320 0h-96l-221 674h95l105 -332c28 -91 54 -174 72 -252h3c19 78 46 163 76 250l114 334h93z" />
    <glyph glyph-name="W" unicode="W" horiz-adv-x="846" 
d="M278 0h-93l-171 674h93l80 -341c20 -84 38 -168 50 -233h2c10 67 32 148 55 234l90 340h91l82 -342c19 -80 37 -160 47 -231h2c14 74 33 150 53 233l89 340h90l-191 -674h-92l-84 351c-21 86 -35 152 -44 220h-2c-12 -67 -28 -133 -52 -220z" />
    <glyph glyph-name="X" unicode="X" horiz-adv-x="571" 
d="M546 0h-101l-86 149c-36 57 -57 94 -78 133h-2c-19 -40 -39 -75 -73 -134l-81 -148h-100l206 341l-198 333h100l90 -158c25 -44 44 -78 63 -115h2c19 41 36 71 61 115l92 158h100l-205 -328z" />
    <glyph glyph-name="Y" unicode="Y" horiz-adv-x="541" 
d="M314 0h-88v285l-213 389h99l95 -186c26 -52 46 -93 67 -139h2c18 44 42 88 68 139l97 186h98l-225 -387v-287z" />
    <glyph glyph-name="Z" unicode="Z" horiz-adv-x="553" 
d="M30 0v50l373 548v3h-341v73h455v-53l-372 -545v-3h377v-73h-492z" />
    <glyph glyph-name="Agrave" unicode="&#xc0;" horiz-adv-x="612" 
d="M424 212h-239l-69 -212h-91l230 674h104l230 -674h-93zM203 280h203l-66 194c-15 44 -25 84 -35 123h-3c-9 -40 -20 -81 -33 -122zM162 826h106l95 -115h-80z" />
    <glyph glyph-name="Aacute" unicode="&#xc1;" horiz-adv-x="612" 
d="M424 212h-239l-69 -212h-91l230 674h104l230 -674h-93zM203 280h203l-66 194c-15 44 -25 84 -35 123h-3c-9 -40 -20 -81 -33 -122zM346 826h105l-120 -116h-79z" />
    <glyph glyph-name="Acircumflex" unicode="&#xc2;" horiz-adv-x="612" 
d="M424 212h-239l-69 -212h-91l230 674h104l230 -674h-93zM203 280h203l-66 194c-15 44 -25 84 -35 123h-3c-9 -40 -20 -81 -33 -122zM275 824h69l106 -114h-76l-64 69h-2l-63 -69h-74z" />
    <glyph glyph-name="Atilde" unicode="&#xc3;" horiz-adv-x="612" 
d="M424 212h-239l-69 -212h-91l230 674h104l230 -674h-93zM203 280h203l-66 194c-15 44 -25 84 -35 123h-3c-9 -40 -20 -81 -33 -122zM226 717h-54c-2 69 30 108 75 108c27 0 44 -9 71 -23c18 -10 34 -18 48 -18c17 0 26 9 29 44h53c1 -71 -25 -106 -77 -106
c-24 0 -44 10 -68 22c-23 12 -35 18 -49 18c-17 0 -26 -17 -28 -45z" />
    <glyph glyph-name="Adieresis" unicode="&#xc4;" horiz-adv-x="612" 
d="M424 212h-239l-69 -212h-91l230 674h104l230 -674h-93zM203 280h203l-66 194c-15 44 -25 84 -35 123h-3c-9 -40 -20 -81 -33 -122zM217 720c-30 0 -51 23 -51 51c0 27 22 50 51 50c28 0 49 -22 49 -50s-20 -51 -49 -51zM402 720c-30 0 -50 23 -50 51c0 27 22 50 51 50
c28 0 49 -22 49 -50s-20 -51 -50 -51z" />
    <glyph glyph-name="Aring" unicode="&#xc5;" horiz-adv-x="612" 
d="M424 212h-239l-69 -212h-91l230 674h104l230 -674h-93zM203 280h203l-66 194c-15 44 -25 84 -35 123h-3c-9 -40 -20 -81 -33 -122zM307 700c-63 0 -104 39 -104 89c0 48 40 89 103 89s103 -39 103 -88c0 -52 -42 -90 -102 -90zM306 738c33 0 51 25 51 51
c0 24 -18 51 -51 51c-32 0 -49 -26 -49 -50s16 -52 49 -52z" />
    <glyph glyph-name="AE" unicode="&#xc6;" horiz-adv-x="788" 
d="M89 0h-90l308 674h422v-72h-287l26 -216h251v-72h-240l29 -242h248l-1 -72h-322l-29 237h-207zM225 308h169l-22 194c-4 32 -10 75 -12 109h-4c-12 -32 -28 -71 -43 -106z" />
    <glyph glyph-name="Ccedilla" unicode="&#xc7;" horiz-adv-x="580" 
d="M529 91l18 -70c-32 -15 -95 -32 -178 -32l-23 -39c38 -7 71 -34 71 -75c0 -58 -51 -81 -104 -81c-25 0 -53 7 -70 18l14 44c15 -8 33 -13 56 -13c22 0 41 9 41 30c0 27 -31 38 -77 43l41 76c-164 20 -282 138 -282 339c0 211 143 353 352 353c83 0 137 -17 160 -29
l-21 -71c-33 16 -80 28 -136 28c-158 0 -263 -101 -263 -278c0 -165 95 -271 259 -271c53 0 107 11 142 28z" />
    <glyph glyph-name="Egrave" unicode="&#xc8;" horiz-adv-x="491" 
d="M424 388v-72h-261v-244h292v-72h-380v674h365v-72h-277v-214h261zM121 826h106l95 -115h-80z" />
    <glyph glyph-name="Eacute" unicode="&#xc9;" horiz-adv-x="491" 
d="M424 388v-72h-261v-244h292v-72h-380v674h365v-72h-277v-214h261zM300 826h105l-120 -116h-79z" />
    <glyph glyph-name="Ecircumflex" unicode="&#xca;" horiz-adv-x="491" 
d="M424 388v-72h-261v-244h292v-72h-380v674h365v-72h-277v-214h261zM222 824h69l106 -114h-76l-64 69h-2l-64 -69h-73z" />
    <glyph glyph-name="Edieresis" unicode="&#xcb;" horiz-adv-x="491" 
d="M424 388v-72h-261v-244h292v-72h-380v674h365v-72h-277v-214h261zM162 722c-30 0 -50 23 -50 51c0 27 22 51 51 51c27 0 48 -23 48 -51s-20 -51 -49 -51zM347 722c-30 0 -49 23 -49 51c0 27 22 51 50 51s49 -23 49 -51s-20 -51 -50 -51z" />
    <glyph glyph-name="Igrave" unicode="&#xcc;" horiz-adv-x="239" 
d="M75 674h88v-674h-88v674zM-24 826h107l94 -115h-79z" />
    <glyph glyph-name="Iacute" unicode="&#xcd;" horiz-adv-x="239" 
d="M75 674h88v-674h-88v674zM158 826h105l-120 -116h-79z" />
    <glyph glyph-name="Icircumflex" unicode="&#xce;" horiz-adv-x="239" 
d="M75 674h88v-674h-88v674zM84 824h69l106 -114h-76l-64 69h-2l-63 -69h-74z" />
    <glyph glyph-name="Idieresis" unicode="&#xcf;" horiz-adv-x="239" 
d="M75 674h88v-674h-88v674zM27 722c-30 0 -50 23 -50 51c0 27 22 51 51 51c27 0 48 -23 48 -51s-20 -51 -49 -51zM212 722c-30 0 -49 23 -49 51c0 27 21 51 50 51c28 0 49 -23 49 -51s-20 -51 -50 -51z" />
    <glyph glyph-name="Lslash" unicode="&#x141;" horiz-adv-x="476" 
d="M455 0h-375v284l-84 -41v66l84 41v324h87v-280l140 68v-68l-140 -68v-252h288v-74z" />
    <glyph glyph-name="Ntilde" unicode="&#xd1;" horiz-adv-x="658" 
d="M158 0h-83v674h97l215 -340c49 -80 89 -151 121 -220l2 1c-8 90 -10 172 -10 276v283h82v-674h-88l-214 342c-47 75 -92 152 -126 225l-3 -1c5 -85 7 -166 7 -278v-288zM250 717h-53c-2 69 30 108 75 108c27 0 44 -9 71 -23c17 -10 33 -18 47 -18c17 0 27 9 30 44h52
c2 -71 -24 -106 -76 -106c-24 0 -45 10 -69 22c-22 12 -34 18 -48 18c-17 0 -27 -17 -29 -45z" />
    <glyph glyph-name="Ograve" unicode="&#xd2;" horiz-adv-x="689" 
d="M351 685c192 0 301 -152 301 -347c0 -224 -143 -349 -313 -349c-182 0 -303 143 -303 344c0 207 129 352 315 352zM345 614c-140 0 -216 -126 -216 -278c0 -153 78 -276 215 -276c142 0 216 129 216 276c0 138 -67 278 -215 278zM201 829h106l95 -115h-79z" />
    <glyph glyph-name="Oacute" unicode="&#xd3;" horiz-adv-x="689" 
d="M351 685c192 0 301 -152 301 -347c0 -224 -143 -349 -313 -349c-182 0 -303 143 -303 344c0 207 129 352 315 352zM345 614c-140 0 -216 -126 -216 -278c0 -153 78 -276 215 -276c142 0 216 129 216 276c0 138 -67 278 -215 278zM383 829h104l-120 -116h-79z" />
    <glyph glyph-name="Ocircumflex" unicode="&#xd4;" horiz-adv-x="689" 
d="M351 685c192 0 301 -152 301 -347c0 -224 -143 -349 -313 -349c-182 0 -303 143 -303 344c0 207 129 352 315 352zM345 614c-140 0 -216 -126 -216 -278c0 -153 78 -276 215 -276c142 0 216 129 216 276c0 138 -67 278 -215 278zM309 827h69l106 -114h-76l-64 69h-2
l-64 -69h-73z" />
    <glyph glyph-name="Otilde" unicode="&#xd5;" horiz-adv-x="689" 
d="M351 685c192 0 301 -152 301 -347c0 -224 -143 -349 -313 -349c-182 0 -303 143 -303 344c0 207 129 352 315 352zM345 614c-140 0 -216 -126 -216 -278c0 -153 78 -276 215 -276c142 0 216 129 216 276c0 138 -67 278 -215 278zM260 719h-53c-2 69 30 108 75 108
c27 0 44 -8 71 -22c18 -10 34 -18 48 -18c16 0 26 9 29 44h52c2 -72 -24 -106 -76 -106c-24 0 -45 10 -68 21c-23 12 -35 19 -49 19c-17 0 -27 -17 -29 -46z" />
    <glyph glyph-name="Odieresis" unicode="&#xd6;" horiz-adv-x="689" 
d="M351 685c192 0 301 -152 301 -347c0 -224 -143 -349 -313 -349c-182 0 -303 143 -303 344c0 207 129 352 315 352zM345 614c-140 0 -216 -126 -216 -278c0 -153 78 -276 215 -276c142 0 216 129 216 276c0 138 -67 278 -215 278zM252 722c-30 0 -51 23 -51 51
c0 27 22 51 51 51c28 0 48 -23 48 -51s-19 -51 -48 -51zM437 722c-30 0 -50 23 -50 51c0 27 22 51 51 51c27 0 48 -23 48 -51s-19 -51 -49 -51z" />
    <glyph glyph-name="Oslash" unicode="&#xd8;" horiz-adv-x="689" 
d="M115 -34l-49 39l59 79c-56 60 -89 148 -89 250c0 212 135 351 311 351c62 0 120 -18 168 -53l53 71l52 -37l-55 -75c56 -61 87 -149 87 -248c0 -235 -145 -354 -307 -354c-63 0 -122 19 -170 54zM176 158l296 410c-34 29 -76 47 -126 47c-147 0 -221 -136 -221 -277
c0 -75 20 -129 49 -180h2zM513 515l-295 -408c33 -31 71 -48 126 -48c140 0 219 129 219 281c0 57 -12 117 -47 174z" />
    <glyph glyph-name="OE" unicode="&#x152;" horiz-adv-x="894" 
d="M857 72v-72h-353c-47 -6 -87 -11 -141 -11c-209 0 -327 150 -327 343c0 222 140 353 334 353c52 0 103 -6 141 -11h331v-72h-278v-215h262v-72h-262v-243h293zM477 73v526c-26 9 -58 15 -107 15c-150 0 -241 -113 -241 -278c-1 -164 92 -276 250 -276c37 0 75 4 98 13z
" />
    <glyph glyph-name="Scaron" unicode="&#x160;" horiz-adv-x="493" 
d="M41 33l23 73c39 -24 96 -44 156 -44c89 0 141 47 141 115c0 63 -36 99 -128 134c-109 38 -177 97 -177 191c0 104 87 182 218 182c68 0 119 -16 149 -32l-24 -71c-22 12 -67 32 -128 32c-92 0 -127 -55 -127 -101c0 -63 41 -94 134 -130c114 -45 172 -99 172 -198
c0 -104 -77 -195 -236 -195c-66 0 -137 20 -173 44zM294 713h-72l-105 114h76l65 -70h2l63 70h74z" />
    <glyph glyph-name="Ugrave" unicode="&#xd9;" horiz-adv-x="647" 
d="M75 674h88v-401c0 -149 66 -213 157 -213c99 0 164 66 164 213v401h87v-394c0 -207 -108 -291 -254 -291c-138 0 -242 78 -242 287v398zM184 826h106l95 -115h-79z" />
    <glyph glyph-name="Uacute" unicode="&#xda;" horiz-adv-x="647" 
d="M75 674h88v-401c0 -149 66 -213 157 -213c99 0 164 66 164 213v401h87v-394c0 -207 -108 -291 -254 -291c-138 0 -242 78 -242 287v398zM365 826h105l-120 -116h-79z" />
    <glyph glyph-name="Ucircumflex" unicode="&#xdb;" horiz-adv-x="647" 
d="M75 674h88v-401c0 -149 66 -213 157 -213c99 0 164 66 164 213v401h87v-394c0 -207 -108 -291 -254 -291c-138 0 -242 78 -242 287v398zM294 824h69l106 -114h-76l-64 69h-2l-64 -69h-73z" />
    <glyph glyph-name="Udieresis" unicode="&#xdc;" horiz-adv-x="647" 
d="M75 674h88v-401c0 -149 66 -213 157 -213c99 0 164 66 164 213v401h87v-394c0 -207 -108 -291 -254 -291c-138 0 -242 78 -242 287v398zM233 722c-30 0 -51 23 -51 51c0 27 22 51 51 51c28 0 49 -23 49 -51s-20 -51 -49 -51zM418 722c-30 0 -50 23 -50 51
c0 27 22 51 51 51c28 0 49 -23 49 -51s-20 -51 -50 -51z" />
    <glyph glyph-name="Yacute" unicode="&#xdd;" horiz-adv-x="541" 
d="M314 0h-88v285l-213 389h99l95 -186c26 -52 46 -93 67 -139h2c18 44 42 88 68 139l97 186h98l-225 -387v-287zM318 820h105l-120 -116h-79z" />
    <glyph glyph-name="Ydieresis" unicode="&#x178;" horiz-adv-x="541" 
d="M314 0h-88v285l-213 389h99l95 -186c26 -52 46 -93 67 -139h2c18 44 42 88 68 139l97 186h98l-225 -387v-287zM186 715c-29 0 -50 23 -50 51s22 51 51 51c28 0 48 -22 48 -51c0 -28 -19 -51 -49 -51zM371 715c-29 0 -49 23 -49 51s22 51 50 51s49 -22 49 -51
c0 -28 -19 -51 -50 -51z" />
    <glyph glyph-name="Zcaron" unicode="&#x17d;" horiz-adv-x="553" 
d="M30 0v50l373 548v3h-341v73h455v-53l-372 -545v-3h377v-73h-492zM324 710h-73l-104 114h76l64 -69h2l63 69h74z" />
    <glyph glyph-name="Eth" unicode="&#xd0;" horiz-adv-x="671" 
d="M-2 307v70h82v290c54 8 117 14 186 14c124 0 214 -28 273 -84c60 -54 95 -133 95 -244s-35 -201 -97 -263c-64 -63 -167 -98 -298 -98c-62 0 -114 3 -159 8v307h-82zM348 377v-70h-180v-240c22 -3 54 -4 87 -4c188 0 288 103 288 288c0 162 -89 261 -273 261
c-45 0 -79 -5 -102 -9v-226h180z" />
    <glyph glyph-name="Thorn" unicode="&#xde;" horiz-adv-x="531" 
d="M75 0v674h87v-142c27 3 60 5 96 5c79 0 137 -19 178 -55c35 -32 55 -79 55 -131c0 -142 -108 -213 -253 -213c-29 0 -56 1 -76 5v-143h-87zM162 463v-249c22 -5 49 -6 75 -6c109 0 167 52 167 134c0 87 -63 126 -154 126c-46 0 -72 -3 -88 -5z" />
    <glyph glyph-name="Abreve" unicode="&#x102;" horiz-adv-x="612" 
d="M424 212h-239l-69 -212h-91l230 674h104l230 -674h-93zM203 280h203l-66 194c-15 44 -25 84 -35 123h-3c-9 -40 -20 -81 -33 -122zM179 817h54c8 -28 29 -53 72 -53c44 0 65 23 73 53h53c-8 -58 -52 -106 -127 -106c-78 0 -118 46 -125 106z" />
    <glyph glyph-name="Amacron" unicode="&#x100;" horiz-adv-x="612" 
d="M424 212h-239l-69 -212h-91l230 674h104l230 -674h-93zM203 280h203l-66 194c-15 44 -25 84 -35 123h-3c-9 -40 -20 -81 -33 -122zM179 794h251v-61h-251v61z" />
    <glyph glyph-name="uni1EA0" unicode="&#x1ea0;" horiz-adv-x="612" 
d="M424 212h-239l-69 -212h-91l230 674h104l230 -674h-93zM203 280h203l-66 194c-15 44 -25 84 -35 123h-3c-9 -40 -20 -81 -33 -122zM303 -80c28 0 50 -23 50 -52c0 -27 -21 -51 -51 -51c-29 0 -50 24 -50 51c0 29 23 52 51 52z" />
    <glyph glyph-name="uni1E06" unicode="&#x1e06;" horiz-adv-x="542" 
d="M75 2v663c39 8 100 14 160 14c87 0 143 -15 184 -49c36 -26 57 -66 57 -119c0 -65 -44 -123 -114 -148v-2c64 -16 139 -68 139 -170c0 -57 -22 -101 -58 -134c-46 -43 -122 -63 -232 -63c-61 0 -106 4 -136 8zM163 606v-218h79c91 0 146 49 146 114
c0 79 -60 110 -148 110c-40 0 -63 -3 -77 -6zM163 323v-257c18 -3 41 -4 73 -4c90 0 174 33 174 130c0 93 -80 131 -175 131h-72zM154 -103h234v-60h-234v60z" />
    <glyph glyph-name="Ccaron" unicode="&#x10c;" horiz-adv-x="580" 
d="M529 91l18 -70c-32 -15 -96 -32 -179 -32c-189 0 -332 121 -332 342c0 211 143 353 352 353c83 0 137 -17 160 -29l-21 -71c-33 16 -80 28 -136 28c-158 0 -263 -101 -263 -278c0 -165 95 -271 259 -271c53 0 107 11 142 28zM402 713h-73l-104 114h76l64 -70h2l63 70h74z
" />
    <glyph glyph-name="uni1E0C" unicode="&#x1e0c;" horiz-adv-x="666" 
d="M75 2v663c54 8 117 14 186 14c125 0 214 -29 273 -84c60 -55 95 -134 95 -242c0 -110 -34 -199 -97 -262c-64 -63 -167 -97 -298 -97c-62 0 -114 3 -159 8zM163 601v-532c22 -4 54 -5 88 -5c186 0 287 104 287 286c1 159 -89 260 -273 260c-45 0 -79 -5 -102 -9zM314 -80
c28 0 50 -23 50 -52c0 -27 -21 -51 -51 -51c-29 0 -49 24 -49 51c0 29 22 52 50 52z" />
    <glyph glyph-name="uni1E0E" unicode="&#x1e0e;" horiz-adv-x="666" 
d="M75 2v663c54 8 117 14 186 14c125 0 214 -29 273 -84c60 -55 95 -134 95 -242c0 -110 -34 -199 -97 -262c-64 -63 -167 -97 -298 -97c-62 0 -114 3 -159 8zM163 601v-532c22 -4 54 -5 88 -5c186 0 287 104 287 286c1 159 -89 260 -273 260c-45 0 -79 -5 -102 -9z
M197 -103h234v-60h-234v60z" />
    <glyph glyph-name="Ebreve" unicode="&#x114;" horiz-adv-x="491" 
d="M424 388v-72h-261v-244h292v-72h-380v674h365v-72h-277v-214h261zM128 825h54c8 -28 29 -53 72 -53c45 0 65 23 73 53h54c-8 -58 -52 -106 -128 -106c-78 0 -118 46 -125 106z" />
    <glyph glyph-name="Emacron" unicode="&#x112;" horiz-adv-x="491" 
d="M424 388v-72h-261v-244h292v-72h-380v674h365v-72h-277v-214h261zM134 794h250v-61h-250v61z" />
    <glyph glyph-name="Eogonek" unicode="&#x118;" horiz-adv-x="491" 
d="M447 -136l13 -51c-23 -13 -50 -19 -80 -19c-57 0 -95 29 -95 81c0 53 42 98 83 125h-293v674h365v-72h-277v-214h261v-72h-261v-244h292v-72l-16 -1c-42 -26 -82 -66 -82 -102c0 -26 19 -41 46 -41c15 0 29 2 44 8z" />
    <glyph glyph-name="uni1EB8" unicode="&#x1eb8;" horiz-adv-x="491" 
d="M424 388v-72h-261v-244h292v-72h-380v674h365v-72h-277v-214h261zM268 -80c27 0 49 -23 49 -52c0 -27 -20 -51 -50 -51c-29 0 -50 24 -50 51c0 29 22 52 51 52z" />
    <glyph glyph-name="Gdotaccent" unicode="&#x120;" horiz-adv-x="646" 
d="M589 354v-324c-39 -14 -116 -37 -207 -37c-102 0 -186 26 -252 89c-58 56 -94 146 -94 251c1 200 139 348 365 348c78 0 140 -18 168 -31l-21 -71c-36 16 -81 29 -149 29c-164 0 -271 -102 -271 -271c0 -171 102 -272 260 -272c57 0 96 8 116 18v201h-137v70h222z
M362 719c-30 0 -51 24 -51 51c0 29 23 52 51 52s50 -23 50 -52c0 -27 -21 -51 -50 -51z" />
    <glyph glyph-name="Gcaron" unicode="&#x1e6;" horiz-adv-x="646" 
d="M589 354v-324c-39 -14 -116 -37 -207 -37c-102 0 -186 26 -252 89c-58 56 -94 146 -94 251c1 200 139 348 365 348c78 0 140 -18 168 -31l-21 -71c-36 16 -81 29 -149 29c-164 0 -271 -102 -271 -271c0 -171 102 -272 260 -272c57 0 96 8 116 18v201h-137v70h222z" />
    <glyph glyph-name="uni1E20" unicode="&#x1e20;" horiz-adv-x="646" 
d="M589 354v-324c-39 -14 -116 -37 -207 -37c-102 0 -186 26 -252 89c-58 56 -94 146 -94 251c1 200 139 348 365 348c78 0 140 -18 168 -31l-21 -71c-36 16 -81 29 -149 29c-164 0 -271 -102 -271 -271c0 -171 102 -272 260 -272c57 0 96 8 116 18v201h-137v70h222z" />
    <glyph glyph-name="Hbar" unicode="&#x126;" horiz-adv-x="657" 
d="M636 480h-58v-480h-87v290h-325v-290h-88v480h-57v57h57v137h88v-137h325v137h87v-137h58v-57zM491 366v114h-325v-114h325z" />
    <glyph glyph-name="uni1E24" unicode="&#x1e24;" horiz-adv-x="652" 
d="M75 674h88v-283h326v283h87v-674h-87v316h-326v-316h-88v674zM326 -80c28 0 50 -23 50 -52c0 -27 -20 -51 -51 -51c-28 0 -49 24 -49 51c0 29 22 52 50 52z" />
    <glyph glyph-name="uni1E2A" unicode="&#x1e2a;" horiz-adv-x="652" 
d="M75 674h88v-283h326v283h87v-674h-87v316h-326v-316h-88v674zM202 -82h52c6 -39 32 -69 72 -69c47 0 69 36 72 69h52c0 -75 -48 -125 -124 -125c-88 0 -124 62 -124 125z" />
    <glyph glyph-name="Imacron" unicode="&#x12a;" horiz-adv-x="239" 
d="M75 674h88v-674h-88v674zM-5 794h251v-61h-251v61z" />
    <glyph glyph-name="uni1E32" unicode="&#x1e32;" horiz-adv-x="542" 
d="M75 0v674h88v-325h3c18 26 36 50 53 72l206 253h107l-243 -286l263 -388h-103l-222 331l-64 -74v-257h-88zM307 -80c27 0 49 -23 49 -52c0 -27 -20 -51 -50 -51c-29 0 -50 24 -50 51c0 29 22 52 51 52z" />
    <glyph glyph-name="uni1E34" unicode="&#x1e34;" horiz-adv-x="542" 
d="M75 0v674h88v-325h3c18 26 36 50 53 72l206 253h107l-243 -286l263 -388h-103l-222 331l-64 -74v-257h-88zM190 -103h234v-60h-234v60z" />
    <glyph glyph-name="Obreve" unicode="&#x14e;" horiz-adv-x="689" 
d="M351 685c192 0 301 -152 301 -347c0 -224 -143 -349 -313 -349c-182 0 -303 143 -303 344c0 207 129 352 315 352zM345 614c-140 0 -216 -126 -216 -278c0 -153 78 -276 215 -276c142 0 216 129 216 276c0 138 -67 278 -215 278zM217 830h54c8 -28 29 -53 72 -53
c45 0 65 23 73 53h54c-8 -59 -52 -106 -128 -106c-78 0 -118 46 -125 106z" />
    <glyph glyph-name="Omacron" unicode="&#x14c;" horiz-adv-x="689" 
d="M351 685c192 0 301 -152 301 -347c0 -224 -143 -349 -313 -349c-182 0 -303 143 -303 344c0 207 129 352 315 352zM345 614c-140 0 -216 -126 -216 -278c0 -153 78 -276 215 -276c142 0 216 129 216 276c0 138 -67 278 -215 278zM219 799h251v-61h-251v61z" />
    <glyph glyph-name="uni1ECC" unicode="&#x1ecc;" horiz-adv-x="689" 
d="M351 685c192 0 301 -152 301 -347c0 -224 -143 -349 -313 -349c-182 0 -303 143 -303 344c0 207 129 352 315 352zM345 614c-140 0 -216 -126 -216 -278c0 -153 78 -276 215 -276c142 0 216 129 216 276c0 138 -67 278 -215 278zM345 -80c27 0 49 -23 49 -52
c0 -27 -20 -51 -50 -51c-29 0 -50 24 -50 51c0 29 22 52 51 52z" />
    <glyph glyph-name="Sacute" unicode="&#x15a;" horiz-adv-x="493" 
d="M41 33l23 73c39 -24 96 -44 156 -44c89 0 141 47 141 115c0 63 -36 99 -128 134c-109 38 -177 97 -177 191c0 104 87 182 218 182c68 0 119 -16 149 -32l-24 -71c-22 12 -67 32 -128 32c-92 0 -127 -55 -127 -101c0 -63 41 -94 134 -130c114 -45 172 -99 172 -198
c0 -104 -77 -195 -236 -195c-66 0 -137 20 -173 44zM297 829h105l-120 -116h-79z" />
    <glyph glyph-name="uni1E62" unicode="&#x1e62;" horiz-adv-x="493" 
d="M41 33l23 73c39 -24 96 -44 156 -44c89 0 141 47 141 115c0 63 -36 99 -128 134c-109 38 -177 97 -177 191c0 104 87 182 218 182c68 0 119 -16 149 -32l-24 -71c-22 12 -67 32 -128 32c-92 0 -127 -55 -127 -101c0 -63 41 -94 134 -130c114 -45 172 -99 172 -198
c0 -104 -77 -195 -236 -195c-66 0 -137 20 -173 44zM243 -80c27 0 49 -23 49 -52c0 -27 -20 -51 -50 -51c-29 0 -50 24 -50 51c0 29 22 52 51 52z" />
    <glyph glyph-name="uni1E6C" unicode="&#x1e6c;" horiz-adv-x="497" 
d="M204 0v600h-205v74h499v-74h-206v-600h-88zM248 -80c28 0 50 -23 50 -52c0 -27 -21 -51 -51 -51c-28 0 -49 24 -49 51c0 29 22 52 50 52z" />
    <glyph glyph-name="uni1E6E" unicode="&#x1e6e;" horiz-adv-x="497" 
d="M204 0v600h-205v74h499v-74h-206v-600h-88zM131 -103h235v-60h-235v60z" />
    <glyph glyph-name="Umacron" unicode="&#x16a;" horiz-adv-x="647" 
d="M75 674h88v-401c0 -149 66 -213 157 -213c99 0 164 66 164 213v401h87v-394c0 -207 -108 -291 -254 -291c-138 0 -242 78 -242 287v398zM198 794h251v-61h-251v61z" />
    <glyph glyph-name="uni1E7E" unicode="&#x1e7e;" horiz-adv-x="557" 
d="M320 0h-96l-221 674h95l105 -332c28 -91 54 -174 72 -252h3c19 78 46 163 76 250l114 334h93zM274 -80c28 0 50 -23 50 -52c0 -27 -21 -51 -51 -51c-29 0 -49 24 -49 51c0 29 22 52 50 52z" />
    <glyph glyph-name="uni1E92" unicode="&#x1e92;" horiz-adv-x="553" 
d="M30 0v50l373 548v3h-341v73h455v-53l-372 -545v-3h377v-73h-492zM280 -80c27 0 49 -23 49 -52c0 -27 -20 -51 -50 -51c-29 0 -50 24 -50 51c0 29 22 52 51 52z" />
    <glyph glyph-name="uni1E94" unicode="&#x1e94;" horiz-adv-x="553" 
d="M30 0v50l373 548v3h-341v73h455v-53l-372 -545v-3h377v-73h-492zM163 -103h234v-60h-234v60z" />
    <glyph glyph-name="uni018F" unicode="&#x18f;" horiz-adv-x="644" 
d="M40 359h474c-2 166 -104 252 -232 252c-80 0 -136 -17 -184 -39l-20 67c52 25 124 46 211 46c205 0 318 -140 318 -341c0 -202 -110 -355 -299 -355c-200 0 -271 163 -271 315c0 22 2 45 3 55zM513 290h-388c-2 -111 51 -231 186 -231c134 0 192 117 202 231z" />
    <glyph glyph-name="a" unicode="a" horiz-adv-x="482" 
d="M413 296v-180c0 -42 2 -83 7 -116h-79l-8 61h-2c-27 -37 -79 -72 -148 -72c-97 0 -148 70 -148 139c0 117 104 181 291 179v11c0 40 -12 112 -110 112c-45 0 -93 -14 -126 -36l-20 58c40 26 99 42 159 42c148 0 184 -101 184 -198zM328 163v83c-96 3 -205 -14 -205 -108
c0 -58 39 -84 83 -84c64 0 103 40 118 81c2 10 4 19 4 28z" />
    <glyph glyph-name="b" unicode="b" horiz-adv-x="570" 
d="M73 124v586h87v-304h2c31 54 87 88 165 88c120 0 205 -100 205 -246c0 -173 -111 -259 -218 -259c-70 0 -126 27 -163 90h-2l-4 -79h-76c2 33 4 82 4 124zM160 281v-87c0 -11 1 -22 4 -32c17 -62 69 -103 132 -103c93 0 147 75 147 186c0 97 -50 180 -145 180
c-59 0 -115 -41 -133 -108c-2 -11 -5 -22 -5 -36z" />
    <glyph glyph-name="c" unicode="c" horiz-adv-x="448" 
d="M403 84l15 -66c-23 -12 -74 -29 -139 -29c-146 0 -241 99 -241 247c0 149 102 258 260 258c51 0 98 -13 122 -25l-20 -68c-21 12 -54 23 -102 23c-111 0 -171 -83 -171 -183c0 -112 72 -181 169 -181c49 0 82 13 107 24z" />
    <glyph glyph-name="d" unicode="d" horiz-adv-x="564" 
d="M403 710h87v-586c0 -42 2 -90 4 -124h-78l-4 84h-3c-26 -55 -85 -95 -163 -95c-118 0 -208 99 -208 245c-1 162 99 260 217 260c74 0 124 -34 146 -73h2v289zM403 203v84c0 11 -1 26 -3 37c-14 56 -62 101 -128 101c-91 0 -146 -79 -146 -186c0 -98 49 -180 144 -180
c59 0 112 40 129 106c3 12 4 24 4 38z" />
    <glyph glyph-name="e" unicode="e" horiz-adv-x="501" 
d="M461 226h-339c2 -119 77 -168 166 -168c63 0 102 11 134 25l15 -63c-30 -14 -84 -31 -161 -31c-149 0 -238 99 -238 244c0 147 86 261 228 261c157 0 199 -138 199 -227c0 -18 -2 -32 -4 -41zM123 289h257c1 55 -23 142 -122 142c-89 0 -128 -81 -135 -142z" />
    <glyph glyph-name="f" unicode="f" horiz-adv-x="292" 
d="M169 0h-87v417h-68v66h68v24c0 68 15 130 56 169c33 32 77 45 117 45c32 0 61 -7 76 -15l-15 -67c-14 6 -30 12 -54 12c-74 0 -93 -66 -93 -141v-27h117v-66h-117v-417z" />
    <glyph glyph-name="g" unicode="g" horiz-adv-x="560" 
d="M486 351v-281c0 -112 -22 -179 -69 -221c-47 -43 -115 -58 -176 -58c-58 0 -122 14 -162 40l22 67c33 -20 83 -39 143 -39c90 0 156 48 156 170v54h-2c-27 -45 -80 -81 -154 -81c-121 0 -206 102 -206 236c0 164 107 256 218 256c84 0 130 -43 151 -83h2l4 72h77
c-2 -34 -4 -73 -4 -132zM399 206v87c0 15 -1 28 -5 40c-16 51 -59 93 -124 93c-83 0 -144 -71 -144 -183c0 -95 49 -175 144 -175c54 0 103 35 122 91c5 15 7 32 7 47z" />
    <glyph glyph-name="h" unicode="h" horiz-adv-x="555" 
d="M73 0v710h87v-302h2c15 25 37 47 64 62c26 15 57 24 90 24c65 0 168 -39 168 -206v-288h-87v278c0 79 -29 144 -112 144c-58 0 -102 -41 -118 -87c-5 -14 -7 -27 -7 -43v-292h-87z" />
    <glyph glyph-name="i" unicode="i" horiz-adv-x="234" 
d="M160 0h-87v483h87v-483zM117 675c32 0 54 -24 55 -55c0 -30 -22 -54 -56 -54c-32 0 -54 24 -53 54c-1 30 22 55 54 55z" />
    <glyph glyph-name="j" unicode="j" horiz-adv-x="243" 
d="M-36 -211l-10 69c41 3 76 13 97 37c23 27 33 66 33 181v407h88v-440c0 -94 -16 -155 -58 -199c-39 -40 -103 -55 -150 -55zM129 675c32 0 53 -25 54 -55c0 -29 -21 -54 -56 -54c-33 0 -53 25 -53 54c0 30 22 55 55 55z" />
    <glyph glyph-name="k" unicode="k" horiz-adv-x="468" 
d="M160 710v-448h2c12 17 28 38 42 55l143 166h106l-187 -198l213 -285h-107l-166 233l-46 -51v-182h-87v710h87z" />
    <glyph glyph-name="l" unicode="l" horiz-adv-x="235" 
d="M73 0v710h87v-710h-87z" />
    <glyph glyph-name="m" unicode="m" horiz-adv-x="834" 
d="M73 0v353c0 50 -2 91 -4 130h76l5 -77h2c27 46 72 88 153 88c66 0 116 -40 137 -96h2c15 27 34 48 54 63c30 22 61 33 107 33c64 0 159 -41 159 -209v-285h-85v273c0 94 -35 150 -106 150c-50 0 -89 -37 -104 -79c-4 -13 -8 -29 -8 -45v-299h-85v290
c0 77 -35 133 -101 133c-55 0 -95 -44 -110 -88c-4 -13 -6 -29 -6 -43v-292h-86z" />
    <glyph glyph-name="n" unicode="n" horiz-adv-x="555" 
d="M73 0v353c0 50 -2 91 -4 130h78l4 -79h3c24 45 80 90 160 90c66 0 170 -40 170 -205v-289h-87v278c0 79 -29 144 -112 144c-58 0 -102 -41 -118 -90c-4 -11 -7 -26 -7 -41v-291h-87z" />
    <glyph glyph-name="o" unicode="o" horiz-adv-x="549" 
d="M279 494c135 0 232 -97 232 -252c0 -179 -131 -253 -243 -253c-127 0 -230 95 -230 251c0 162 110 254 241 254zM274 429c-108 0 -147 -103 -147 -189c0 -97 49 -185 147 -185c96 0 148 88 148 186c0 84 -39 188 -148 188z" />
    <glyph glyph-name="p" unicode="p" horiz-adv-x="570" 
d="M73 -198v524c0 62 -2 112 -4 157h79l4 -82h2c35 59 93 93 172 93c117 0 205 -98 205 -245c0 -174 -106 -260 -219 -260c-66 0 -121 28 -150 76h-2v-263h-87zM160 280v-83c0 -13 1 -25 4 -36c16 -62 69 -103 132 -103c93 0 147 76 147 187c0 97 -51 179 -144 179
c-60 0 -116 -42 -133 -108c-3 -11 -6 -24 -6 -36z" />
    <glyph glyph-name="q" unicode="q" horiz-adv-x="562" 
d="M403 -198v273h-2c-27 -48 -80 -86 -158 -86c-113 0 -205 97 -205 245c0 181 117 260 219 260c75 0 125 -36 148 -83h2l4 72h83c-2 -40 -4 -82 -4 -132v-549h-87zM403 197v91c0 12 -1 25 -4 36c-13 54 -60 101 -126 101c-91 0 -146 -77 -146 -186c0 -97 46 -180 143 -180
c57 0 106 35 126 95c5 13 7 30 7 43z" />
    <glyph glyph-name="r" unicode="r" horiz-adv-x="327" 
d="M73 0v333c0 57 -2 105 -4 150h77l3 -95h3c23 65 77 106 135 106c10 0 17 0 24 -2v-83c-8 2 -17 3 -29 3c-63 0 -106 -47 -118 -113c-3 -12 -4 -27 -4 -40v-259h-87z" />
    <glyph glyph-name="s" unicode="s" horiz-adv-x="396" 
d="M39 23l22 67c26 -17 72 -35 116 -35c64 0 94 32 94 72c0 42 -25 64 -90 88c-87 32 -128 80 -128 138c0 77 63 141 167 141c49 0 92 -13 119 -29l-22 -64c-19 11 -54 29 -100 29c-51 0 -80 -31 -80 -67c0 -40 28 -58 92 -83c83 -31 127 -72 127 -145
c0 -85 -66 -146 -181 -146c-53 0 -102 14 -136 34z" />
    <glyph glyph-name="t" unicode="t" horiz-adv-x="331" 
d="M93 600l86 23v-140h126v-66h-126v-261c0 -60 17 -94 66 -94c23 0 39 3 51 6l4 -66c-17 -8 -44 -13 -79 -13c-40 0 -74 14 -95 37c-23 28 -33 70 -33 127v264h-75v66h75v117z" />
    <glyph glyph-name="u" unicode="u" horiz-adv-x="550" 
d="M481 0h-77l-5 79h-2c-22 -37 -71 -90 -161 -90c-94 0 -166 57 -166 212v282h88v-267c0 -94 30 -155 106 -155c64 0 105 44 118 80c5 14 8 31 8 46v296h87v-351c0 -51 2 -93 4 -132z" />
    <glyph glyph-name="v" unicode="v" horiz-adv-x="481" 
d="M13 483h94l95 -271c16 -44 29 -84 39 -125h3c11 40 25 81 40 125l95 271h92l-190 -483h-84z" />
    <glyph glyph-name="w" unicode="w" horiz-adv-x="736" 
d="M18 483h89l65 -245c15 -53 26 -105 36 -155h3c10 50 26 102 43 154l80 246h73l75 -242c17 -56 32 -108 43 -158h3c8 50 21 101 37 158l69 242h87l-157 -483h-80l-73 231c-17 54 -31 102 -43 159h-2c-12 -58 -27 -109 -44 -160l-78 -230h-80z" />
    <glyph glyph-name="x" unicode="x" horiz-adv-x="463" 
d="M16 483h98l69 -103c18 -27 33 -52 49 -78h2c16 27 33 53 49 79l67 102h96l-165 -233l170 -250h-99l-72 108c-19 29 -35 56 -52 85h-2c-16 -30 -33 -55 -51 -85l-70 -108h-97l172 247z" />
    <glyph glyph-name="y" unicode="y" horiz-adv-x="471" 
d="M9 483h96l106 -285c11 -32 23 -70 31 -99h2c9 28 19 66 31 100l96 284h93l-132 -344c-63 -166 -106 -251 -166 -304c-44 -37 -87 -52 -108 -56l-22 74c23 7 51 21 78 43c23 19 53 53 73 98c4 9 7 15 7 21c0 5 -2 12 -7 23z" />
    <glyph glyph-name="z" unicode="z" horiz-adv-x="428" 
d="M18 0v51l219 285c21 27 41 49 63 76v2h-262v69h369l-1 -54l-216 -282c-20 -25 -40 -51 -62 -75v-2h282v-70h-392z" />
    <glyph glyph-name="agrave" unicode="&#xe0;" horiz-adv-x="482" 
d="M413 296v-180c0 -42 2 -83 7 -116h-79l-8 61h-2c-27 -37 -79 -72 -148 -72c-97 0 -148 70 -148 139c0 117 104 181 291 179v11c0 40 -12 112 -110 112c-45 0 -93 -14 -126 -36l-20 58c40 26 99 42 159 42c148 0 184 -101 184 -198zM328 163v83c-96 3 -205 -14 -205 -108
c0 -58 39 -84 83 -84c64 0 103 40 118 81c2 10 4 19 4 28zM92 693h95l95 -143h-71z" />
    <glyph glyph-name="aacute" unicode="&#xe1;" horiz-adv-x="482" 
d="M413 296v-180c0 -42 2 -83 7 -116h-79l-8 61h-2c-27 -37 -79 -72 -148 -72c-97 0 -148 70 -148 139c0 117 104 181 291 179v11c0 40 -12 112 -110 112c-45 0 -93 -14 -126 -36l-20 58c40 26 99 42 159 42c148 0 184 -101 184 -198zM328 163v83c-96 3 -205 -14 -205 -108
c0 -58 39 -84 83 -84c64 0 103 40 118 81c2 10 4 19 4 28zM280 693h97l-121 -143h-72z" />
    <glyph glyph-name="acircumflex" unicode="&#xe2;" horiz-adv-x="482" 
d="M413 296v-180c0 -42 2 -83 7 -116h-79l-8 61h-2c-27 -37 -79 -72 -148 -72c-97 0 -148 70 -148 139c0 117 104 181 291 179v11c0 40 -12 112 -110 112c-45 0 -93 -14 -126 -36l-20 58c40 26 99 42 159 42c148 0 184 -101 184 -198zM328 163v83c-96 3 -205 -14 -205 -108
c0 -58 39 -84 83 -84c64 0 103 40 118 81c2 10 4 19 4 28zM203 691h65l107 -139h-70l-69 90h-2l-68 -90h-68z" />
    <glyph glyph-name="atilde" unicode="&#xe3;" horiz-adv-x="482" 
d="M413 296v-180c0 -42 2 -83 7 -116h-79l-8 61h-2c-27 -37 -79 -72 -148 -72c-97 0 -148 70 -148 139c0 117 104 181 291 179v11c0 40 -12 112 -110 112c-45 0 -93 -14 -126 -36l-20 58c40 26 99 42 159 42c148 0 184 -101 184 -198zM328 163v83c-96 3 -205 -14 -205 -108
c0 -58 39 -84 83 -84c64 0 103 40 118 81c2 10 4 19 4 28zM150 570h-51c-2 71 30 103 76 103c26 0 43 -10 69 -23c19 -10 35 -21 48 -21c16 0 31 6 34 46h51c-1 -73 -30 -105 -78 -105c-24 0 -44 10 -69 24c-21 12 -34 19 -49 19c-17 0 -29 -7 -31 -43z" />
    <glyph glyph-name="adieresis" unicode="&#xe4;" horiz-adv-x="482" 
d="M413 296v-180c0 -42 2 -83 7 -116h-79l-8 61h-2c-27 -37 -79 -72 -148 -72c-97 0 -148 70 -148 139c0 117 104 181 291 179v11c0 40 -12 112 -110 112c-45 0 -93 -14 -126 -36l-20 58c40 26 99 42 159 42c148 0 184 -101 184 -198zM328 163v83c-96 3 -205 -14 -205 -108
c0 -58 39 -84 83 -84c64 0 103 40 118 81c2 10 4 19 4 28zM149 570c-30 0 -51 24 -51 51c0 28 23 51 51 51s49 -23 49 -51c0 -27 -20 -51 -49 -51zM333 570c-29 0 -50 24 -50 51c0 28 23 51 51 51s49 -23 49 -51c0 -27 -20 -51 -50 -51z" />
    <glyph glyph-name="aring" unicode="&#xe5;" horiz-adv-x="482" 
d="M413 296v-180c0 -42 2 -83 7 -116h-79l-8 61h-2c-27 -37 -79 -72 -148 -72c-97 0 -148 70 -148 139c0 117 104 181 291 179v11c0 40 -12 112 -110 112c-45 0 -93 -14 -126 -36l-20 58c40 26 99 42 159 42c148 0 184 -101 184 -198zM328 163v83c-96 3 -205 -14 -205 -108
c0 -58 39 -84 83 -84c64 0 103 40 118 81c2 10 4 19 4 28zM240 537c-63 0 -104 41 -104 93c0 51 40 94 103 94s103 -40 103 -93s-42 -94 -102 -94zM240 577c33 0 50 26 50 53c0 26 -17 54 -50 54s-50 -27 -50 -52c0 -27 17 -55 50 -55z" />
    <glyph glyph-name="ae" unicode="&#xe6;" horiz-adv-x="773" 
d="M734 233h-325c-2 -115 64 -176 155 -176c67 0 105 15 132 28l16 -63c-38 -20 -95 -33 -159 -33c-83 0 -156 38 -184 107h-3c-30 -67 -96 -107 -179 -107c-102 0 -151 68 -151 138c0 111 103 177 291 175v20c0 24 -14 108 -112 108c-46 0 -96 -17 -125 -37l-20 58
c43 27 102 43 151 43c87 0 136 -40 156 -101h2c33 63 92 101 169 101c148 0 188 -142 188 -222c0 -15 -1 -30 -2 -39zM329 172v71c-92 2 -207 -15 -207 -109c0 -51 39 -80 84 -80c64 0 104 39 118 83c4 11 5 23 5 35zM409 295h243c3 49 -25 137 -113 137s-127 -81 -130 -137
z" />
    <glyph glyph-name="ccedilla" unicode="&#xe7;" horiz-adv-x="448" 
d="M403 84l15 -66c-22 -11 -68 -27 -128 -29l-23 -39c36 -7 70 -32 70 -73c0 -61 -50 -83 -104 -83c-23 0 -51 6 -69 18l14 44c15 -9 36 -13 55 -13c23 0 43 7 43 31c-1 26 -31 37 -78 42l40 76c-122 16 -200 110 -200 244c0 149 102 258 260 258c51 0 98 -13 122 -25
l-20 -68c-21 12 -54 23 -102 23c-111 0 -171 -83 -171 -183c0 -112 72 -181 169 -181c49 0 82 13 107 24z" />
    <glyph glyph-name="egrave" unicode="&#xe8;" horiz-adv-x="501" 
d="M461 226h-339c2 -119 77 -168 166 -168c63 0 102 11 134 25l15 -63c-30 -14 -84 -31 -161 -31c-149 0 -238 99 -238 244c0 147 86 261 228 261c157 0 199 -138 199 -227c0 -18 -2 -32 -4 -41zM123 289h257c1 55 -23 142 -122 142c-89 0 -128 -81 -135 -142zM133 693h95
l95 -143h-71z" />
    <glyph glyph-name="eacute" unicode="&#xe9;" horiz-adv-x="501" 
d="M461 226h-339c2 -119 77 -168 166 -168c63 0 102 11 134 25l15 -63c-30 -14 -84 -31 -161 -31c-149 0 -238 99 -238 244c0 147 86 261 228 261c157 0 199 -138 199 -227c0 -18 -2 -32 -4 -41zM123 289h257c1 55 -23 142 -122 142c-89 0 -128 -81 -135 -142zM308 693h97
l-121 -143h-72z" />
    <glyph glyph-name="ecircumflex" unicode="&#xea;" horiz-adv-x="501" 
d="M461 226h-339c2 -119 77 -168 166 -168c63 0 102 11 134 25l15 -63c-30 -14 -84 -31 -161 -31c-149 0 -238 99 -238 244c0 147 86 261 228 261c157 0 199 -138 199 -227c0 -18 -2 -32 -4 -41zM123 289h257c1 55 -23 142 -122 142c-89 0 -128 -81 -135 -142zM229 691h65
l107 -139h-70l-69 90h-2l-68 -90h-68z" />
    <glyph glyph-name="edieresis" unicode="&#xeb;" horiz-adv-x="501" 
d="M461 226h-339c2 -119 77 -168 166 -168c63 0 102 11 134 25l15 -63c-30 -14 -84 -31 -161 -31c-149 0 -238 99 -238 244c0 147 86 261 228 261c157 0 199 -138 199 -227c0 -18 -2 -32 -4 -41zM123 289h257c1 55 -23 142 -122 142c-89 0 -128 -81 -135 -142zM175 570
c-29 0 -50 24 -50 51c0 28 22 51 51 51c27 0 48 -23 48 -51c0 -27 -20 -51 -49 -51zM360 570c-30 0 -50 24 -50 51c0 28 22 51 51 51c27 0 49 -23 49 -51c0 -27 -20 -51 -50 -51z" />
    <glyph glyph-name="igrave" unicode="&#xec;" horiz-adv-x="234" 
d="M-30 693h95l95 -143h-71zM160 0h-87v483h87v-483z" />
    <glyph glyph-name="iacute" unicode="&#xed;" horiz-adv-x="234" 
d="M160 693h96l-121 -143h-71zM160 0h-87v483h87v-483z" />
    <glyph glyph-name="icircumflex" unicode="&#xee;" horiz-adv-x="234" 
d="M160 0h-87v483h87v-483zM84 691h65l107 -139h-70l-69 90h-2l-68 -90h-68z" />
    <glyph glyph-name="idieresis" unicode="&#xef;" horiz-adv-x="234" 
d="M25 570c-30 0 -50 24 -50 51c0 28 22 51 51 51c27 0 48 -23 48 -51c0 -27 -20 -51 -49 -51zM210 570c-30 0 -50 24 -50 51c0 28 22 51 50 51s49 -23 49 -51c0 -27 -19 -51 -49 -51zM160 0h-87v483h87v-483z" />
    <glyph glyph-name="dotlessi" unicode="&#x131;" horiz-adv-x="234" 
d="M160 0h-87v483h87v-483z" />
    <glyph glyph-name="lslash" unicode="&#x142;" horiz-adv-x="242" 
d="M165 0h-88v333l-68 -40v67l68 42v308h88v-264l74 45v-69l-74 -44v-378z" />
    <glyph glyph-name="ntilde" unicode="&#xf1;" horiz-adv-x="555" 
d="M73 0v353c0 50 -2 91 -4 130h78l4 -79h3c24 45 80 90 160 90c66 0 170 -40 170 -205v-289h-87v278c0 79 -29 144 -112 144c-58 0 -102 -41 -118 -90c-4 -11 -7 -26 -7 -41v-291h-87zM191 570h-52c-2 71 31 103 77 103c25 0 42 -10 69 -23c18 -10 34 -21 48 -21
c16 0 31 6 33 46h51c0 -73 -30 -105 -77 -105c-25 0 -44 10 -69 24c-22 12 -35 19 -50 19c-17 0 -28 -7 -30 -43z" />
    <glyph glyph-name="ograve" unicode="&#xf2;" horiz-adv-x="549" 
d="M279 494c135 0 232 -97 232 -252c0 -179 -131 -253 -243 -253c-127 0 -230 95 -230 251c0 162 110 254 241 254zM274 429c-108 0 -147 -103 -147 -189c0 -97 49 -185 147 -185c96 0 148 88 148 186c0 84 -39 188 -148 188zM143 693h95l95 -143h-71z" />
    <glyph glyph-name="oacute" unicode="&#xf3;" horiz-adv-x="549" 
d="M279 494c135 0 232 -97 232 -252c0 -179 -131 -253 -243 -253c-127 0 -230 95 -230 251c0 162 110 254 241 254zM274 429c-108 0 -147 -103 -147 -189c0 -97 49 -185 147 -185c96 0 148 88 148 186c0 84 -39 188 -148 188zM313 693h97l-121 -143h-72z" />
    <glyph glyph-name="ocircumflex" unicode="&#xf4;" horiz-adv-x="549" 
d="M279 494c135 0 232 -97 232 -252c0 -179 -131 -253 -243 -253c-127 0 -230 95 -230 251c0 162 110 254 241 254zM274 429c-108 0 -147 -103 -147 -189c0 -97 49 -185 147 -185c96 0 148 88 148 186c0 84 -39 188 -148 188zM241 691h65l107 -139h-70l-69 90h-2l-68 -90
h-68z" />
    <glyph glyph-name="otilde" unicode="&#xf5;" horiz-adv-x="549" 
d="M279 494c135 0 232 -97 232 -252c0 -179 -131 -253 -243 -253c-127 0 -230 95 -230 251c0 162 110 254 241 254zM274 429c-108 0 -147 -103 -147 -189c0 -97 49 -185 147 -185c96 0 148 88 148 186c0 84 -39 188 -148 188zM186 570h-51c-2 71 30 103 76 103
c26 0 43 -10 69 -23c19 -10 35 -21 48 -21c16 0 31 6 34 46h51c0 -73 -30 -105 -77 -105c-25 0 -45 10 -69 24c-22 12 -35 19 -50 19c-17 0 -29 -7 -31 -43z" />
    <glyph glyph-name="odieresis" unicode="&#xf6;" horiz-adv-x="549" 
d="M279 494c135 0 232 -97 232 -252c0 -179 -131 -253 -243 -253c-127 0 -230 95 -230 251c0 162 110 254 241 254zM274 429c-108 0 -147 -103 -147 -189c0 -97 49 -185 147 -185c96 0 148 88 148 186c0 84 -39 188 -148 188zM182 570c-30 0 -51 24 -51 51c0 28 23 51 51 51
s49 -23 49 -51c0 -27 -20 -51 -49 -51zM366 570c-29 0 -50 24 -50 51c0 28 23 51 51 51s49 -23 49 -51c0 -27 -20 -51 -50 -51z" />
    <glyph glyph-name="oslash" unicode="&#xf8;" horiz-adv-x="549" 
d="M71 -8l41 60c-46 44 -74 107 -74 187c0 160 106 255 238 255c44 0 87 -11 122 -34l43 60l39 -27l-42 -62c46 -46 73 -110 73 -186c0 -177 -123 -256 -237 -256c-44 0 -87 11 -123 34l-44 -61zM161 120l198 279c-22 19 -50 30 -85 30c-108 0 -151 -101 -151 -188
c0 -42 10 -86 36 -121h2zM389 361l-198 -278c23 -20 51 -28 81 -28c91 0 153 79 153 188c0 33 -8 80 -34 118h-2z" />
    <glyph glyph-name="oe" unicode="&#x153;" horiz-adv-x="863" 
d="M824 227h-328c-1 -110 68 -170 160 -170c60 0 97 14 130 28l16 -63c-39 -22 -104 -33 -157 -33c-84 0 -153 35 -191 114h-3c-36 -78 -112 -114 -188 -114c-127 0 -225 97 -225 250c0 157 102 255 232 255c82 0 152 -41 183 -115h2c36 77 101 115 176 115
c155 0 196 -140 196 -226c0 -17 -2 -33 -3 -41zM271 429c-106 0 -144 -105 -144 -189c0 -104 60 -185 144 -185c85 0 142 76 142 187c0 92 -43 187 -142 187zM495 290h247c2 54 -22 141 -118 141c-87 0 -124 -80 -129 -141z" />
    <glyph glyph-name="scaron" unicode="&#x161;" horiz-adv-x="396" 
d="M39 23l22 67c26 -17 72 -35 116 -35c64 0 94 32 94 72c0 42 -25 64 -90 88c-87 32 -128 80 -128 138c0 77 63 141 167 141c49 0 92 -13 119 -29l-22 -64c-19 11 -54 29 -100 29c-51 0 -80 -31 -80 -67c0 -40 28 -58 92 -83c83 -31 127 -72 127 -145
c0 -85 -66 -146 -181 -146c-53 0 -102 14 -136 34zM236 552h-66l-106 139h70l68 -90h2l68 90h69z" />
    <glyph glyph-name="germandbls" unicode="&#xdf;" horiz-adv-x="548" 
d="M160 0h-87v452c0 113 27 178 71 218c38 35 86 51 147 51c95 0 178 -60 178 -169c0 -35 -12 -65 -24 -82c-45 -19 -72 -47 -72 -81c0 -35 21 -55 52 -87c40 -40 81 -82 81 -154c0 -94 -68 -159 -179 -159c-38 0 -77 6 -106 20l16 68c26 -13 54 -20 84 -20
c64 0 98 38 98 84c0 42 -19 70 -54 103c-42 40 -80 77 -80 133c0 52 33 93 91 123c6 12 9 26 9 43c0 69 -42 109 -104 109c-77 0 -121 -54 -121 -194v-458z" />
    <glyph glyph-name="ugrave" unicode="&#xf9;" horiz-adv-x="550" 
d="M481 0h-77l-5 79h-2c-22 -37 -71 -90 -161 -90c-94 0 -166 57 -166 212v282h88v-267c0 -94 30 -155 106 -155c64 0 105 44 118 80c5 14 8 31 8 46v296h87v-351c0 -51 2 -93 4 -132zM138 693h95l95 -143h-71z" />
    <glyph glyph-name="uacute" unicode="&#xfa;" horiz-adv-x="550" 
d="M481 0h-77l-5 79h-2c-22 -37 -71 -90 -161 -90c-94 0 -166 57 -166 212v282h88v-267c0 -94 30 -155 106 -155c64 0 105 44 118 80c5 14 8 31 8 46v296h87v-351c0 -51 2 -93 4 -132zM325 693h97l-121 -143h-72z" />
    <glyph glyph-name="ucircumflex" unicode="&#xfb;" horiz-adv-x="550" 
d="M481 0h-77l-5 79h-2c-22 -37 -71 -90 -161 -90c-94 0 -166 57 -166 212v282h88v-267c0 -94 30 -155 106 -155c64 0 105 44 118 80c5 14 8 31 8 46v296h87v-351c0 -51 2 -93 4 -132zM242 691h65l107 -139h-70l-69 90h-2l-68 -90h-68z" />
    <glyph glyph-name="udieresis" unicode="&#xfc;" horiz-adv-x="550" 
d="M481 0h-77l-5 79h-2c-22 -37 -71 -90 -161 -90c-94 0 -166 57 -166 212v282h88v-267c0 -94 30 -155 106 -155c64 0 105 44 118 80c5 14 8 31 8 46v296h87v-351c0 -51 2 -93 4 -132zM186 570c-30 0 -50 24 -50 51c0 28 22 51 51 51c27 0 48 -23 48 -51
c0 -27 -20 -51 -49 -51zM371 570c-30 0 -50 24 -50 51c0 28 22 51 50 51s49 -23 49 -51c0 -27 -19 -51 -49 -51z" />
    <glyph glyph-name="yacute" unicode="&#xfd;" horiz-adv-x="471" 
d="M9 483h96l106 -285c11 -32 23 -70 31 -99h2c9 28 19 66 31 100l96 284h93l-132 -344c-63 -166 -106 -251 -166 -304c-44 -37 -87 -52 -108 -56l-22 74c23 7 51 21 78 43c23 19 53 53 73 98c4 9 7 15 7 21c0 5 -2 12 -7 23zM289 693h97l-121 -143h-72z" />
    <glyph glyph-name="ydieresis" unicode="&#xff;" horiz-adv-x="471" 
d="M9 483h96l106 -285c11 -32 23 -70 31 -99h2c9 28 19 66 31 100l96 284h93l-132 -344c-63 -166 -106 -251 -166 -304c-44 -37 -87 -52 -108 -56l-22 74c23 7 51 21 78 43c23 19 53 53 73 98c4 9 7 15 7 21c0 5 -2 12 -7 23zM155 570c-30 0 -51 24 -51 51c0 28 23 51 51 51
s49 -23 49 -51c0 -27 -20 -51 -49 -51zM339 570c-29 0 -50 24 -50 51c0 28 23 51 51 51s49 -23 49 -51c0 -27 -20 -51 -50 -51z" />
    <glyph glyph-name="zcaron" unicode="&#x17e;" horiz-adv-x="428" 
d="M18 0v51l219 285c21 27 41 49 63 76v2h-262v69h369l-1 -54l-216 -282c-20 -25 -40 -51 -62 -75v-2h282v-70h-392zM260 552h-66l-106 139h70l68 -90h2l68 90h69z" />
    <glyph glyph-name="eth" unicode="&#xf0;" horiz-adv-x="541" 
d="M267 55c88 0 144 78 144 188c0 63 -9 103 -34 134c-22 26 -55 47 -107 47c-103 0 -143 -106 -143 -187c0 -102 59 -182 140 -182zM116 507l-19 43l116 55c-30 22 -67 42 -105 60l39 55c48 -22 98 -50 141 -81l128 61l21 -44l-106 -50c55 -45 99 -99 128 -159
c28 -56 42 -120 42 -194c0 -186 -119 -264 -234 -264c-131 0 -229 96 -229 247c0 156 108 247 223 248c38 1 75 -7 113 -42l2 2c-29 48 -67 90 -118 129z" />
    <glyph glyph-name="thorn" unicode="&#xfe;" horiz-adv-x="570" 
d="M73 670h87v-263h2c32 53 86 87 164 87c115 2 205 -96 205 -246c0 -177 -111 -259 -220 -259c-64 0 -117 28 -149 76h-2v-263h-87v868zM160 280v-89c0 -14 4 -32 9 -44c20 -55 71 -89 130 -89c85 0 144 73 144 189c0 96 -53 177 -143 177c-56 0 -109 -36 -130 -95
c-5 -13 -10 -33 -10 -49z" />
    <glyph glyph-name="abreve" unicode="&#x103;" horiz-adv-x="482" 
d="M413 296v-180c0 -42 2 -83 7 -116h-79l-8 61h-2c-27 -37 -79 -72 -148 -72c-97 0 -148 70 -148 139c0 117 104 181 291 179v11c0 40 -12 112 -110 112c-45 0 -93 -14 -126 -36l-20 58c40 26 99 42 159 42c148 0 184 -101 184 -198zM328 163v83c-96 3 -205 -14 -205 -108
c0 -58 39 -84 83 -84c64 0 103 40 118 81c2 10 4 19 4 28zM113 677h54c8 -37 31 -66 74 -66c52 0 68 34 74 66h54c-6 -74 -54 -121 -128 -121c-86 0 -124 62 -128 121z" />
    <glyph glyph-name="amacron" unicode="&#x101;" horiz-adv-x="482" 
d="M413 296v-180c0 -42 2 -83 7 -116h-79l-8 61h-2c-27 -37 -79 -72 -148 -72c-97 0 -148 70 -148 139c0 117 104 181 291 179v11c0 40 -12 112 -110 112c-45 0 -93 -14 -126 -36l-20 58c40 26 99 42 159 42c148 0 184 -101 184 -198zM328 163v83c-96 3 -205 -14 -205 -108
c0 -58 39 -84 83 -84c64 0 103 40 118 81c2 10 4 19 4 28zM119 648h245v-61h-245v61z" />
    <glyph glyph-name="uni1EA1" unicode="&#x1ea1;" horiz-adv-x="482" 
d="M413 296v-180c0 -42 2 -83 7 -116h-79l-8 61h-2c-27 -37 -79 -72 -148 -72c-97 0 -148 70 -148 139c0 117 104 181 291 179v11c0 40 -12 112 -110 112c-45 0 -93 -14 -126 -36l-20 58c40 26 99 42 159 42c148 0 184 -101 184 -198zM328 163v83c-96 3 -205 -14 -205 -108
c0 -58 39 -84 83 -84c64 0 103 40 118 81c2 10 4 19 4 28zM241 -80c28 0 50 -23 50 -52c0 -27 -21 -51 -51 -51c-29 0 -50 24 -50 51c0 29 23 52 51 52z" />
    <glyph glyph-name="uni1E07" unicode="&#x1e07;" horiz-adv-x="570" 
d="M73 124v586h87v-304h2c31 54 87 88 165 88c120 0 205 -100 205 -246c0 -173 -111 -259 -218 -259c-70 0 -126 27 -163 90h-2l-4 -79h-76c2 33 4 82 4 124zM160 281v-87c0 -11 1 -22 4 -32c17 -62 69 -103 132 -103c93 0 147 75 147 186c0 97 -50 180 -145 180
c-59 0 -115 -41 -133 -108c-2 -11 -5 -22 -5 -36zM179 -103h235v-60h-235v60z" />
    <glyph glyph-name="ccaron" unicode="&#x10d;" horiz-adv-x="448" 
d="M403 84l15 -66c-23 -12 -74 -29 -139 -29c-146 0 -241 99 -241 247c0 149 102 258 260 258c51 0 98 -13 122 -25l-20 -68c-21 12 -54 23 -102 23c-111 0 -171 -83 -171 -183c0 -112 72 -181 169 -181c49 0 82 13 107 24zM295 552h-66l-106 139h70l68 -90h2l68 90h69z" />
    <glyph glyph-name="uni1E0D" unicode="&#x1e0d;" horiz-adv-x="564" 
d="M403 710h87v-586c0 -42 2 -90 4 -124h-78l-4 84h-3c-26 -55 -85 -95 -163 -95c-118 0 -208 99 -208 245c-1 162 99 260 217 260c74 0 124 -34 146 -73h2v289zM403 203v84c0 11 -1 26 -3 37c-14 56 -62 101 -128 101c-91 0 -146 -79 -146 -186c0 -98 49 -180 144 -180
c59 0 112 40 129 106c3 12 4 24 4 38zM270 -80c28 0 50 -23 50 -52c0 -27 -21 -51 -51 -51c-29 0 -49 24 -49 51c0 29 22 52 50 52z" />
    <glyph glyph-name="uni1E0F" unicode="&#x1e0f;" horiz-adv-x="564" 
d="M403 710h87v-586c0 -42 2 -90 4 -124h-78l-4 84h-3c-26 -55 -85 -95 -163 -95c-118 0 -208 99 -208 245c-1 162 99 260 217 260c74 0 124 -34 146 -73h2v289zM403 203v84c0 11 -1 26 -3 37c-14 56 -62 101 -128 101c-91 0 -146 -79 -146 -186c0 -98 49 -180 144 -180
c59 0 112 40 129 106c3 12 4 24 4 38zM153 -103h234v-60h-234v60z" />
    <glyph glyph-name="ebreve" unicode="&#x115;" horiz-adv-x="501" 
d="M461 226h-339c2 -119 77 -168 166 -168c63 0 102 11 134 25l15 -63c-30 -14 -84 -31 -161 -31c-149 0 -238 99 -238 244c0 147 86 261 228 261c157 0 199 -138 199 -227c0 -18 -2 -32 -4 -41zM123 289h257c1 55 -23 142 -122 142c-89 0 -128 -81 -135 -142zM125 677h54
c8 -37 31 -66 74 -66c52 0 68 34 74 66h54c-6 -74 -54 -121 -128 -121c-86 0 -124 62 -128 121z" />
    <glyph glyph-name="emacron" unicode="&#x113;" horiz-adv-x="501" 
d="M461 226h-339c2 -119 77 -168 166 -168c63 0 102 11 134 25l15 -63c-30 -14 -84 -31 -161 -31c-149 0 -238 99 -238 244c0 147 86 261 228 261c157 0 199 -138 199 -227c0 -18 -2 -32 -4 -41zM123 289h257c1 55 -23 142 -122 142c-89 0 -128 -81 -135 -142zM131 648h245
v-61h-245v61z" />
    <glyph glyph-name="eogonek" unicode="&#x119;" horiz-adv-x="501" 
d="M385 -136l14 -45c-22 -15 -51 -24 -82 -24c-54 0 -89 28 -89 78c0 49 41 94 73 117v1c-9 -1 -17 -2 -27 -2c-147 0 -236 100 -236 244c0 147 86 261 228 261c157 0 199 -138 199 -227c0 -18 -2 -32 -4 -41h-339c2 -119 77 -168 166 -168c63 0 102 11 134 25l15 -63
c-15 -7 -37 -13 -46 -17c-38 -16 -90 -64 -90 -107c0 -29 18 -41 39 -41c14 0 31 2 45 9zM123 289h257c1 55 -23 142 -122 142c-89 0 -128 -81 -135 -142z" />
    <glyph glyph-name="uni1EB9" unicode="&#x1eb9;" horiz-adv-x="501" 
d="M461 226h-339c2 -119 77 -168 166 -168c63 0 102 11 134 25l15 -63c-30 -14 -84 -31 -161 -31c-149 0 -238 99 -238 244c0 147 86 261 228 261c157 0 199 -138 199 -227c0 -18 -2 -32 -4 -41zM123 289h257c1 55 -23 142 -122 142c-89 0 -128 -81 -135 -142zM250 -80
c28 0 50 -23 50 -52c0 -27 -21 -51 -51 -51c-29 0 -50 24 -50 51c0 29 23 52 51 52z" />
    <glyph glyph-name="gdotaccent" unicode="&#x121;" horiz-adv-x="560" 
d="M486 351v-281c0 -112 -22 -179 -69 -221c-47 -43 -115 -58 -176 -58c-58 0 -122 14 -162 40l22 67c33 -20 83 -39 143 -39c90 0 156 48 156 170v54h-2c-27 -45 -80 -81 -154 -81c-121 0 -206 102 -206 236c0 164 107 256 218 256c84 0 130 -43 151 -83h2l4 72h77
c-2 -34 -4 -73 -4 -132zM399 206v87c0 15 -1 28 -5 40c-16 51 -59 93 -124 93c-83 0 -144 -71 -144 -183c0 -95 49 -175 144 -175c54 0 103 35 122 91c5 15 7 32 7 47zM278 573c-29 0 -50 24 -50 51c0 28 23 52 51 52s49 -23 49 -52c0 -27 -20 -51 -50 -51z" />
    <glyph glyph-name="gcaron" unicode="&#x1e7;" horiz-adv-x="560" 
d="M486 351v-281c0 -112 -22 -179 -69 -221c-47 -43 -115 -58 -176 -58c-58 0 -122 14 -162 40l22 67c33 -20 83 -39 143 -39c90 0 156 48 156 170v54h-2c-27 -45 -80 -81 -154 -81c-121 0 -206 102 -206 236c0 164 107 256 218 256c84 0 130 -43 151 -83h2l4 72h77
c-2 -34 -4 -73 -4 -132zM399 206v87c0 15 -1 28 -5 40c-16 51 -59 93 -124 93c-83 0 -144 -71 -144 -183c0 -95 49 -175 144 -175c54 0 103 35 122 91c5 15 7 32 7 47zM308 550h-63l-97 143h68l59 -95h2l59 95h65z" />
    <glyph glyph-name="uni1E21" unicode="&#x1e21;" horiz-adv-x="560" 
d="M486 351v-281c0 -112 -22 -179 -69 -221c-47 -43 -115 -58 -176 -58c-58 0 -122 14 -162 40l22 67c33 -20 83 -39 143 -39c90 0 156 48 156 170v54h-2c-27 -45 -80 -81 -154 -81c-121 0 -206 102 -206 236c0 164 107 256 218 256c84 0 130 -43 151 -83h2l4 72h77
c-2 -34 -4 -73 -4 -132zM399 206v87c0 15 -1 28 -5 40c-16 51 -59 93 -124 93c-83 0 -144 -71 -144 -183c0 -95 49 -175 144 -175c54 0 103 35 122 91c5 15 7 32 7 47zM154 648h245v-61h-245v61z" />
    <glyph glyph-name="hbar" unicode="&#x127;" horiz-adv-x="555" 
d="M160 408h2c15 25 37 47 64 62c26 16 57 24 90 24c65 0 168 -39 168 -206v-288h-87v278c0 79 -29 144 -112 144c-57 0 -102 -40 -118 -87c-5 -13 -7 -27 -7 -43v-292h-87v563h-74v56h74v91h87v-91h197v-56h-197v-155z" />
    <glyph glyph-name="uni1E25" unicode="&#x1e25;" horiz-adv-x="555" 
d="M73 0v710h87v-302h2c15 25 37 47 64 62c26 15 57 24 90 24c65 0 168 -39 168 -206v-288h-87v278c0 79 -29 144 -112 144c-58 0 -102 -41 -118 -87c-5 -14 -7 -27 -7 -43v-292h-87zM282 -80c28 0 50 -23 50 -52c0 -27 -21 -51 -51 -51c-29 0 -50 24 -50 51
c0 29 23 52 51 52z" />
    <glyph glyph-name="uni1E2B" unicode="&#x1e2b;" horiz-adv-x="555" 
d="M73 0v710h87v-302h2c15 25 37 47 64 62c26 15 57 24 90 24c65 0 168 -39 168 -206v-288h-87v278c0 79 -29 144 -112 144c-58 0 -102 -41 -118 -87c-5 -14 -7 -27 -7 -43v-292h-87zM157 -82h53c5 -39 31 -69 71 -69c48 0 70 36 72 69h53c-1 -75 -49 -125 -125 -125
c-88 0 -123 62 -124 125z" />
    <glyph glyph-name="uni1E96" unicode="&#x1e96;" horiz-adv-x="555" 
d="M73 0v710h87v-302h2c15 25 37 47 64 62c26 15 57 24 90 24c65 0 168 -39 168 -206v-288h-87v278c0 79 -29 144 -112 144c-58 0 -102 -41 -118 -87c-5 -14 -7 -27 -7 -43v-292h-87zM165 -103h234v-60h-234v60z" />
    <glyph glyph-name="imacron" unicode="&#x12b;" horiz-adv-x="234" 
d="M-5 648h245v-61h-245v61zM160 0h-87v483h87v-483z" />
    <glyph glyph-name="uni1E33" unicode="&#x1e33;" horiz-adv-x="468" 
d="M160 710v-448h2c12 17 28 38 42 55l143 166h106l-187 -198l213 -285h-107l-166 233l-46 -51v-182h-87v710h87zM257 -80c28 0 50 -23 50 -52c0 -27 -21 -51 -51 -51c-29 0 -50 24 -50 51c0 29 23 52 51 52z" />
    <glyph glyph-name="uni1E35" unicode="&#x1e35;" horiz-adv-x="468" 
d="M160 710v-448h2c12 17 28 38 42 55l143 166h106l-187 -198l213 -285h-107l-166 233l-46 -51v-182h-87v710h87zM140 -103h234v-60h-234v60z" />
    <glyph glyph-name="obreve" unicode="&#x14f;" horiz-adv-x="549" 
d="M279 494c135 0 232 -97 232 -252c0 -179 -131 -253 -243 -253c-127 0 -230 95 -230 251c0 162 110 254 241 254zM274 429c-108 0 -147 -103 -147 -189c0 -97 49 -185 147 -185c96 0 148 88 148 186c0 84 -39 188 -148 188zM146 677h54c8 -37 31 -66 74 -66
c52 0 68 34 74 66h54c-6 -74 -54 -121 -128 -121c-86 0 -124 62 -128 121z" />
    <glyph glyph-name="omacron" unicode="&#x14d;" horiz-adv-x="549" 
d="M279 494c135 0 232 -97 232 -252c0 -179 -131 -253 -243 -253c-127 0 -230 95 -230 251c0 162 110 254 241 254zM274 429c-108 0 -147 -103 -147 -189c0 -97 49 -185 147 -185c96 0 148 88 148 186c0 84 -39 188 -148 188zM152 648h245v-61h-245v61z" />
    <glyph glyph-name="uni1ECD" unicode="&#x1ecd;" horiz-adv-x="549" 
d="M279 494c135 0 232 -97 232 -252c0 -179 -131 -253 -243 -253c-127 0 -230 95 -230 251c0 162 110 254 241 254zM274 429c-108 0 -147 -103 -147 -189c0 -97 49 -185 147 -185c96 0 148 88 148 186c0 84 -39 188 -148 188zM274 -80c27 0 49 -23 49 -52
c0 -27 -20 -51 -50 -51c-29 0 -50 24 -50 51c0 29 22 52 51 52z" />
    <glyph glyph-name="sacute" unicode="&#x15b;" horiz-adv-x="396" 
d="M39 23l22 67c26 -17 72 -35 116 -35c64 0 94 32 94 72c0 42 -25 64 -90 88c-87 32 -128 80 -128 138c0 77 63 141 167 141c49 0 92 -13 119 -29l-22 -64c-19 11 -54 29 -100 29c-51 0 -80 -31 -80 -67c0 -40 28 -58 92 -83c83 -31 127 -72 127 -145
c0 -85 -66 -146 -181 -146c-53 0 -102 14 -136 34zM248 693h97l-121 -143h-72z" />
    <glyph glyph-name="uni1E63" unicode="&#x1e63;" horiz-adv-x="396" 
d="M39 23l22 67c26 -17 72 -35 116 -35c64 0 94 32 94 72c0 42 -25 64 -90 88c-87 32 -128 80 -128 138c0 77 63 141 167 141c49 0 92 -13 119 -29l-22 -64c-19 11 -54 29 -100 29c-51 0 -80 -31 -80 -67c0 -40 28 -58 92 -83c83 -31 127 -72 127 -145
c0 -85 -66 -146 -181 -146c-53 0 -102 14 -136 34zM191 -80c28 0 50 -23 50 -52c0 -27 -21 -51 -51 -51c-29 0 -50 24 -50 51c0 29 23 52 51 52z" />
    <glyph glyph-name="uni1E6D" unicode="&#x1e6d;" horiz-adv-x="331" 
d="M93 600l86 23v-140h126v-66h-126v-261c0 -60 17 -94 66 -94c23 0 39 3 51 6l4 -66c-17 -8 -44 -13 -79 -13c-40 0 -74 14 -95 37c-23 28 -33 70 -33 127v264h-75v66h75v117zM205 -80c28 0 50 -23 50 -52c0 -27 -21 -51 -51 -51c-29 0 -50 24 -50 51c0 29 23 52 51 52z
" />
    <glyph glyph-name="uni1E6F" unicode="&#x1e6f;" horiz-adv-x="331" 
d="M93 600l86 23v-140h126v-66h-126v-261c0 -60 17 -94 66 -94c23 0 39 3 51 6l4 -66c-17 -8 -44 -13 -79 -13c-40 0 -74 14 -95 37c-23 28 -33 70 -33 127v264h-75v66h75v117zM88 -103h234v-60h-234v60z" />
    <glyph glyph-name="umacron" unicode="&#x16b;" horiz-adv-x="550" 
d="M481 0h-77l-5 79h-2c-22 -37 -71 -90 -161 -90c-94 0 -166 57 -166 212v282h88v-267c0 -94 30 -155 106 -155c64 0 105 44 118 80c5 14 8 31 8 46v296h87v-351c0 -51 2 -93 4 -132zM153 648h245v-61h-245v61z" />
    <glyph glyph-name="uni1E7F" unicode="&#x1e7f;" horiz-adv-x="481" 
d="M13 483h94l95 -271c16 -44 29 -84 39 -125h3c11 40 25 81 40 125l95 271h92l-190 -483h-84zM240 -80c27 0 49 -23 49 -52c0 -27 -20 -51 -50 -51c-29 0 -50 24 -50 51c0 29 22 52 51 52z" />
    <glyph glyph-name="uni1E93" unicode="&#x1e93;" horiz-adv-x="428" 
d="M18 0v51l219 285c21 27 41 49 63 76v2h-262v69h369l-1 -54l-216 -282c-20 -25 -40 -51 -62 -75v-2h282v-70h-392zM219 -80c27 0 49 -23 49 -52c0 -27 -20 -51 -50 -51c-29 0 -50 24 -50 51c0 29 22 52 51 52z" />
    <glyph glyph-name="uni1E95" unicode="&#x1e95;" horiz-adv-x="428" 
d="M18 0v51l219 285c21 27 41 49 63 76v2h-262v69h369l-1 -54l-216 -282c-20 -25 -40 -51 -62 -75v-2h282v-70h-392zM102 -103h234v-60h-234v60z" />
    <glyph glyph-name="uni0250" unicode="&#x250;" horiz-adv-x="482" 
d="M69 187v181c0 41 -2 82 -7 115h79l7 -61h3c27 38 79 72 149 72c97 0 147 -69 147 -138c0 -118 -104 -182 -291 -181v-9c0 -40 11 -113 111 -112c44 0 92 13 125 36l20 -59c-40 -25 -98 -42 -159 -42c-148 0 -184 101 -184 198zM154 321v-85c96 -2 205 16 205 109
c0 58 -38 84 -82 84c-64 0 -104 -40 -118 -81c-3 -9 -5 -19 -5 -27z" />
    <glyph glyph-name="uni0251" unicode="&#x251;" horiz-adv-x="562" 
d="M403 196v92c0 12 -1 25 -4 36c-13 54 -60 101 -126 101c-91 0 -146 -77 -146 -186c0 -97 46 -182 143 -182c57 0 106 36 126 96c5 13 7 30 7 43zM498 0h-82l-10 76h-2c-26 -45 -78 -87 -156 -87c-120 0 -210 97 -210 245c0 181 117 260 219 260c75 0 125 -36 148 -83h2
l4 72h83c-2 -40 -4 -82 -4 -132v-230c0 -42 3 -88 8 -121z" />
    <glyph glyph-name="uni0254" unicode="&#x254;" horiz-adv-x="448" 
d="M47 400l-14 66c24 12 74 28 139 28c145 0 239 -99 239 -244c0 -151 -95 -261 -257 -261c-56 0 -103 15 -127 27l18 67c22 -11 57 -23 105 -23c111 0 172 82 172 185c0 112 -71 179 -167 179c-49 0 -83 -12 -108 -24z" />
    <glyph glyph-name="uni0259" unicode="&#x259;" horiz-adv-x="501" 
d="M40 267h338c-3 106 -74 159 -161 159c-58 0 -100 -12 -135 -27l-17 63c40 19 95 32 161 32c152 0 237 -101 237 -249c0 -143 -82 -255 -225 -255c-150 0 -202 119 -202 231c0 18 2 36 4 46zM377 204h-258c0 -72 34 -151 124 -151c89 0 128 81 134 151z" />
    <glyph glyph-name="uni025B" unicode="&#x25b;" horiz-adv-x="440" 
d="M159 257v4c-64 15 -96 55 -96 103c0 64 64 130 193 130c62 0 112 -12 147 -36l-18 -59c-21 14 -73 31 -121 31c-68 0 -113 -28 -113 -72c0 -48 59 -70 134 -70h59v-62h-60c-87 0 -153 -24 -153 -82c0 -57 60 -88 131 -88c53 0 113 20 142 37l16 -60
c-37 -25 -109 -44 -177 -44c-97 0 -204 38 -204 147c0 60 49 110 120 121z" />
    <glyph glyph-name="uni0261" unicode="&#x261;" horiz-adv-x="560" 
d="M486 351v-281c0 -112 -22 -179 -69 -221c-47 -43 -115 -58 -176 -58c-58 0 -122 14 -162 40l22 67c33 -20 83 -39 143 -39c90 0 156 48 156 170v54h-2c-27 -45 -80 -81 -154 -81c-121 0 -206 102 -206 236c0 164 107 256 218 256c84 0 130 -43 151 -83h2l4 72h77
c-2 -34 -4 -73 -4 -132zM399 206v87c0 15 -1 28 -5 40c-16 51 -59 93 -124 93c-83 0 -144 -71 -144 -183c0 -95 49 -175 144 -175c54 0 103 35 122 91c5 15 7 32 7 47z" />
    <glyph glyph-name="uni0263" unicode="&#x263;" horiz-adv-x="481" 
d="M471 483l-171 -411c29 -64 56 -111 56 -160c0 -70 -46 -121 -122 -121c-74 0 -115 48 -115 115c0 50 30 99 61 163l-167 414h94l94 -247c18 -44 29 -76 40 -116h3c13 40 25 73 41 115l94 248h92zM239 20h-5c-17 -37 -38 -81 -38 -113c0 -26 13 -48 40 -48
c23 0 41 22 41 49c0 34 -22 74 -38 112z" />
    <glyph glyph-name="uni026A" unicode="&#x26a;" horiz-adv-x="276" 
d="M246 0h-216v64h64v355h-64v64h216v-64h-65v-355h65v-64z" />
    <glyph glyph-name="uni026B" unicode="&#x26b;" horiz-adv-x="314" 
d="M280 427l42 -51c-18 -33 -54 -58 -104 -58c-7 0 -13 1 -19 2v-320h-87v353c-7 2 -13 3 -20 3c-25 0 -45 -14 -60 -37l-43 52c20 33 57 58 105 58c6 0 12 0 18 -1v282h87v-316c7 -2 14 -4 21 -4c25 0 46 14 60 37z" />
    <glyph glyph-name="uni0280" unicode="&#x280;" horiz-adv-x="476" 
d="M71 0v483c42 6 94 11 146 11c80 0 130 -12 166 -39c29 -23 45 -56 45 -98c0 -69 -47 -108 -102 -124v-2c38 -11 64 -43 78 -97c16 -53 32 -114 44 -134h-90c-9 14 -22 56 -36 114c-17 68 -50 89 -103 89h-61v-203h-87zM158 426v-160h69c76 0 114 33 114 84
s-34 82 -117 82c-27 0 -52 -2 -66 -6z" />
    <glyph glyph-name="uni0281" unicode="&#x281;" horiz-adv-x="476" 
d="M71 0v483h87v-203h61c53 0 86 21 103 89c14 59 27 101 36 114h90c-12 -19 -28 -80 -44 -134c-15 -53 -41 -86 -78 -97v-2c58 -13 102 -56 102 -118c0 -46 -18 -78 -47 -101c-36 -28 -88 -42 -170 -42c-48 0 -100 5 -140 11zM158 217v-159c14 -4 39 -6 66 -6
c82 0 117 30 117 82c0 51 -37 83 -114 83h-69z" />
    <glyph glyph-name="uni0283" unicode="&#x283;" horiz-adv-x="251" 
d="M82 -28v566c0 128 65 183 155 183c29 0 55 -7 71 -15l-17 -68c-16 7 -33 10 -51 10c-45 0 -71 -32 -71 -108v-568c0 -125 -66 -180 -155 -180c-20 0 -52 4 -69 12l14 70c19 -7 38 -10 52 -10c45 0 71 32 71 108z" />
    <glyph glyph-name="uni028A" unicode="&#x28a;" horiz-adv-x="572" 
d="M143 417v2h-109v64h201v-50c-61 -41 -104 -107 -104 -205c0 -89 53 -172 153 -172s157 79 157 173c0 90 -46 167 -107 204v50h204v-64h-109v-2c48 -36 99 -103 99 -198c0 -129 -100 -230 -246 -230c-157 0 -239 110 -239 225c0 98 52 165 100 203z" />
    <glyph glyph-name="uni028E" unicode="&#x28e;" horiz-adv-x="471" 
d="M462 0h-96l-105 286c-12 32 -24 70 -32 98h-2c-8 -28 -19 -65 -31 -100l-96 -284h-93l133 344c62 167 105 251 165 304c43 37 86 52 108 56l22 -73c-22 -7 -51 -21 -77 -43c-24 -19 -53 -54 -74 -98c-4 -10 -6 -16 -6 -21c0 -6 1 -12 5 -23z" />
    <glyph glyph-name="uni0292" unicode="&#x292;" horiz-adv-x="464" 
d="M4 -169l21 69c33 -19 86 -38 152 -38c95 0 161 54 161 143s-59 144 -188 144c-10 0 -21 -1 -28 -1v47l170 219h-269v69h373v-53l-170 -216c97 -14 201 -64 201 -198c0 -133 -98 -225 -252 -225c-78 0 -137 19 -171 40z" />
    <glyph glyph-name="uni0294" unicode="&#x294;" horiz-adv-x="437" 
d="M216 0h-87v356c116 29 184 87 184 172c0 70 -45 120 -129 120c-55 0 -116 -22 -142 -36l-21 65c27 15 97 44 177 44c127 0 205 -76 205 -191c0 -113 -80 -188 -187 -223v-307z" />
    <glyph glyph-name="uni0295" unicode="&#x295;" horiz-adv-x="437" 
d="M295 0h-87v305c-106 33 -187 101 -187 213c0 123 98 203 235 203c70 0 124 -18 150 -32l-23 -68c-26 12 -74 27 -128 27c-86 0 -143 -53 -143 -127c0 -90 67 -135 183 -165v-356z" />
    <glyph glyph-name="uni02A4" unicode="&#x2a4;" horiz-adv-x="928" 
d="M859 430l-170 -216c97 -14 201 -64 201 -198c0 -133 -97 -225 -251 -225c-78 0 -137 19 -171 40l21 69c32 -19 86 -38 151 -38c95 0 162 54 162 143s-60 144 -188 144c-11 0 -22 -1 -29 -1v47l171 219h-266v-290c0 -42 2 -90 4 -124h-78l-4 84h-3
c-26 -55 -85 -95 -163 -95c-118 0 -208 99 -208 245c-1 162 99 260 217 260c74 0 124 -34 146 -73h2v289h87v-227h369v-53zM403 203v84c0 11 -1 26 -3 37c-14 56 -62 101 -128 101c-91 0 -146 -79 -146 -186c0 -98 49 -180 144 -180c59 0 112 40 129 106c3 12 4 24 4 38z
" />
    <glyph glyph-name="uni02A6" unicode="&#x2a6;" horiz-adv-x="579" 
d="M521 465l-21 -64c-19 11 -55 29 -99 29c-52 0 -81 -31 -81 -67c0 -40 29 -58 92 -83c83 -31 127 -72 127 -145c0 -81 -58 -146 -213 -146c-164 0 -233 66 -233 199v229h-75v66h75v117l86 23v-140h155c20 7 43 11 69 11c49 0 92 -13 118 -29zM179 417v-221
c0 -109 54 -142 155 -142c93 0 120 34 120 73c0 42 -26 64 -90 88c-87 32 -129 80 -128 138c0 23 6 45 16 64h-73z" />
    <glyph glyph-name="uni02A7" unicode="&#x2a7;" horiz-adv-x="532" 
d="M363 483v55c0 128 65 183 155 183c29 0 55 -7 71 -15l-17 -68c-16 7 -33 10 -51 10c-45 0 -71 -32 -71 -108v-568c0 -125 -66 -180 -154 -180c-21 0 -53 4 -70 12l15 70c19 -7 37 -10 51 -10c45 0 71 32 71 108v445h-184v-261c0 -60 19 -94 63 -94c21 0 35 2 46 6l3 -67
c-16 -7 -38 -12 -70 -12c-40 0 -74 14 -95 37c-23 28 -33 70 -33 127v264h-75v66h75v117l86 23v-140h184z" />
    <glyph glyph-name="theta" unicode="&#x3b8;" horiz-adv-x="534" 
d="M269 -11c-143 0 -231 124 -231 372c0 203 82 360 234 360c154 0 224 -145 224 -360c0 -225 -72 -372 -227 -372zM124 399h286c0 141 -46 257 -144 257c-88 0 -142 -122 -142 -257zM410 333h-285c0 -178 60 -279 146 -279c93 0 139 116 139 279z" />
    <glyph glyph-name="chi" unicode="&#x3c7;" horiz-adv-x="458" 
d="M17 483h95l123 -260h4c14 31 30 65 51 107l72 153h86l-171 -326l176 -348l-82 -23l-144 297h-4c-13 -29 -28 -64 -46 -103l-91 -194l-75 24l173 346z" />
    <glyph glyph-name="a.superior" horiz-adv-x="346" 
d="M304 266h-59l-6 42h-2c-19 -24 -54 -47 -100 -47c-67 0 -103 43 -103 96c0 71 71 116 200 113v10c0 15 -10 62 -75 62c-32 0 -62 -9 -85 -27l-16 43c29 21 71 33 114 33c101 0 127 -68 127 -141v-107c0 -27 1 -54 5 -77zM235 372v55c-63 1 -136 -11 -136 -67
c0 -33 27 -51 58 -51s55 17 68 36c6 10 10 20 10 27z" />
    <glyph glyph-name="e.superior" horiz-adv-x="341" 
d="M315 411h-227c2 -72 53 -103 110 -103c39 0 65 7 90 17l10 -45c-27 -12 -62 -21 -109 -21c-103 0 -164 64 -164 161c0 102 64 171 156 171c90 0 136 -67 136 -151c0 -10 -1 -19 -2 -29zM89 457h166c0 34 -17 89 -79 89c-57 0 -82 -52 -87 -89z" />
    <glyph glyph-name="j.superior" unicode="&#x2b2;" horiz-adv-x="170" 
d="M-23 127l-7 51c25 3 49 7 65 24c15 16 22 41 22 116v266h66v-289c0 -66 -12 -104 -40 -131c-28 -26 -72 -36 -106 -37zM91 711c22 0 38 -16 38 -38c0 -21 -15 -38 -40 -38c-23 0 -39 17 -39 39c0 21 17 37 41 37z" />
    <glyph glyph-name="o.superior" horiz-adv-x="355" 
d="M179 591c97 0 158 -69 158 -163c-1 -115 -83 -167 -160 -167c-89 0 -159 64 -159 162c0 104 75 168 161 168zM177 541c-64 0 -92 -62 -92 -117c0 -65 43 -113 93 -113c53 0 92 46 92 115c0 50 -27 115 -93 115z" />
    <glyph glyph-name="eogonek.superior" horiz-adv-x="341" 
d="M89 457h166c0 34 -17 89 -79 89c-57 0 -82 -52 -87 -89zM189 259c-103 0 -164 64 -164 161c0 102 64 171 156 171c90 0 136 -67 136 -151c0 -10 -1 -19 -2 -29h-227c2 -72 53 -103 110 -103c39 0 65 7 90 17l10 -45c-9 -5 -25 -9 -30 -12c-26 -11 -60 -42 -60 -70
c0 -20 11 -27 24 -27c10 0 21 2 31 7l9 -33c-15 -10 -34 -16 -55 -16c-35 0 -59 20 -59 53s24 62 46 77v1c-7 -1 -9 -1 -15 -1z" />
    <glyph glyph-name="uni02B9" unicode="&#x2b9;" horiz-adv-x="188" 
d="M80 692h86l-76 -240h-53z" />
    <glyph glyph-name="uni02BE" unicode="&#x2be;" horiz-adv-x="207" 
d="M43 669v51c81 0 130 -50 130 -114c0 -66 -51 -116 -130 -116v52c42 0 64 30 64 63c0 31 -21 64 -64 64z" />
    <glyph glyph-name="uni02BF" unicode="&#x2bf;" horiz-adv-x="207" 
d="M164 542v-52c-81 0 -130 50 -130 115c0 66 51 115 130 115v-51c-43 0 -65 -31 -65 -64c0 -30 22 -63 65 -63z" />
    <glyph glyph-name="uni02C8" unicode="&#x2c8;" horiz-adv-x="300" 
d="M118 714h64v-145h-64v145z" />
    <glyph glyph-name="uni02D0" unicode="&#x2d0;" horiz-adv-x="221" 
d="M28 483h163l-80 -131h-3zM191 0h-163l80 131h4z" />
    <glyph glyph-name="uni02E4" unicode="&#x2e4;" horiz-adv-x="301" 
d="M205 266h-65v197c-71 22 -126 66 -126 140c0 83 67 136 164 136c46 0 83 -12 102 -21l-17 -50c-18 9 -51 18 -85 18c-59 0 -95 -33 -95 -81c0 -57 46 -87 122 -105v-234z" />
    <glyph glyph-name="f_i" unicode="&#xfb01;" horiz-adv-x="523" 
d="M169 0h-87v417h-68v66h68v28c0 127 75 210 211 210c45 0 98 -14 123 -32l-25 -67c-22 15 -59 29 -102 29c-93 0 -120 -66 -120 -144v-24h281v-483h-87v417h-194v-417z" />
    <glyph glyph-name="f_l" unicode="&#xfb02;" horiz-adv-x="523" 
d="M169 0h-87v417h-68v66h68v22c0 67 23 127 68 167c38 32 87 49 156 49c55 0 108 -12 144 -32v-689h-87v639c-15 8 -38 14 -73 14c-90 0 -121 -67 -121 -145v-25h113v-66h-113v-417z" />
    <glyph glyph-name="ampersand" unicode="&#x26;" horiz-adv-x="624" 
d="M50 158c0 76 50 118 127 160c-39 41 -56 86 -56 128c0 69 46 147 156 147c95 0 147 -61 147 -135c0 -61 -34 -106 -134 -152c50 -54 104 -108 145 -146c30 40 53 105 65 167h77c-16 -87 -51 -165 -95 -213c31 -32 78 -77 115 -114h-108c-18 15 -41 37 -65 59
c-48 -47 -110 -69 -177 -69c-130 1 -197 79 -197 168zM134 169c0 -60 47 -106 125 -106c48 0 86 14 119 43c-37 37 -97 95 -166 168c-41 -25 -78 -56 -78 -105zM250 348c72 36 98 63 98 106c0 34 -22 74 -75 74c-52 0 -76 -36 -76 -78c0 -41 24 -73 53 -102z" />
    <glyph glyph-name="zero" unicode="0" horiz-adv-x="509" 
d="M119 296c0 -134 49 -231 140 -231c89 0 129 100 129 229c0 143 -50 226 -135 226c-77 0 -134 -80 -134 -224zM37 294c0 182 86 300 219 300c157 0 217 -147 217 -300c0 -165 -70 -304 -216 -304c-139 0 -220 123 -220 304z" />
    <glyph glyph-name="one" unicode="1" horiz-adv-x="509" 
d="M302 73h124v-73h-344v73h139v425c-31 -16 -85 -36 -115 -45l-10 68c51 17 115 46 149 68h57v-516z" />
    <glyph glyph-name="two" unicode="2" horiz-adv-x="509" 
d="M47 0v53l64 46c124 88 233 193 233 292c0 72 -37 125 -120 125c-61 0 -106 -25 -147 -57l-30 69c47 35 107 66 187 66c145 0 195 -99 195 -194c0 -131 -135 -249 -243 -328c43 2 82 3 147 3h127v-75h-413z" />
    <glyph glyph-name="three" unicode="3" horiz-adv-x="509" 
d="M45 49l29 76c47 -36 101 -58 165 -58c104 0 134 49 134 97c0 55 -44 101 -148 101h-68v76h64c92 0 130 38 130 88c0 43 -28 90 -116 90c-61 0 -108 -18 -149 -48l-24 70c41 25 97 53 181 53c130 0 188 -70 188 -154c0 -71 -49 -115 -99 -129v-2c60 -14 125 -56 125 -145
c0 -102 -83 -173 -215 -173c-92 1 -153 26 -197 58z" />
    <glyph glyph-name="four" unicode="4" horiz-adv-x="509" 
d="M35 158v57c46 64 226 316 273 374h82v-358h86v-73h-86v-158h-77v158h-278zM125 231h188v95c0 77 2 145 4 175h-1c-33 -46 -167 -237 -191 -270z" />
    <glyph glyph-name="five" unicode="5" horiz-adv-x="509" 
d="M46 49l27 77c47 -36 104 -59 167 -59c111 0 137 64 137 114c0 52 -30 122 -171 122c-52 0 -91 -8 -123 -16v25l44 272h307l-6 -76h-245l-21 -139c17 3 37 6 71 6c163 0 227 -87 227 -186c0 -116 -80 -198 -226 -198c-78 0 -142 23 -188 58z" />
    <glyph glyph-name="six" unicode="6" horiz-adv-x="509" 
d="M126 236c0 -92 56 -171 138 -170c76 0 125 53 125 123c0 68 -40 123 -124 123c-60 0 -114 -34 -139 -76zM44 255c0 226 155 338 325 338c22 0 38 -1 50 -4l-4 -76c-16 3 -34 4 -49 4c-135 0 -222 -80 -240 -203c35 43 96 71 158 71c123 0 185 -82 185 -190
c0 -101 -70 -205 -208 -205s-217 110 -217 265z" />
    <glyph glyph-name="seven" unicode="7" horiz-adv-x="509" 
d="M123 0c95 190 220 460 244 508h-316v76h402v-59c-57 -127 -174 -385 -243 -525h-87z" />
    <glyph glyph-name="eight" unicode="8" horiz-adv-x="509" 
d="M254 343c79 0 106 39 106 88c0 51 -33 91 -109 91c-75 0 -106 -43 -106 -87c0 -54 40 -92 109 -92zM130 169c0 -56 40 -106 127 -106c90 0 122 53 122 103c0 61 -45 103 -127 103c-83 0 -122 -45 -122 -100zM47 163c0 70 44 120 110 141c-59 23 -91 74 -91 133
c0 80 59 157 190 157s182 -79 182 -154c0 -69 -35 -110 -85 -131c64 -19 108 -71 108 -142c0 -98 -69 -177 -211 -177s-203 87 -203 173z" />
    <glyph glyph-name="nine" unicode="9" horiz-adv-x="509" 
d="M247 271c64 0 106 29 135 71c-3 93 -46 177 -138 177c-79 0 -123 -55 -123 -122c0 -68 41 -126 126 -126zM96 -7v77c8 -2 27 -3 35 -3c154 0 229 94 251 198c-36 -42 -87 -69 -150 -69c-124 0 -191 82 -191 198c0 104 76 200 210 200c133 0 212 -106 212 -271
c0 -221 -153 -333 -322 -333c-12 0 -30 1 -45 3z" />
    <glyph glyph-name="period" unicode="." horiz-adv-x="231" 
d="M115 -11c-34 0 -59 27 -58 62c0 38 24 64 59 64c36 0 59 -26 59 -64c0 -35 -23 -62 -60 -62z" />
    <glyph glyph-name="comma" unicode="," horiz-adv-x="231" 
d="M90 -117l-61 -6c22 60 49 166 59 239l98 10c-24 -85 -68 -196 -96 -243z" />
    <glyph glyph-name="colon" unicode=":" horiz-adv-x="286" 
d="M143 342c-35 0 -59 28 -59 62c0 37 25 63 60 63s58 -26 59 -63c0 -34 -24 -62 -60 -62zM143 -11c-35 0 -59 27 -59 62c0 37 25 63 60 63s58 -25 59 -63c0 -35 -24 -62 -60 -62z" />
    <glyph glyph-name="semicolon" unicode=";" horiz-adv-x="286" 
d="M102 -117l-61 -6c22 60 49 166 60 239l97 10c-24 -85 -68 -196 -96 -243zM143 342c-35 0 -60 28 -59 62c0 37 25 63 60 63s58 -26 58 -63c0 -34 -23 -62 -59 -62z" />
    <glyph glyph-name="ellipsis" unicode="&#x2026;" horiz-adv-x="1000" 
d="M167 -11c-35 0 -60 27 -59 62c0 38 25 64 60 64c34 0 58 -26 58 -64c0 -35 -23 -62 -59 -62zM500 -11c-35 0 -60 27 -59 62c0 38 25 64 60 64s58 -26 59 -64c0 -35 -24 -62 -60 -62zM833 -11c-35 0 -59 27 -59 62c0 38 25 64 60 64s59 -26 59 -64c0 -35 -24 -62 -60 -62z
" />
    <glyph glyph-name="exclam" unicode="!" horiz-adv-x="265" 
d="M112 189c-2 28 -13 194 -13 278v84h98v-80c0 -85 -11 -253 -14 -282h-71zM86 52c0 35 26 61 61 61c37 0 61 -27 61 -61c0 -36 -22 -62 -61 -62c-35 0 -61 24 -61 62z" />
    <glyph glyph-name="exclamdown" unicode="&#xa1;" horiz-adv-x="265" 
d="M153 341c2 -28 13 -194 13 -278v-85h-98v81c0 85 11 252 14 282h71zM178 478c0 -36 -25 -61 -60 -61c-37 0 -61 26 -61 61c0 36 22 62 61 62c34 0 60 -24 60 -62z" />
    <glyph glyph-name="question" unicode="?" horiz-adv-x="484" 
d="M181 182c-14 18 -19 40 -19 58c0 82 136 114 136 177c0 38 -33 62 -92 62c-54 0 -91 -16 -127 -35l-21 76c24 14 76 41 156 41c110 0 171 -51 171 -136c0 -112 -138 -142 -138 -196c0 -16 5 -31 15 -47h-81zM161 52c0 35 25 61 60 61c38 0 62 -27 62 -61
c0 -36 -23 -62 -62 -62c-34 0 -60 24 -60 62z" />
    <glyph glyph-name="questiondown" unicode="&#xbf;" horiz-adv-x="462" 
d="M270 362c13 -18 18 -40 18 -58c0 -82 -135 -114 -135 -177c0 -38 32 -62 92 -62c53 0 91 16 127 35l21 -76c-24 -14 -77 -41 -156 -41c-111 0 -172 51 -172 136c0 111 138 142 138 196c0 16 -5 31 -15 47h82zM290 492c0 -36 -25 -61 -61 -61c-37 0 -61 27 -61 61
c0 36 22 62 61 62c35 0 61 -24 61 -62z" />
    <glyph glyph-name="quotesingle" unicode="'" horiz-adv-x="240" 
d="M80 375l-3 230l86 11l-13 -230z" />
    <glyph glyph-name="quotedbl" unicode="&#x22;" horiz-adv-x="415" 
d="M257 377l-4 232l85 11l-12 -231zM82 377l-4 232l85 11l-12 -231z" />
    <glyph glyph-name="quoteleft" unicode="&#x2018;" horiz-adv-x="247" 
d="M51 363c15 66 50 173 83 237l69 6c-21 -64 -46 -153 -59 -233z" />
    <glyph glyph-name="quoteright" unicode="&#x2019;" horiz-adv-x="247" 
d="M44 363c22 65 46 154 59 234l94 9c-15 -65 -50 -171 -83 -236z" />
    <glyph glyph-name="quotedblleft" unicode="&#x201c;" horiz-adv-x="436" 
d="M51 363c15 66 50 173 83 237l69 6c-21 -64 -46 -153 -59 -233zM239 363c15 66 50 173 83 237l70 6c-22 -64 -46 -153 -59 -233z" />
    <glyph glyph-name="quotedblright" unicode="&#x201d;" horiz-adv-x="436" 
d="M44 363c22 65 46 154 59 234l94 9c-15 -65 -50 -171 -83 -236zM233 363c21 65 46 154 58 234l94 9c-15 -65 -50 -171 -83 -236z" />
    <glyph glyph-name="quotesinglbase" unicode="&#x201a;" horiz-adv-x="247" 
d="M44 -115c22 64 46 153 59 233l94 9c-15 -65 -50 -171 -83 -236z" />
    <glyph glyph-name="quotedblbase" unicode="&#x201e;" horiz-adv-x="436" 
d="M44 -117c22 64 46 153 59 233l94 9c-15 -65 -50 -171 -83 -236zM233 -117c21 64 46 153 58 233l94 9c-15 -65 -50 -171 -83 -236z" />
    <glyph glyph-name="guilsinglleft" unicode="&#x2039;" horiz-adv-x="395" 
d="M87 238v63l221 175v-83l-154 -123l154 -125v-85z" />
    <glyph glyph-name="guilsinglright" unicode="&#x203a;" horiz-adv-x="395" 
d="M87 60v83l154 124l-154 125v84l221 -178v-63z" />
    <glyph glyph-name="guillemotleft" unicode="&#xab;" horiz-adv-x="645" 
d="M87 238v63l221 175v-83l-154 -123l154 -125v-85zM337 238v63l222 175v-83l-154 -123l154 -125v-85z" />
    <glyph glyph-name="guillemotright" unicode="&#xbb;" horiz-adv-x="645" 
d="M337 60v83l154 124l-154 125v84l222 -178v-63zM87 60v83l154 124l-154 125v84l221 -178v-63z" />
    <glyph glyph-name="hyphen" unicode="-" horiz-adv-x="322" 
d="M38 317h247v-80h-247v80z" />
    <glyph glyph-name="uni00AD" unicode="&#xad;" horiz-adv-x="322" 
d="M38 317h247v-80h-247v80z" />
    <glyph glyph-name="uni2010" unicode="&#x2010;" horiz-adv-x="322" 
d="M38 317h247v-80h-247v80z" />
    <glyph glyph-name="endash" unicode="&#x2013;" horiz-adv-x="499" 
d="M38 242v74h423v-74h-423z" />
    <glyph glyph-name="emdash" unicode="&#x2014;" horiz-adv-x="785" 
d="M38 242v74h709v-74h-709z" />
    <glyph glyph-name="periodcentered" unicode="&#xb7;" horiz-adv-x="237" 
d="M58 287c0 36 25 61 61 61c37 0 61 -26 61 -61c0 -36 -23 -62 -61 -62c-35 0 -61 24 -61 62z" />
    <glyph glyph-name="bullet" unicode="&#x2022;" horiz-adv-x="349" 
d="M175 180c-59 0 -96 42 -96 93c0 52 36 93 96 93c59 0 94 -41 94 -93s-35 -93 -94 -93z" />
    <glyph glyph-name="parenleft" unicode="(" horiz-adv-x="354" 
d="M204 -123c-63 67 -135 205 -135 383s75 314 135 384h91c-90 -101 -145 -230 -145 -379c0 -161 63 -298 144 -388h-90z" />
    <glyph glyph-name="parenright" unicode=")" horiz-adv-x="354" 
d="M59 -124c90 101 145 232 145 381c0 161 -63 296 -144 387h91c61 -68 134 -204 134 -382s-75 -316 -134 -386h-92z" />
    <glyph glyph-name="bracketleft" unicode="[" horiz-adv-x="354" 
d="M83 -123v767h211v-72h-136v-623h137l-1 -72h-211z" />
    <glyph glyph-name="bracketright" unicode="]" horiz-adv-x="354" 
d="M60 -52h137v622h-138l1 74h212v-767h-212v71z" />
    <glyph glyph-name="braceleft" unicode="{" horiz-adv-x="415" 
d="M164 37l1 96c0 65 -19 98 -111 98v72c87 0 110 32 110 99v84c0 72 37 161 184 166l4 -71c-90 -7 -113 -55 -113 -108c0 -28 1 -45 1 -74c0 -63 -25 -114 -92 -130v-2c75 -13 91 -69 92 -126l-1 -90c0 -75 36 -105 116 -114l-4 -72c-127 4 -187 59 -187 172z" />
    <glyph glyph-name="braceright" unicode="}" horiz-adv-x="414" 
d="M63 -63c90 7 112 62 112 116v82c0 64 25 114 92 130v2c-75 13 -91 69 -92 126v73c0 76 -35 106 -116 114l5 72c127 -3 187 -59 187 -171l-1 -81c0 -64 19 -97 111 -97v-72c-87 0 -111 -32 -111 -99c0 -28 1 -70 1 -100c0 -72 -37 -162 -184 -166z" />
    <glyph glyph-name="asterisk" unicode="*" horiz-adv-x="351" 
d="M75 268l-45 47l104 89l-115 44l30 64l104 -69l8 133l72 -9l-33 -130l120 34l12 -65l-126 -11l86 -111l-56 -37l-70 125z" />
    <glyph glyph-name="dagger" unicode="&#x2020;" horiz-adv-x="518" 
d="M207 -116l9 437l-169 -9v76l169 -8l-9 203h86l-8 -203l168 8v-76l-168 9l8 -437h-86z" />
    <glyph glyph-name="daggerdbl" unicode="&#x2021;" horiz-adv-x="515" 
d="M52 72v75l167 -8v193l-167 -8v75l167 -7l-7 191h85l-6 -191l167 7v-75l-167 8v-193l167 8v-75l-167 8l6 -196h-85l6 196z" />
    <glyph glyph-name="section" unicode="&#xa7;" horiz-adv-x="484" 
d="M226 180c29 -11 66 -25 103 -49c18 16 32 41 32 71c0 49 -48 76 -117 105c-26 11 -56 22 -88 40c-23 -16 -43 -40 -43 -71c0 -42 43 -68 113 -96zM92 -21c24 -17 85 -40 133 -40c62 0 102 23 102 69c0 44 -32 65 -116 97c-106 40 -168 79 -168 158c0 38 19 82 70 113
c-17 16 -34 47 -34 82c0 83 74 135 176 135c56 0 103 -13 135 -31l-20 -64c-24 15 -66 30 -119 30c-56 0 -97 -22 -97 -65s49 -60 122 -90c86 -33 156 -71 156 -158c0 -47 -22 -87 -60 -116c15 -14 34 -42 34 -82c0 -102 -94 -145 -183 -145c-59 0 -117 15 -154 41z" />
    <glyph glyph-name="paragraph" unicode="&#xb6;" horiz-adv-x="550" 
d="M252 147c-87 3 -201 66 -203 203c-1 111 63 226 284 226c53 0 93 -4 119 -9v-699h-65v636h-71v-636h-64v279z" />
    <glyph glyph-name="copyright" unicode="&#xa9;" horiz-adv-x="730" 
d="M65 268c0 170 124 309 301 309c171 0 298 -135 298 -309c0 -173 -126 -311 -298 -311c-170 0 -301 125 -301 311zM114 265c0 -147 109 -253 252 -253s250 98 250 256c0 147 -109 254 -250 254c-146 0 -252 -99 -252 -257zM208 265c0 108 83 175 180 175
c52 0 90 -13 104 -24l-18 -53c-13 7 -43 20 -86 20c-79 0 -121 -48 -121 -115c0 -66 44 -117 121 -117c36 0 68 9 89 21l16 -50c-33 -22 -74 -29 -112 -29c-109 0 -173 76 -173 172z" />
    <glyph glyph-name="trademark" unicode="&#x2122;" horiz-adv-x="500" 
d="M80 340v162h-65v42h173v-42h-64v-162h-44zM212 340l15 204h64c35 -102 42 -124 46 -148h1c4 17 12 45 49 148h62l15 -204h-43c-9 130 -8 149 -9 172h-1c-6 -19 -14 -50 -55 -169h-43c-38 120 -45 149 -49 168h-2c-1 -20 -1 -45 -9 -171h-41z" />
    <glyph glyph-name="registered" unicode="&#xae;" horiz-adv-x="425" 
d="M148 299v164c15 2 37 5 64 5c31 0 46 -5 57 -12c10 -7 17 -20 17 -36c0 -18 -15 -32 -34 -38v-2c16 -6 24 -19 29 -41c5 -24 9 -34 12 -40h-41c-5 6 -8 21 -13 40c-3 17 -13 25 -33 25h-19v-65h-39zM188 392h19c20 0 37 7 37 23c0 15 -11 24 -35 24c-10 0 -17 -1 -21 -1
v-46zM213 214c-91 0 -164 75 -164 171c0 94 73 169 164 169c92 0 163 -75 163 -169c0 -96 -71 -171 -163 -171zM214 254c72 0 125 57 125 130s-53 131 -126 131c-72 0 -127 -58 -127 -130c0 -74 55 -131 128 -131z" />
    <glyph glyph-name="at" unicode="@" horiz-adv-x="809" 
d="M294 157c0 -43 20 -71 64 -71c60 0 116 63 130 141l18 93c-13 5 -33 8 -57 8c-88 0 -155 -73 -155 -171zM55 167c0 232 151 418 386 418c184 0 315 -122 315 -308c0 -176 -99 -268 -195 -268c-47 0 -82 25 -83 83c-40 -60 -89 -83 -143 -83c-61 0 -111 50 -111 137
c0 135 100 256 245 256c45 0 86 -10 112 -23l-38 -212c-11 -62 2 -80 32 -81c46 -1 112 57 112 185c0 147 -100 236 -256 236c-165 0 -306 -122 -306 -334c0 -175 119 -271 261 -271c61 0 115 11 156 33l22 -71c-56 -32 -117 -42 -187 -42c-173 0 -322 131 -322 345z" />
    <glyph glyph-name="numbersign" unicode="#" horiz-adv-x="521" 
d="M487 361h-94l-30 -121h71v-78h-90l-40 -165h-63l41 165h-110l-41 -165h-62l41 165h-74v78h94l30 121h-75v76h94l37 149h62l-37 -149h108l37 150h62l-37 -150h76v-76zM301 240l29 121h-108l-30 -121h109z" />
    <glyph glyph-name="onequarter" unicode="&#xbc;" horiz-adv-x="786" 
d="M161 -8l351 599h70l-352 -600zM133 228v286l-73 -35l-20 56l100 49h63v-356h-70zM437 86v51l168 219h79v-210h50v-60h-50v-86h-65v86h-182zM508 146h111v50c0 22 0 77 1 100z" />
    <glyph glyph-name="onehalf" unicode="&#xbd;" horiz-adv-x="812" 
d="M501 0v47c96 60 175 123 174 189c-1 37 -23 59 -66 59c-36 0 -70 -17 -88 -29l-19 57c26 22 69 40 121 40c85 0 125 -55 125 -118c0 -74 -58 -131 -135 -183c38 2 101 1 150 1v-63h-262zM133 228v286l-73 -35l-20 56l100 49h63v-356h-70zM160 -8l351 599h70l-351 -600z
" />
    <glyph glyph-name="threequarters" unicode="&#xbe;" horiz-adv-x="824" 
d="M44 251l16 62c19 -12 61 -28 99 -28c53 0 78 19 77 49c0 35 -38 47 -91 47h-36v61h37c41 0 78 9 78 44c0 24 -20 41 -64 41c-37 0 -77 -16 -91 -26l-16 58c22 15 68 31 116 31c84 0 126 -42 126 -94c0 -36 -22 -67 -59 -79v-2c38 -10 73 -33 73 -85
c0 -60 -57 -108 -147 -108c-48 0 -90 11 -118 29zM476 86v51l167 219h80v-210h49v-60h-49v-86h-66v86h-181zM547 146h110v50c0 22 1 77 2 100zM209 -8l352 599h70l-352 -599h-70z" />
    <glyph glyph-name="percent" unicode="%" horiz-adv-x="831" 
d="M197 242c-100 0 -152 80 -152 174c0 110 73 178 153 178c98 0 151 -79 151 -175c0 -86 -50 -177 -152 -177zM199 312c50 0 84 40 84 106s-33 108 -85 108c-45 0 -85 -39 -85 -108c0 -59 31 -106 86 -106zM483 164c0 111 72 178 152 178c98 0 151 -74 151 -174
c0 -85 -49 -177 -151 -177c-100 0 -152 82 -152 173zM549 167c0 -56 32 -106 88 -106c49 0 84 41 84 107c0 63 -33 107 -86 107c-48 0 -86 -41 -86 -108zM203 -8l351 599h70l-351 -599h-70z" />
    <glyph glyph-name="perthousand" unicode="&#x2030;" horiz-adv-x="1177" 
d="M197 242c-100 0 -152 80 -152 174c0 110 73 178 153 178c98 0 151 -79 151 -175c0 -86 -50 -177 -152 -177zM199 312c50 0 84 40 84 106s-33 108 -85 108c-45 0 -85 -39 -85 -108c0 -59 31 -106 86 -106zM483 164c0 111 72 178 152 178c98 0 151 -74 151 -174
c0 -85 -49 -177 -151 -177c-100 0 -152 82 -152 173zM549 167c0 -56 32 -106 88 -106c49 0 84 41 84 107c0 63 -33 107 -86 107c-48 0 -86 -41 -86 -108zM203 -8l351 599h70l-351 -599h-70zM829 164c0 111 73 178 152 178c98 0 151 -74 151 -174c0 -85 -48 -177 -151 -177
c-100 0 -152 82 -152 173zM895 167c0 -56 33 -106 88 -106c49 0 84 41 84 107c0 63 -33 107 -85 107c-48 0 -87 -41 -87 -108z" />
    <glyph glyph-name="onesuperior" unicode="&#xb9;" horiz-adv-x="274" 
d="M132 228v286l-73 -35l-20 56l100 49h63v-356h-70z" />
    <glyph glyph-name="twosuperior" unicode="&#xb2;" horiz-adv-x="339" 
d="M38 229v47c96 60 175 123 173 189c0 37 -22 60 -66 60c-35 0 -69 -18 -87 -30l-20 57c27 23 70 40 122 40c84 0 125 -54 125 -117c0 -74 -59 -132 -135 -184c38 2 100 2 149 2v-64h-261z" />
    <glyph glyph-name="threesuperior" unicode="&#xb3;" horiz-adv-x="333" 
d="M40 251l16 62c18 -12 60 -28 99 -28c53 0 78 19 77 49c-1 35 -38 47 -91 47h-36v61h37c41 0 78 9 78 44c0 24 -21 41 -65 41c-36 0 -77 -16 -91 -26l-16 58c23 15 69 31 117 31c84 0 125 -42 125 -94c0 -36 -21 -67 -59 -79v-2c38 -10 73 -33 73 -85
c0 -60 -56 -108 -146 -108c-48 0 -91 11 -118 29z" />
    <glyph glyph-name="ordfeminine" unicode="&#xaa;" horiz-adv-x="339" 
d="M295 237h-57c-2 13 -4 28 -5 41h-2c-18 -23 -52 -46 -98 -46c-65 0 -98 42 -98 94c0 69 68 113 193 110v8c0 15 -9 56 -73 56c-31 0 -60 -10 -81 -25l-16 48c28 20 68 31 110 31c98 0 121 -66 121 -137v-104c0 -26 2 -53 6 -76zM229 342v44c-61 1 -133 -6 -133 -57
c0 -30 26 -43 56 -43s55 16 67 33c6 9 10 17 10 23z" />
    <glyph glyph-name="ordmasculine" unicode="&#xba;" horiz-adv-x="370" 
d="M186 554c95 0 152 -69 152 -159c-1 -112 -78 -163 -153 -163c-87 0 -152 62 -152 158c0 102 70 164 153 164zM185 493c-63 0 -91 -50 -91 -102c0 -61 43 -97 91 -97c53 0 91 34 91 100c0 47 -27 99 -91 99z" />
    <glyph glyph-name="degree" unicode="&#xb0;" horiz-adv-x="333" 
d="M165 287c-77 0 -127 61 -127 131c0 77 56 136 128 136c80 0 129 -62 129 -131c0 -82 -60 -136 -130 -136zM166 345c47 0 77 31 77 76c0 33 -21 75 -77 75c-51 0 -76 -40 -76 -77c0 -41 32 -74 76 -74z" />
    <glyph glyph-name="currency" unicode="&#xa4;" horiz-adv-x="542" 
d="M269 475c47 0 88 -15 115 -40l72 75l43 -45l-77 -71c18 -28 34 -70 34 -118c0 -54 -16 -97 -34 -123l74 -73l-44 -45l-69 77c-30 -29 -76 -42 -116 -42c-41 0 -88 14 -114 39l-67 -74l-43 45l72 70c-21 26 -37 71 -37 120c0 53 17 95 38 124l-75 70l45 46l68 -75
c29 25 71 40 115 40zM267 412c-73 0 -118 -63 -118 -140c0 -98 66 -140 117 -140c56 0 119 40 119 143c0 69 -41 137 -118 137z" />
    <glyph glyph-name="uni20AA" unicode="&#x20aa;" horiz-adv-x="672" 
d="M74 -1v585h249c91 0 117 -37 117 -134v-236h-64v201c2 65 -20 78 -85 78h-142v-494h-75zM228 154l2 209h64v-205c0 -63 39 -68 96 -68h132v494h76v-585h-256c-103 0 -115 60 -114 155z" />
    <glyph glyph-name="dollar" unicode="$" horiz-adv-x="521" 
d="M289 -91h-62v94c-58 1 -117 22 -153 46l25 71c36 -25 92 -47 148 -47c75 0 117 32 117 84c0 51 -42 80 -116 107c-112 39 -165 86 -165 168c0 77 56 136 150 150v94h63v-91c60 -2 103 -19 129 -35l-26 -70c-22 12 -65 36 -129 36c-76 0 -104 -37 -104 -74
c0 -48 38 -69 125 -101c111 -40 156 -94 156 -176c0 -76 -53 -144 -158 -159v-97z" />
    <glyph glyph-name="sterling" unicode="&#xa3;" horiz-adv-x="521" 
d="M469 0h-415v50c71 35 108 87 108 160c0 20 0 33 -3 51h-96v64h89c-3 27 -6 46 -6 75c0 119 72 187 183 187c52 0 93 -14 114 -28l-21 -70c-19 12 -50 25 -92 25c-78 0 -101 -47 -101 -115c0 -27 1 -48 6 -74h146v-64h-141c5 -63 -3 -140 -69 -187h298v-74z" />
    <glyph glyph-name="yen" unicode="&#xa5;" horiz-adv-x="521" 
d="M87 155v52h132v68h-132v53h112l-165 251h101l84 -144c20 -36 34 -62 46 -89h1c11 24 29 56 49 91l80 141h97l-167 -250h111v-53h-134v-68h134v-52h-134v-155h-83v155h-132z" />
    <glyph glyph-name="Euro" unicode="&#x20ac;" horiz-adv-x="542" 
d="M481 97l19 -71c-31 -21 -81 -35 -147 -35c-117 0 -226 65 -255 214h-61v52h55c-1 9 -1 19 -1 29c0 13 1 26 2 39h-56v52h64c27 121 113 210 263 210c59 0 106 -13 133 -27l-21 -75c-26 14 -68 25 -114 25c-93 0 -153 -48 -176 -133h235v-52h-244c-1 -12 -2 -25 -2 -38
c0 -10 0 -20 1 -30h245v-52h-236c20 -80 76 -136 177 -136c50 0 92 15 119 28z" />
    <glyph glyph-name="cent" unicode="&#xa2;" horiz-adv-x="521" 
d="M339 -50h-63v101c-64 8 -108 31 -144 70c-34 38 -57 96 -57 169c0 129 79 228 201 247v100h63v-98c45 0 85 -13 109 -25l-20 -71c-21 12 -56 26 -106 26c-100 0 -161 -77 -161 -176c0 -110 69 -171 158 -171c54 0 90 13 115 25l15 -67c-19 -11 -61 -27 -110 -29v-101z
" />
    <glyph glyph-name="uni0192" unicode="&#x192;" horiz-adv-x="521" 
d="M115 306v66h99l6 41c11 98 56 214 190 214c30 -1 55 -7 69 -15l-16 -68c-16 5 -32 10 -53 10c-68 0 -98 -61 -106 -134l-6 -48h120v-66h-128l-24 -192c-16 -130 -56 -218 -175 -218c-33 0 -60 7 -76 16l15 68c17 -8 35 -11 56 -11c61 0 85 50 98 152l22 185h-91z" />
    <glyph glyph-name="fraction" unicode="&#x2044;" horiz-adv-x="105" 
d="M-89 -8l-69 1l352 550h70z" />
    <glyph glyph-name="uni2215" unicode="&#x2215;" horiz-adv-x="105" 
d="M-89 -8l-69 1l352 550h70z" />
    <glyph glyph-name="asciicircum" unicode="^" horiz-adv-x="514" 
d="M47 220l163 324h89l169 -325h-77l-137 262h-1l-130 -261h-76z" />
    <glyph glyph-name="slash" unicode="/" horiz-adv-x="433" 
d="M68 -36l221 620h76l-221 -620h-76z" />
    <glyph glyph-name="bar" unicode="|" horiz-adv-x="239" 
d="M86 750h67v-1000h-67v1000z" />
    <glyph glyph-name="backslash" unicode="\" horiz-adv-x="433" 
d="M289 -36l-221 620h76l221 -620h-76z" />
    <glyph glyph-name="asciitilde" unicode="~" horiz-adv-x="596" 
d="M108 211h-59c-4 99 50 150 119 150c42 0 73 -13 142 -45c49 -24 87 -42 124 -42c35 0 53 29 54 84h59c6 -112 -52 -152 -115 -152c-39 0 -75 13 -144 45c-48 24 -85 44 -120 44c-36 0 -58 -26 -60 -84z" />
    <glyph glyph-name="brokenbar" unicode="&#xa6;" horiz-adv-x="239" 
d="M86 174h67v-350h-67v350zM86 674h67v-350h-67v350z" />
    <glyph glyph-name="underscore" unicode="_" horiz-adv-x="500" 
d="M0 -75h500v-50h-500v50z" />
    <glyph glyph-name="plus" unicode="+" horiz-adv-x="596" 
d="M266 532h64v-235h226v-60h-226v-237h-64v237h-226v60h226v235z" />
    <glyph glyph-name="minus" unicode="&#x2212;" horiz-adv-x="596" 
d="M40 297h516v-60h-516v60z" />
    <glyph glyph-name="multiply" unicode="&#xd7;" horiz-adv-x="596" 
d="M40 482l43 44l215 -219l214 219l44 -44l-214 -219l213 -219l-43 -44l-214 218l-214 -218l-44 44l214 219z" />
    <glyph glyph-name="divide" unicode="&#xf7;" horiz-adv-x="596" 
d="M298 387c-32 0 -53 24 -53 54c0 34 22 57 54 57c31 0 52 -23 52 -57c0 -30 -20 -54 -53 -54zM556 237h-516v60h516v-60zM298 36c-32 0 -53 24 -53 55c0 33 22 56 54 56c31 0 52 -23 52 -56c0 -31 -20 -55 -53 -55z" />
    <glyph glyph-name="less" unicode="&#x3c;" horiz-adv-x="596" 
d="M66 238v55l464 239v-69l-391 -196v-2l391 -196v-69z" />
    <glyph glyph-name="greater" unicode="&#x3e;" horiz-adv-x="596" 
d="M530 294v-57l-464 -237v69l394 196v2l-394 196v69z" />
    <glyph glyph-name="equal" unicode="=" horiz-adv-x="596" 
d="M556 141h-516v60h516v-60zM556 337h-516v61h516v-61z" />
    <glyph glyph-name="uni2219" unicode="&#x2219;" horiz-adv-x="207" 
d="M103 200c-35 0 -60 27 -59 63c0 36 25 63 59 63c35 0 59 -26 59 -63c0 -36 -23 -63 -59 -63z" />
    <glyph glyph-name="plusminus" unicode="&#xb1;" horiz-adv-x="596" 
d="M266 572h64v-194h226v-61h-226v-200h-64v200h-226v61h226v194zM40 60h516v-60h-516v60z" />
    <glyph glyph-name="lessequal" unicode="&#x2264;" horiz-adv-x="596" 
d="M530 99l-464 193v58l464 193v-66l-382 -155v-2l382 -154v-67zM530 0h-462v57h462v-57z" />
    <glyph glyph-name="greaterequal" unicode="&#x2265;" horiz-adv-x="596" 
d="M530 292l-464 -193v67l382 154v2l-382 155v66l464 -193v-58zM528 0h-462v57h462v-57z" />
    <glyph glyph-name="approxequal" unicode="&#x2248;" horiz-adv-x="596" 
d="M533 416l37 -41c-32 -40 -90 -78 -152 -78c-59 0 -96 23 -128 37c-30 12 -64 34 -115 34c-45 0 -90 -31 -117 -59l-35 42c32 38 90 77 153 77c59 0 95 -23 128 -36c30 -13 63 -34 113 -34c46 0 91 32 116 58zM538 218l36 -40c-32 -41 -90 -79 -153 -79
c-57 0 -95 22 -127 36c-30 12 -64 34 -115 34c-44 0 -90 -30 -117 -59l-35 43c32 38 91 76 153 76c59 0 95 -22 128 -36c30 -12 64 -34 113 -34c47 0 92 31 117 59z" />
    <glyph glyph-name="notequal" unicode="&#x2260;" horiz-adv-x="596" 
d="M556 140h-310l-76 -122h-65l79 122h-144v60h182l89 138h-271v60h309l76 122h65l-78 -122h144v-60h-183l-89 -138h272v-60z" />
    <glyph glyph-name="logicalnot" unicode="&#xac;" horiz-adv-x="596" 
d="M40 399h516v-278h-64v218h-452v60z" />
    <glyph glyph-name="pi" unicode="&#x3c0;" horiz-adv-x="554" 
d="M520 415h-66v-271c0 -80 6 -119 13 -144h-85c-8 14 -16 58 -16 135v280h-158c-4 -127 -33 -336 -68 -415h-83c35 95 63 287 66 415c-39 0 -73 -2 -97 -8l-12 51c22 15 61 25 139 25h377z" />
    <glyph glyph-name="uni00B5" unicode="&#xb5;" horiz-adv-x="553" 
d="M403 75h-3c-21 -37 -68 -84 -139 -84c-44 0 -85 16 -106 53v-60c0 -53 1 -142 11 -182h-79c-10 30 -14 101 -14 178v503h87v-286c0 -74 32 -136 109 -136c58 0 100 41 116 81c4 13 8 29 8 45v296h87v-350c0 -54 11 -74 46 -76l-7 -64c-10 -3 -16 -4 -30 -4
c-43 0 -79 24 -86 86z" />
    <glyph glyph-name="partialdiff" unicode="&#x2202;" horiz-adv-x="529" 
d="M86 614l-28 59c33 23 88 53 173 53c138 0 263 -124 263 -353c0 -254 -128 -384 -270 -384c-134 0 -198 104 -198 211c0 135 96 243 219 243c83 0 141 -48 163 -87h1c2 10 2 22 2 33c0 175 -94 265 -188 265c-65 0 -111 -21 -137 -40zM232 61c90 0 153 102 167 215
c-18 50 -71 97 -140 97c-80 0 -145 -74 -145 -172c0 -87 48 -140 118 -140z" />
    <glyph glyph-name="integral" unicode="&#x222b;" horiz-adv-x="316" 
d="M306 788l-11 -56c-9 2 -20 4 -31 4c-17 0 -34 -7 -45 -22c-20 -25 -30 -69 -30 -158c0 -145 12 -319 12 -470c0 -98 -18 -156 -42 -188c-22 -32 -57 -48 -96 -48c-22 0 -44 4 -53 9l11 57c9 -2 21 -5 36 -5c16 0 32 6 44 21c17 21 31 58 31 154c0 152 -12 330 -12 476
c0 101 17 157 53 196c23 25 54 37 88 37c18 0 35 -3 45 -7z" />
    <glyph glyph-name="radical" unicode="&#x221a;" horiz-adv-x="562" 
d="M579 827l-230 -921h-64l-159 427l-75 -31l-19 47l138 57l123 -346c8 -21 15 -46 19 -64h2c3 17 8 43 13 64l185 767h67z" />
    <glyph glyph-name="uni2206" unicode="&#x2206;" horiz-adv-x="620" 
d="M25 0v49l235 625h99l232 -624v-50h-566zM118 72h376l-137 372c-18 47 -38 107 -50 150h-4c-9 -34 -27 -90 -44 -137z" />
    <glyph glyph-name="uni2126" unicode="&#x2126;" horiz-adv-x="705" 
d="M528 73v-3h147v-70h-253v55c80 55 149 161 149 297c-1 123 -73 262 -216 262s-221 -131 -221 -263c0 -126 71 -245 149 -296v-55h-253v70h146v3c-68 54 -133 155 -133 285c0 192 135 327 315 327c186 0 303 -141 303 -319c0 -138 -66 -238 -133 -293z" />
    <glyph glyph-name="summation" unicode="&#x2211;" horiz-adv-x="506" 
d="M514 -90h-505v52l251 316l-238 313v59h461v-72h-349v-3l222 -294l-234 -295v-4h392v-72z" />
    <glyph glyph-name="product" unicode="&#x220f;" horiz-adv-x="615" 
d="M605 577h-93v-667h-83v667h-244v-667h-83v667h-93v73h596v-73z" />
    <glyph glyph-name="estimated" unicode="&#x212e;" horiz-adv-x="817" 
d="M782 316h-605c-3 0 -5 -1 -5 -4v-183c0 -8 4 -15 9 -21c57 -61 139 -99 229 -99c96 0 182 43 240 111h55c-68 -79 -176 -131 -296 -131c-206 0 -374 150 -374 336s168 336 374 336s373 -150 373 -336v-9zM646 340v184c0 9 -4 16 -10 22c-58 58 -138 95 -226 95
c-90 0 -170 -38 -228 -98c-6 -6 -10 -14 -10 -23v-180c0 -3 2 -5 5 -5h464c3 0 5 2 5 5z" />
    <glyph glyph-name="uni2113" unicode="&#x2113;" horiz-adv-x="504" 
d="M194 511v-215c82 83 131 173 131 263c0 67 -27 93 -62 93c-36 0 -69 -41 -69 -141zM431 151l44 -40c-47 -82 -114 -121 -200 -121c-103 0 -153 68 -163 162v8c-19 -13 -37 -25 -56 -38l-25 50c26 19 54 38 80 60v263c0 156 68 219 157 219c80 0 129 -62 129 -153
c0 -122 -71 -232 -203 -349v-14c1 -100 43 -135 102 -135c65 0 111 52 135 88z" />
    <glyph glyph-name="infinity" unicode="&#x221e;" horiz-adv-x="728" 
d="M179 116c-85 0 -144 62 -144 148c0 80 64 148 152 148c74 0 128 -59 177 -107c52 50 104 107 185 107c85 0 144 -62 144 -148c0 -80 -64 -148 -152 -148c-74 0 -129 59 -177 107c-52 -51 -104 -107 -185 -107zM542 176c50 0 88 41 88 88c0 51 -36 88 -85 88
c-57 0 -103 -49 -141 -88c39 -36 80 -88 138 -88zM183 176c57 0 103 49 141 88c-39 36 -80 88 -138 88c-50 0 -88 -41 -88 -88c0 -51 36 -88 85 -88z" />
    <glyph glyph-name="lozenge" unicode="&#x25ca;" horiz-adv-x="521" 
d="M477 325l-182 -356h-69l-182 356l182 355h69zM401 323l-130 267c-4 6 -8 15 -10 23h-2c-3 -8 -7 -17 -11 -23l-128 -264l131 -266c3 -7 8 -16 10 -24h2c3 8 7 17 10 24z" />
    <glyph glyph-name="grave" unicode="`" horiz-adv-x="300" 
d="M20 693h95l95 -143h-71z" />
    <glyph glyph-name="acute" unicode="&#xb4;" horiz-adv-x="300" 
d="M193 693h97l-121 -143h-72z" />
    <glyph glyph-name="circumflex" unicode="&#x2c6;" horiz-adv-x="300" 
d="M117 691h65l107 -139h-70l-69 90h-2l-68 -90h-68z" />
    <glyph glyph-name="caron" unicode="&#x2c7;" horiz-adv-x="300" 
d="M184 552h-66l-106 139h70l68 -90h2l68 90h69z" />
    <glyph glyph-name="tilde" unicode="&#x2dc;" horiz-adv-x="300" 
d="M63 570h-52c-2 71 31 103 77 103c25 0 42 -10 69 -23c18 -10 34 -21 48 -21c16 0 31 6 33 46h51c0 -73 -30 -105 -77 -105c-25 0 -44 10 -69 24c-22 12 -35 19 -50 19c-17 0 -28 -7 -30 -43z" />
    <glyph glyph-name="dieresis" unicode="&#xa8;" horiz-adv-x="300" 
d="M58 570c-30 0 -51 24 -51 51c0 28 23 51 51 51s49 -23 49 -51c0 -27 -20 -51 -49 -51zM242 570c-29 0 -50 24 -50 51c0 28 23 51 51 51s49 -23 49 -51c0 -27 -20 -51 -50 -51z" />
    <glyph glyph-name="macron" unicode="&#xaf;" horiz-adv-x="300" 
d="M28 648h245v-61h-245v61z" />
    <glyph glyph-name="breve" unicode="&#x2d8;" horiz-adv-x="300" 
d="M22 677h54c8 -37 31 -66 74 -66c52 0 68 34 74 66h54c-6 -74 -54 -121 -128 -121c-86 0 -124 62 -128 121z" />
    <glyph glyph-name="ring" unicode="&#x2da;" horiz-adv-x="300" 
d="M142 537c-63 0 -104 41 -104 93c0 51 40 94 103 94s103 -40 103 -93s-42 -94 -102 -94zM142 577c33 0 50 26 50 53c0 26 -17 54 -50 54s-50 -27 -50 -52c0 -27 17 -55 50 -55z" />
    <glyph glyph-name="hungarumlaut" unicode="&#x2dd;" horiz-adv-x="300" 
d="M101 692h80l-82 -136h-59zM256 692h80l-82 -136h-59z" />
    <glyph glyph-name="dotaccent" unicode="&#x2d9;" horiz-adv-x="300" 
d="M139 570c-29 0 -50 24 -50 51c0 28 23 52 51 52s49 -23 49 -52c0 -27 -20 -51 -50 -51z" />
    <glyph glyph-name="cedilla" unicode="&#xb8;" horiz-adv-x="300" 
d="M136 2h54l-31 -52c36 -7 70 -32 70 -73c0 -61 -50 -83 -104 -83c-23 0 -51 6 -69 18l14 44c15 -9 36 -13 55 -13c23 0 43 7 43 31c-1 26 -31 37 -78 42z" />
    <glyph glyph-name="ogonek" unicode="&#x2db;" horiz-adv-x="300" 
d="M123 4h57c-15 -19 -53 -62 -53 -100c0 -32 20 -50 50 -50c18 0 34 4 46 9l14 -45c-21 -15 -55 -23 -80 -23c-57 0 -94 29 -94 86c0 49 35 96 60 123z" />
    <glyph glyph-name="gravecomb" unicode="&#x300;" 
d="M-139 693h95l92 -143h-71z" />
    <glyph glyph-name="acutecomb" unicode="&#x301;" 
d="M49 693h97l-121 -143h-71z" />
    <glyph glyph-name="uni0302" unicode="&#x302;" 
d="M-33 691h65l107 -139h-70l-69 90h-2l-68 -90h-68z" />
    <glyph glyph-name="uni030C" unicode="&#x30c;" 
d="M32 550h-63l-96 143h67l59 -95h2l60 95h65z" />
    <glyph glyph-name="tildecomb" unicode="&#x303;" 
d="M-87 570h-51c-2 71 31 103 76 103c26 0 42 -10 70 -23c17 -10 34 -21 48 -21c15 0 30 6 33 46h51c0 -73 -30 -105 -77 -105c-25 0 -45 10 -69 24c-22 12 -36 19 -50 19c-17 0 -29 -7 -31 -43z" />
    <glyph glyph-name="uni0308" unicode="&#x308;" 
d="M-92 570c-30 0 -50 24 -50 51c0 28 22 51 51 51c27 0 48 -23 48 -51c0 -27 -20 -51 -49 -51zM93 570c-29 0 -50 24 -50 51c0 28 22 51 51 51c28 0 49 -23 49 -51c0 -27 -20 -51 -50 -51z" />
    <glyph glyph-name="uni0304" unicode="&#x304;" 
d="M-122 648h245v-61h-245v61z" />
    <glyph glyph-name="uni0306" unicode="&#x306;" 
d="M-128 677h54c8 -37 31 -66 73 -66c53 0 69 35 74 66h55c-6 -73 -54 -121 -128 -121c-86 0 -124 62 -128 121z" />
    <glyph glyph-name="uni030A" unicode="&#x30a;" 
d="M1 537c-63 0 -104 41 -104 93c0 51 40 94 104 94c62 0 102 -40 102 -93s-42 -94 -102 -94zM0 577c33 0 51 26 51 53c0 26 -17 54 -50 54s-50 -27 -50 -52c0 -27 16 -55 49 -55z" />
    <glyph glyph-name="uni030B" unicode="&#x30b;" 
d="M-36 692h86l-110 -136h-55zM108 692h87l-111 -136h-54z" />
    <glyph glyph-name="uni0307" unicode="&#x307;" 
d="M-1 570c-29 0 -49 24 -49 51c0 28 22 52 50 52s50 -23 50 -52c0 -27 -21 -51 -51 -51z" />
    <glyph glyph-name="dotbelowcomb" unicode="&#x323;" 
d="M0 -80c28 0 50 -23 50 -52c0 -27 -21 -51 -51 -51c-28 0 -49 24 -49 51c0 29 22 52 50 52z" />
    <glyph glyph-name="uni031E" unicode="&#x31e;" 
d="M-26 -247v88h-68v52h188v-52h-67v-88h-53z" />
    <glyph glyph-name="uni032E" unicode="&#x32e;" 
d="M-124 -82h52c6 -39 32 -69 72 -69c47 0 69 36 72 69h52c0 -75 -48 -125 -124 -125c-88 0 -124 62 -124 125z" />
    <glyph glyph-name="uni0331" unicode="&#x331;" 
d="M-117 -103h235v-60h-235v60z" />
    <glyph glyph-name="uni0361" unicode="&#x361;" 
d="M681 563h-77c-60 46 -163 94 -325 94c-176 0 -266 -48 -327 -94h-76c55 71 188 152 404 152c215 0 341 -80 401 -152z" />
    <glyph glyph-name="uni200C" unicode="&#x200c;" 
d="M-53 737l-16 17l52 52l-52 52l16 17l53 -53l52 52l16 -16l-52 -52l52 -52l-16 -16l-52 51z" />
    <glyph glyph-name="uni200D" unicode="&#x200d;" 
d="M-76 749h-23v69h199v-69h-23v46h-153v-46z" />
    <glyph glyph-name="uni200E" unicode="&#x200e;" 
d="M26 737l-16 17l41 41h-126v23h126l-41 40l16 17l69 -69z" />
    <glyph glyph-name="uni200F" unicode="&#x200f;" 
d="M-26 738l-69 68l69 69l16 -16l-41 -41h127v-23h-126l40 -41z" />
    <glyph glyph-name="uni202A" unicode="&#x202a;" 
d="M-28 795h-57v23h57v-23zM26 737l-16 17l41 41h-50v23h50l-41 40l16 17l69 -69z" />
    <glyph glyph-name="uni202B" unicode="&#x202b;" 
d="M28 795v23h57v-23h-57zM-26 738l-69 68l69 69l16 -16l-41 -41h50v-23h-49l40 -41z" />
    <glyph glyph-name="uni202C" unicode="&#x202c;" 
d="M11 736h-23v101l-40 -40l-17 16l69 69l69 -69l-17 -16l-41 41v-102z" />
    <glyph glyph-name="uni202D" unicode="&#x202d;" 
d="M-21 737l-16 17l41 41h-107v23h106l-40 40l16 17l69 -69zM44 737l-16 17l53 52l-53 52l16 17l69 -69z" />
    <glyph glyph-name="uni202E" unicode="&#x202e;" 
d="M21 737l-68 69l68 69l17 -17l-41 -41h107v-23h-107l41 -40zM-44 737l-69 69l69 69l16 -17l-52 -52l52 -52z" />
    <glyph glyph-name="uni25CC" unicode="&#x25cc;" horiz-adv-x="625" 
d="M71 236c-24 0 -35 12 -35 36s11 36 35 36s38 -12 38 -36s-14 -36 -38 -36zM516 272c0 24 12 36 37 36c24 0 36 -12 36 -36s-12 -36 -36 -36c-25 0 -37 12 -37 36zM312 475c-24 0 -36 13 -36 38c0 24 12 36 36 36s37 -12 37 -36c0 -25 -13 -38 -37 -38zM276 31
c0 24 12 38 36 38s37 -14 37 -38s-13 -36 -37 -36s-36 12 -36 36zM485 393c0 24 13 36 37 36s37 -12 37 -36s-13 -38 -37 -38s-37 14 -37 38zM485 151c0 24 13 38 37 38s37 -14 37 -38s-13 -36 -37 -36s-37 12 -37 36zM101 355c-24 0 -35 14 -35 38s11 36 35 36
c26 0 39 -12 39 -36s-13 -38 -39 -38zM101 115c-24 0 -35 12 -35 36s11 38 35 38c26 0 39 -14 39 -38s-13 -36 -39 -36zM191 445c-24 0 -35 13 -35 38c0 24 11 36 35 36c25 0 39 -12 39 -36c0 -25 -14 -38 -39 -38zM433 445c-24 0 -38 13 -38 38c0 24 14 36 38 36
s36 -12 36 -36c0 -25 -12 -38 -36 -38zM156 62c0 24 11 37 35 37c25 0 39 -13 39 -37s-14 -37 -39 -37c-24 0 -35 13 -35 37zM395 62c0 24 14 37 38 37s36 -13 36 -37s-12 -37 -36 -37s-38 13 -38 37z" />
    <glyph glyph-name="uni00A0" unicode="&#xa0;" horiz-adv-x="213" 
 />
    <glyph glyph-name="ampersand.heb" horiz-adv-x="645" 
d="M53 152c0 74 47 111 122 148c-36 39 -52 78 -52 117c0 65 52 137 162 137c90 0 150 -58 150 -124c0 -57 -29 -102 -132 -148c50 -51 99 -95 140 -131c29 37 50 92 61 150h83c-16 -86 -49 -152 -93 -198c31 -30 68 -60 107 -93l-3 -5l-105 -13c-17 15 -42 36 -66 57
c-45 -39 -104 -58 -170 -58c-127 0 -204 74 -204 161zM140 162c0 -55 53 -96 128 -96c46 0 79 14 106 35c-37 34 -90 84 -157 151c-38 -20 -77 -44 -77 -90zM258 328c70 33 99 53 99 97c0 31 -29 62 -77 62c-45 0 -76 -29 -76 -67c0 -37 24 -65 54 -92z" />
    <glyph glyph-name="zero.heb" horiz-adv-x="514" 
d="M125 274c0 -119 45 -205 136 -205c88 0 126 87 126 203c0 128 -48 203 -131 203c-77 0 -131 -71 -131 -201zM42 272c0 162 80 282 216 282c162 0 213 -152 213 -282c0 -142 -62 -282 -212 -282c-142 0 -217 127 -217 282z" />
    <glyph glyph-name="one.heb" horiz-adv-x="514" 
d="M309 78h121v-78h-341v78h138v374c-32 -16 -84 -35 -115 -44l-8 72c53 18 111 45 147 67h58v-469z" />
    <glyph glyph-name="two.heb" horiz-adv-x="509" 
d="M50 0v58l70 46c127 85 221 161 221 255c0 63 -36 115 -119 115c-56 0 -105 -20 -147 -49l-26 70c47 33 111 59 185 59c145 0 191 -97 191 -183c0 -131 -122 -220 -235 -296c44 2 83 3 149 3h119v-78h-408z" />
    <glyph glyph-name="three.heb" horiz-adv-x="509" 
d="M48 43l27 79c43 -31 100 -55 162 -55c103 0 132 41 132 89c0 52 -46 87 -142 87h-68l-1 78h64c85 0 125 30 125 77c0 42 -24 80 -114 80c-60 0 -107 -22 -149 -47l-21 72c41 24 94 51 179 51c131 0 186 -64 186 -144c0 -66 -49 -107 -97 -120c60 -13 123 -53 123 -133
c0 -98 -79 -167 -212 -167c-92 0 -151 24 -194 53z" />
    <glyph glyph-name="four.heb" horiz-adv-x="514" 
d="M37 141v54c47 61 219 292 269 352h82v-334h89v-72h-89v-141h-78v141h-273zM129 213h181v91c0 76 2 125 4 155h-1c-25 -33 -159 -211 -184 -246z" />
    <glyph glyph-name="five.heb" horiz-adv-x="514" 
d="M48 44l24 80c46 -33 105 -56 170 -56c114 0 136 60 136 105c0 49 -27 105 -160 105c-51 0 -106 -10 -138 -18v28l54 256h308l-17 -78h-235l-27 -122c16 3 40 7 75 7c159 0 224 -77 224 -172c0 -109 -82 -189 -225 -189c-76 0 -145 21 -189 54z" />
    <glyph glyph-name="six.heb" horiz-adv-x="509" 
d="M126 230c2 -95 58 -164 140 -162c76 0 121 48 121 112c0 65 -39 110 -123 110c-60 0 -106 -28 -138 -60zM44 243c0 207 141 310 303 310c36 0 51 -1 75 -7l-12 -78c-19 6 -46 7 -67 7c-138 0 -200 -79 -216 -172c37 34 92 61 156 61c120 0 184 -72 184 -178
c0 -100 -68 -196 -207 -196s-216 110 -216 253z" />
    <glyph glyph-name="seven.heb" horiz-adv-x="514" 
d="M128 0c94 184 210 419 235 466h-308v78h402v-61c-59 -123 -165 -345 -236 -483h-93z" />
    <glyph glyph-name="eight.heb" horiz-adv-x="509" 
d="M255 322c76 0 103 32 103 77c0 49 -36 83 -107 83c-72 0 -104 -37 -104 -79c0 -49 38 -81 108 -81zM132 157c0 -52 43 -93 125 -93c84 0 120 43 120 90c0 57 -47 93 -125 93c-82 0 -120 -41 -120 -90zM49 152c0 64 43 110 106 130c-58 21 -88 69 -88 124
c0 77 60 148 189 148s182 -71 182 -146c0 -63 -36 -102 -84 -121c62 -18 107 -66 107 -132c0 -91 -71 -165 -210 -165c-141 0 -202 81 -202 162z" />
    <glyph glyph-name="nine.heb" horiz-adv-x="514" 
d="M256 255c66 0 104 24 129 50c2 97 -46 172 -139 172c-78 0 -119 -49 -119 -112c0 -59 39 -110 129 -110zM91 -1l11 78c16 -4 41 -8 74 -8c123 0 188 72 206 162c-37 -31 -84 -51 -144 -51c-130 0 -194 80 -194 181c0 102 76 193 210 193c132 0 214 -101 214 -249
c0 -213 -135 -315 -293 -315c-35 0 -59 1 -84 9z" />
    <glyph glyph-name="zero.pnumheb" horiz-adv-x="540" 
d="M138 274c0 -119 45 -205 136 -205c88 0 127 87 127 203c0 128 -49 203 -132 203c-77 0 -131 -71 -131 -201zM56 272c0 162 79 282 215 282c162 0 213 -152 213 -282c0 -142 -62 -282 -212 -282c-142 0 -216 127 -216 282z" />
    <glyph glyph-name="one.pnumheb" horiz-adv-x="317" 
d="M148 0v453c-31 -16 -79 -35 -107 -44l-9 72c50 17 106 44 141 66h57v-547h-82z" />
    <glyph glyph-name="two.pnumheb" horiz-adv-x="496" 
d="M43 0v58l70 46c127 85 221 161 221 255c0 63 -36 115 -119 115c-56 0 -105 -20 -147 -49l-26 70c47 33 111 59 185 59c145 0 191 -97 191 -183c0 -131 -123 -220 -235 -296c44 2 83 3 149 3h118v-78h-407z" />
    <glyph glyph-name="three.pnumheb" horiz-adv-x="495" 
d="M32 43l26 79c44 -31 101 -55 163 -55c103 0 132 41 132 89c0 52 -47 87 -142 87h-69v78h64c85 0 124 30 124 77c0 42 -23 80 -113 80c-60 0 -107 -22 -149 -47l-22 72c42 24 95 51 180 51c131 0 186 -64 186 -144c0 -66 -49 -107 -97 -120c60 -13 123 -53 123 -133
c0 -98 -79 -167 -212 -167c-92 0 -151 24 -194 53z" />
    <glyph glyph-name="four.pnumheb" horiz-adv-x="517" 
d="M41 141v54c46 61 219 292 269 352h82v-334h89v-72h-89v-141h-79v141h-272zM133 213h180v91c0 76 2 125 5 155h-2c-24 -33 -159 -211 -183 -246z" />
    <glyph glyph-name="five.pnumheb" horiz-adv-x="510" 
d="M41 44l24 80c46 -33 105 -56 170 -56c114 0 136 60 136 105c0 49 -26 105 -160 105c-51 0 -106 -10 -138 -18v28l54 256h308l-17 -78h-235l-27 -122c16 3 40 7 75 7c159 0 224 -77 224 -172c0 -109 -82 -189 -224 -189c-77 0 -146 21 -190 54z" />
    <glyph glyph-name="six.pnumheb" horiz-adv-x="535" 
d="M138 230c2 -95 57 -164 139 -162c77 0 122 48 122 112c0 65 -40 110 -124 110c-60 0 -105 -28 -137 -60zM56 243c0 207 140 310 303 310c35 0 50 -1 74 -7l-11 -78c-20 6 -46 7 -68 7c-138 0 -199 -79 -216 -172c38 34 93 61 156 61c120 0 185 -72 185 -178
c0 -100 -68 -196 -207 -196c-140 0 -216 110 -216 253z" />
    <glyph glyph-name="seven.pnumheb" horiz-adv-x="473" 
d="M104 0c94 184 210 419 235 466h-308v78h401v-61c-58 -123 -164 -345 -236 -483h-92z" />
    <glyph glyph-name="eight.pnumheb" horiz-adv-x="525" 
d="M263 322c76 0 104 32 104 77c0 49 -36 83 -107 83c-72 0 -105 -37 -105 -79c0 -49 39 -81 108 -81zM140 157c0 -52 43 -93 126 -93s119 43 119 90c0 57 -47 93 -125 93c-81 0 -120 -41 -120 -90zM57 152c0 64 43 110 106 130c-57 21 -88 69 -88 124c0 77 60 148 189 148
s182 -71 182 -146c0 -63 -36 -102 -84 -121c62 -18 107 -66 107 -132c0 -91 -71 -165 -210 -165c-141 0 -202 81 -202 162z" />
    <glyph glyph-name="nine.pnumheb" horiz-adv-x="531" 
d="M263 255c66 0 105 24 130 50c2 97 -47 172 -139 172c-79 0 -120 -49 -120 -112c0 -59 39 -110 129 -110zM99 -1l11 78c16 -4 40 -8 74 -8c123 0 188 72 205 162c-36 -31 -84 -51 -143 -51c-131 0 -195 80 -195 181c0 102 77 193 211 193c132 0 213 -101 213 -249
c0 -213 -135 -315 -293 -315c-35 0 -58 1 -83 9z" />
    <glyph glyph-name="numbersign.heb" horiz-adv-x="542" 
d="M496 335h-92l-32 -119h71v-77h-93l-39 -143h-62l39 143h-110l-40 -143h-62l40 143h-71v77h92l34 119h-77v76h98l37 133h63l-37 -133h108l36 133h63l-37 -133h71v-76zM309 216l33 119h-109l-33 -119h109z" />
    <glyph glyph-name="uni20AA.heb" horiz-adv-x="672" 
d="M74 -1v545h249c91 0 117 -37 117 -134v-196h-64v161c0 65 -20 78 -85 78h-142v-454h-75zM229 153l1 170h64v-165c0 -63 42 -68 96 -68h132v454h76v-545h-257c-101 0 -112 60 -112 154z" />
    <glyph glyph-name="dollar.heb" horiz-adv-x="542" 
d="M60 57l26 81c52 -37 120 -60 177 -60c81 0 117 30 117 67c0 38 -28 64 -130 90c-148 39 -181 91 -181 162c0 76 60 133 161 145v79h83v-78c66 -3 119 -23 144 -43l-29 -77c-38 23 -94 46 -161 46c-86 0 -113 -34 -113 -64c0 -35 25 -57 131 -85c160 -42 185 -97 185 -167
c0 -86 -70 -141 -159 -151v-82h-83v80c-62 4 -125 29 -168 57z" />
    <glyph glyph-name="sterling.heb" horiz-adv-x="542" 
d="M67 0v55c78 37 92 111 88 186h-86v63h81c-1 18 -2 30 -2 58c0 123 81 190 186 190c55 0 97 -13 116 -25l-22 -75c-21 11 -52 23 -91 23c-69 0 -104 -45 -104 -114c0 -19 1 -35 3 -57h139v-63h-136c1 -58 -10 -123 -58 -163h290v-78h-404z" />
    <glyph glyph-name="yen.heb" horiz-adv-x="542" 
d="M91 125v52h132v68h-132v53h111l-162 245h101l81 -138c20 -36 34 -63 46 -89h2c11 24 29 56 48 91l79 136h97l-166 -245h111v-53h-134v-68h134v-52h-134v-125h-82v125h-132z" />
    <glyph glyph-name="Euro.heb" horiz-adv-x="542" 
d="M473 95l17 -71c-30 -19 -84 -33 -147 -33c-115 0 -225 63 -254 198h-61v52h54c-1 8 -1 16 -1 24c0 15 1 30 3 44h-56v52h66c30 109 116 193 261 193c59 0 106 -13 133 -26l-21 -74c-25 12 -68 23 -113 23c-83 0 -145 -44 -172 -116h125h108v-52h-245
c-2 -12 -3 -25 -3 -39c0 -10 0 -20 1 -29h247v-52h-237c23 -72 80 -120 177 -120c51 0 97 16 118 26z" />
    <glyph glyph-name="cent.heb" horiz-adv-x="542" 
d="M84 265c0 121 80 213 198 232v98h67v-96c44 0 84 -13 107 -25l-20 -75c-21 12 -59 26 -110 26c-95 0 -157 -65 -157 -157c0 -102 71 -156 154 -156c58 0 92 13 116 25l15 -71c-18 -11 -56 -26 -105 -29v-98h-67v99c-116 15 -198 100 -198 227z" />
    <glyph glyph-name="uni0192.heb" horiz-adv-x="542" 
d="M131 269v64h97l5 34c16 102 55 214 188 214c30 -1 55 -7 68 -14l-18 -76c-15 6 -32 10 -53 10c-68 0 -93 -57 -102 -128l-6 -40h115v-64h-122l-23 -163c-17 -130 -55 -218 -172 -218c-33 0 -61 7 -77 16l18 76c16 -8 35 -12 56 -12c61 0 81 45 94 146l21 155h-89z" />
    <glyph glyph-name="onesuperior.heb" horiz-adv-x="274" 
d="M132 210v259l-73 -34l-18 57l98 48h63v-330h-70z" />
    <glyph glyph-name="twosuperior.heb" horiz-adv-x="339" 
d="M39 209v47c96 57 175 107 174 168c0 35 -23 55 -66 55c-36 0 -70 -16 -88 -28l-19 58c26 20 68 37 120 37c86 0 125 -51 125 -109c0 -69 -55 -117 -129 -166h144v-62h-261z" />
    <glyph glyph-name="threesuperior.heb" horiz-adv-x="333" 
d="M44 232l16 59c17 -10 58 -27 97 -27c52 0 76 18 76 45c-1 32 -36 43 -89 43h-35v58h36c37 0 76 7 76 40c0 22 -21 36 -65 36c-36 0 -74 -14 -87 -24l-16 55c22 14 66 29 114 29c84 0 123 -39 123 -87c0 -34 -20 -62 -57 -73v-2c37 -9 71 -31 71 -79
c0 -56 -54 -101 -144 -101c-48 0 -88 11 -116 28z" />
    <glyph glyph-name="onequarter.heb" horiz-adv-x="772" 
d="M429 76v52l163 202h83v-194h50v-60h-50v-76h-64v76h-182zM500 136h111v48c0 20 -1 69 1 91zM154 -7l351 550h70l-351 -551zM131 210v259l-74 -34l-17 57l99 48h62v-330h-70z" />
    <glyph glyph-name="onehalf.heb" horiz-adv-x="798" 
d="M487 0v48c96 56 175 106 174 168c0 34 -23 54 -66 54c-35 0 -70 -16 -87 -28l-20 58c26 20 69 37 120 37c85 0 125 -51 125 -109c0 -69 -55 -117 -129 -165h144v-63h-261zM150 -7l352 550h70l-352 -551zM131 210v259l-73 -34l-18 57l99 48h62v-330h-70z" />
    <glyph glyph-name="threequarters.heb" horiz-adv-x="820" 
d="M44 232l16 59c17 -10 58 -27 97 -27c52 0 76 18 76 45c-1 32 -36 43 -89 43h-35v58h36c37 0 76 7 76 40c0 22 -21 36 -65 36c-36 0 -74 -14 -87 -24l-16 55c22 14 66 29 114 29c84 0 123 -39 123 -87c0 -34 -20 -62 -57 -73v-2c37 -9 71 -31 71 -79
c0 -56 -54 -101 -144 -101c-48 0 -88 11 -116 28zM475 76v52l165 202h82v-194h50v-60h-50v-76h-65v76h-182zM547 136h110v48c0 20 0 69 1 91zM206 -7l352 550h69l-351 -551z" />
    <glyph glyph-name="percent.heb" horiz-adv-x="828" 
d="M192 0l373 542h68l-372 -542h-69zM198 240c-95 0 -144 71 -144 155c0 98 70 159 145 159c94 0 145 -70 145 -157c0 -76 -48 -157 -146 -157zM201 305c47 0 80 34 80 92s-32 93 -82 93c-43 0 -80 -34 -80 -93c0 -51 29 -92 82 -92zM485 146c0 98 69 159 145 159
c94 0 144 -67 144 -156c0 -76 -46 -158 -144 -158c-95 0 -145 73 -145 155zM549 148c0 -48 30 -92 83 -92c47 0 80 36 80 93c0 54 -32 94 -81 94c-46 0 -82 -37 -82 -95z" />
    <glyph glyph-name="perthousand.heb" horiz-adv-x="1160" 
d="M817 146c0 98 69 159 145 159c94 0 144 -67 144 -156c0 -76 -46 -158 -144 -158c-96 0 -145 73 -145 155zM880 148c0 -48 31 -92 84 -92c46 0 79 36 79 93c0 54 -31 94 -81 94c-45 0 -82 -37 -82 -95zM192 0l373 542h68l-372 -542h-69zM198 240c-95 0 -144 71 -144 155
c0 98 70 159 145 159c94 0 145 -70 145 -157c0 -76 -48 -157 -146 -157zM201 305c47 0 80 34 80 92s-32 93 -82 93c-43 0 -80 -34 -80 -93c0 -51 29 -92 82 -92zM485 146c0 98 69 159 145 159c94 0 144 -67 144 -156c0 -76 -46 -158 -144 -158c-95 0 -145 73 -145 155z
M549 148c0 -48 30 -92 83 -92c47 0 80 36 80 93c0 54 -32 94 -81 94c-46 0 -82 -37 -82 -95z" />
    <glyph glyph-name="ampersand.lat" horiz-adv-x="604" 
d="M603 0h-105c-19 19 -37 39 -63 65c-58 -53 -122 -76 -197 -76c-131 0 -207 88 -207 189c0 92 55 154 131 197l1 3c-35 43 -56 93 -56 141c0 82 59 166 171 166c83 0 149 -55 149 -143c0 -71 -41 -127 -148 -180v-3c57 -66 121 -139 165 -188c30 47 51 112 64 197h80
c-18 -106 -47 -189 -98 -249c37 -38 71 -76 113 -119zM252 55c60 0 107 26 140 61c-40 44 -116 126 -190 212c-37 -23 -87 -66 -87 -137c0 -77 57 -136 137 -136zM272 625c-56 0 -86 -47 -86 -98c0 -48 23 -85 52 -122c68 40 112 75 112 133c0 41 -24 87 -78 87z" />
    <glyph glyph-name="zero.lat" horiz-adv-x="513" 
d="M262 661c137 0 215 -122 215 -329c0 -221 -82 -343 -226 -343c-127 0 -213 119 -215 334c0 218 94 338 226 338zM257 592c-77 0 -133 -93 -133 -270c0 -169 52 -265 132 -265c90 0 133 105 133 271c0 160 -41 264 -132 264z" />
    <glyph glyph-name="one.lat" horiz-adv-x="513" 
d="M236 0v568h-2l-113 -61l-17 67l142 76h74v-650h-84z" />
    <glyph glyph-name="two.lat" horiz-adv-x="513" 
d="M459 0h-415v54l70 66c165 158 241 243 242 341c0 66 -32 128 -129 128c-59 0 -108 -31 -138 -56l-28 62c45 38 109 66 184 66c140 0 198 -96 198 -189c0 -120 -87 -217 -223 -349l-52 -49v-2h291v-72z" />
    <glyph glyph-name="three.lat" horiz-adv-x="513" 
d="M42 34l24 67c25 -16 82 -41 144 -41c113 0 148 72 147 126c-1 91 -83 130 -168 130h-49v66h49c64 0 145 33 145 110c0 52 -33 98 -114 98c-52 0 -102 -23 -130 -43l-23 64c34 25 100 50 170 50c128 0 187 -76 187 -155c0 -68 -41 -124 -121 -154v-2
c80 -15 145 -75 145 -166c0 -104 -82 -195 -237 -195c-73 0 -137 23 -169 45z" />
    <glyph glyph-name="four.lat" horiz-adv-x="513" 
d="M400 0h-83v177h-302v58l290 415h95v-405h91v-68h-91v-177zM104 245h213v218c0 34 1 68 3 102l-3 1c-20 -39 -36 -67 -54 -97l-159 -222v-2z" />
    <glyph glyph-name="five.lat" horiz-adv-x="513" 
d="M433 650v-74h-248l-25 -167c15 2 29 4 53 4c50 0 100 -11 140 -35c50 -29 93 -86 93 -167c0 -127 -101 -222 -242 -222c-71 0 -131 20 -162 40l22 67c27 -16 80 -36 140 -36c82 0 153 54 153 141c0 84 -57 144 -187 144c-37 0 -66 -4 -90 -7l42 312h311z" />
    <glyph glyph-name="six.lat" horiz-adv-x="513" 
d="M416 660v-72c-19 0 -40 0 -66 -5c-138 -22 -211 -123 -226 -231h2c31 43 86 77 158 77c115 0 196 -84 196 -211c0 -119 -81 -229 -217 -229c-138 0 -229 108 -229 277c0 127 45 229 110 293c54 53 126 86 208 96c26 4 47 6 64 5zM264 56c76 0 127 64 127 157
s-53 149 -134 149c-53 0 -103 -33 -127 -80c-5 -10 -9 -23 -9 -38c2 -108 51 -188 143 -188z" />
    <glyph glyph-name="seven.lat" horiz-adv-x="513" 
d="M57 650h410v-58l-283 -592h-91l282 575v2h-318v73z" />
    <glyph glyph-name="eight.lat" horiz-adv-x="513" 
d="M254 -11c-135 0 -217 81 -217 176c0 81 49 139 128 174v4c-72 33 -104 89 -104 145c0 102 88 173 202 173c126 0 189 -79 189 -160c0 -55 -27 -114 -107 -152v-3c81 -31 131 -90 131 -168c0 -114 -97 -189 -222 -189zM257 53c79 0 130 49 130 116c0 78 -55 117 -143 141
c-76 -21 -117 -72 -117 -134c-3 -65 47 -123 130 -123zM257 598c-72 0 -112 -48 -112 -104c-1 -65 49 -100 124 -120c56 19 98 59 98 118c0 52 -30 106 -110 106z" />
    <glyph glyph-name="nine.lat" horiz-adv-x="513" 
d="M96 -10v72c19 -2 41 0 71 3c50 7 99 28 136 63c43 39 74 96 86 173h-3c-37 -45 -88 -70 -154 -70c-116 0 -191 88 -191 199c0 123 89 231 222 231s215 -108 215 -274c0 -143 -48 -243 -112 -305c-50 -49 -119 -79 -189 -87c-32 -5 -61 -6 -81 -5zM256 594
c-75 0 -128 -66 -128 -159c0 -80 49 -138 126 -138c58 0 104 30 127 69c4 8 9 17 9 32c0 111 -42 196 -134 196z" />
    <glyph glyph-name="zero.slash" horiz-adv-x="514" 
d="M146 168l201 374c-20 32 -49 51 -90 51c-83 0 -134 -105 -136 -265c0 -63 8 -117 25 -160zM371 481l-201 -375c21 -32 50 -48 85 -48c91 0 137 104 137 270c0 58 -7 110 -21 153zM262 661c138 0 215 -122 215 -329c0 -221 -82 -343 -226 -343c-127 0 -213 119 -215 334
c0 218 95 338 226 338z" />
    <glyph glyph-name="zero.pnumlat" horiz-adv-x="514" 
d="M262 661c138 0 215 -122 215 -329c0 -221 -82 -343 -226 -343c-127 0 -213 119 -215 334c0 218 95 338 226 338zM257 593c-76 0 -133 -94 -133 -271c0 -169 52 -264 133 -264c89 0 132 104 132 270c0 160 -41 265 -132 265z" />
    <glyph glyph-name="one.pnumlat" horiz-adv-x="327" 
d="M151 0v569h-2l-113 -62l-17 67l143 76h74v-650h-85z" />
    <glyph glyph-name="two.pnumlat" horiz-adv-x="447" 
d="M418 0h-415v54l69 67c166 158 241 242 242 340c0 66 -31 128 -128 128c-60 0 -108 -31 -138 -56l-28 62c44 38 109 66 184 66c139 0 198 -96 198 -189c0 -120 -87 -217 -224 -349l-52 -48v-2h292v-73z" />
    <glyph glyph-name="three.pnumlat" horiz-adv-x="450" 
d="M7 34l24 67c24 -16 82 -41 144 -41c112 0 148 72 147 126c-1 91 -84 130 -168 130h-49v66h49c64 0 145 33 145 110c0 52 -33 98 -114 98c-52 0 -102 -23 -130 -43l-24 64c34 25 101 50 170 50c129 0 187 -75 187 -155c0 -67 -41 -124 -120 -153v-2
c81 -15 145 -76 145 -167c0 -104 -81 -195 -237 -195c-73 0 -137 23 -169 45z" />
    <glyph glyph-name="four.pnumlat" horiz-adv-x="503" 
d="M396 0h-83v177h-302v58l289 415h96v-405h91v-68h-91v-177zM100 245h213v218c0 34 1 68 3 102l-4 1c-20 -39 -35 -67 -53 -97l-159 -222v-2z" />
    <glyph glyph-name="five.pnumlat" horiz-adv-x="460" 
d="M405 650v-74h-247l-25 -167c15 3 29 4 53 4c51 0 100 -11 140 -35c50 -29 92 -85 92 -167c0 -127 -100 -222 -241 -222c-71 0 -131 20 -162 40l22 67c27 -16 80 -36 139 -36c83 0 154 54 154 141c-1 84 -57 144 -187 144c-37 0 -66 -4 -90 -7l42 312h310z" />
    <glyph glyph-name="six.pnumlat" horiz-adv-x="516" 
d="M418 660v-72c-18 1 -41 0 -66 -4c-139 -22 -211 -123 -225 -232h2c31 43 85 77 157 77c115 0 196 -84 196 -211c0 -119 -81 -229 -217 -229c-138 0 -228 108 -228 277c0 128 45 229 109 293c54 53 126 86 208 97c26 3 48 5 64 4zM267 56c75 0 126 64 126 157
s-53 149 -134 149c-53 0 -102 -32 -126 -80c-5 -10 -10 -23 -10 -38c2 -108 51 -188 144 -188z" />
    <glyph glyph-name="seven.pnumlat" horiz-adv-x="412" 
d="M2 650h410v-58l-284 -592h-90l281 576v2h-317v72z" />
    <glyph glyph-name="eight.pnumlat" horiz-adv-x="514" 
d="M254 -11c-134 0 -216 81 -216 176c0 82 48 140 128 174l-1 4c-72 33 -104 89 -104 145c0 102 88 173 203 173c125 0 188 -79 188 -160c0 -55 -27 -114 -106 -151v-4c80 -31 130 -90 130 -168c0 -113 -97 -189 -222 -189zM257 54c79 0 130 48 130 115
c0 79 -55 117 -143 142c-76 -22 -117 -72 -117 -134c-3 -66 47 -123 130 -123zM258 598c-73 0 -113 -48 -113 -104c0 -65 50 -100 124 -119c56 18 99 58 99 118c0 51 -31 105 -110 105z" />
    <glyph glyph-name="nine.pnumlat" horiz-adv-x="518" 
d="M97 -10v72c18 -2 40 0 70 3c50 7 99 28 137 63c42 40 73 96 85 173h-2c-37 -45 -89 -70 -154 -70c-117 0 -192 89 -192 200c0 122 89 230 222 230s215 -108 215 -274c0 -143 -48 -243 -112 -305c-50 -49 -119 -79 -189 -87c-32 -5 -60 -6 -80 -5zM256 594
c-75 0 -128 -66 -128 -159c0 -80 49 -138 126 -138c58 0 104 30 128 69c4 8 8 17 8 32c0 111 -42 196 -134 196z" />
    <glyph glyph-name="zero.slashpnum" horiz-adv-x="514" 
d="M146 168l201 374c-20 32 -49 51 -90 51c-83 0 -134 -105 -136 -265c0 -63 8 -117 25 -160zM371 481l-201 -375c21 -32 50 -48 85 -48c91 0 137 104 137 270c0 58 -7 110 -21 153zM262 661c138 0 215 -122 215 -329c0 -221 -82 -343 -226 -343c-127 0 -213 119 -215 334
c0 218 95 338 226 338z" />
    <glyph glyph-name="exclam.lat" horiz-adv-x="260" 
d="M179 194h-68l-15 480h97zM145 -11c-36 0 -59 27 -59 62c0 36 24 62 59 62s59 -26 59 -62c0 -35 -23 -62 -59 -62z" />
    <glyph glyph-name="exclamdown.lat" horiz-adv-x="248" 
d="M164 -195h-97l14 477h68zM115 488c35 0 59 -26 59 -63c0 -34 -23 -62 -59 -62c-35 0 -59 28 -59 62c0 37 25 63 59 63z" />
    <glyph glyph-name="question.lat" horiz-adv-x="422" 
d="M236 192h-78l-3 26c-6 53 13 113 63 172c44 54 70 93 70 138c0 51 -33 85 -96 86c-35 0 -76 -12 -101 -32l-24 64c34 24 91 40 143 40c115 0 168 -71 168 -147c0 -68 -38 -118 -87 -174c-43 -53 -60 -97 -56 -148zM195 -11c-35 0 -59 27 -59 62c0 37 24 63 59 63
c36 0 59 -26 60 -63c0 -35 -24 -62 -60 -62z" />
    <glyph glyph-name="questiondown.lat" horiz-adv-x="410" 
d="M232 488c35 0 59 -26 59 -63c0 -35 -24 -62 -59 -62c-36 0 -60 27 -60 62c0 37 25 63 60 63zM192 285h78l2 -26c6 -53 -12 -112 -62 -173c-45 -53 -70 -92 -70 -137c0 -51 31 -85 95 -85c36 0 76 11 102 31l23 -64c-34 -23 -90 -40 -143 -40c-114 0 -167 71 -167 147
c0 68 38 117 86 174c44 53 61 97 57 148z" />
    <glyph glyph-name="quotesingle.lat" horiz-adv-x="188" 
d="M50 692h87l-16 -240h-54z" />
    <glyph glyph-name="quotedbl.lat" horiz-adv-x="337" 
d="M50 692h87l-16 -240h-54zM200 692h86l-16 -240h-53z" />
    <glyph glyph-name="quoteleft.lat" horiz-adv-x="206" 
d="M125 458l-90 -10c23 84 66 192 93 238l56 6c-22 -58 -48 -162 -59 -234z" />
    <glyph glyph-name="quoteright.lat" horiz-adv-x="206" 
d="M93 682l91 10c-23 -83 -67 -191 -94 -237l-55 -7c21 59 48 162 58 234z" />
    <glyph glyph-name="quotedblleft.lat" horiz-adv-x="354" 
d="M125 458l-90 -10c23 84 66 192 93 238l56 6c-22 -58 -48 -162 -59 -234zM273 458l-90 -10c23 84 66 192 93 238l55 6c-21 -58 -47 -162 -58 -234z" />
    <glyph glyph-name="quotedblright.lat" horiz-adv-x="354" 
d="M93 682l90 10c-23 -83 -66 -191 -93 -237l-56 -7c22 59 48 162 59 234zM241 682l90 10c-23 -83 -66 -191 -93 -237l-56 -7c22 59 48 162 59 234z" />
    <glyph glyph-name="guilsinglleft.lat" horiz-adv-x="263" 
d="M240 436l-141 -184l142 -184h-72l-141 184l141 184h71z" />
    <glyph glyph-name="guilsinglright.lat" horiz-adv-x="263" 
d="M166 252l-143 184h71l143 -184l-143 -184h-71z" />
    <glyph glyph-name="guillemotleft.lat" horiz-adv-x="427" 
d="M240 436l-141 -184l142 -184h-72l-141 184l141 184h71zM404 436l-141 -184l141 -184h-71l-141 184l141 184h71z" />
    <glyph glyph-name="guillemotright.lat" horiz-adv-x="427" 
d="M165 252l-142 184h71l141 -184l-141 -184h-70zM328 252l-142 184h70l142 -184l-141 -184h-71z" />
    <glyph glyph-name="hyphentwo.lat" horiz-adv-x="304" 
d="M30 317h247v-80h-247v80z" />
    <glyph glyph-name="endash.lat" horiz-adv-x="481" 
d="M30 284h420v-60h-420v60z" />
    <glyph glyph-name="emdash.lat" horiz-adv-x="822" 
d="M36 284h751v-60h-751v60z" />
    <glyph glyph-name="periodcentered.lat" horiz-adv-x="207" 
d="M103 200c-35 0 -60 27 -59 63c0 36 25 63 59 63c35 0 59 -26 59 -63c0 -36 -23 -63 -59 -63z" />
    <glyph glyph-name="bullet.lat" horiz-adv-x="282" 
d="M141 157c-58 0 -105 45 -105 105c0 58 47 105 105 105s105 -47 105 -105c0 -59 -47 -105 -105 -105z" />
    <glyph glyph-name="parenleft.lat" horiz-adv-x="294" 
d="M206 718h70c-77 -103 -136 -243 -136 -433c0 -187 62 -322 136 -426h-70c-66 86 -139 222 -139 426c1 206 73 345 139 433z" />
    <glyph glyph-name="parenright.lat" horiz-adv-x="294" 
d="M89 -141h-70c75 102 135 243 135 433c0 187 -61 321 -135 426h70c65 -87 139 -222 139 -426c-1 -207 -74 -345 -139 -433z" />
    <glyph glyph-name="bracketleft.lat" horiz-adv-x="284" 
d="M265 -135h-183v843h183v-55h-115v-733h115v-55z" />
    <glyph glyph-name="bracketright.lat" horiz-adv-x="284" 
d="M19 708h183v-843h-183v55h115v733h-115v55z" />
    <glyph glyph-name="braceleft.lat" horiz-adv-x="284" 
d="M25 262v51c72 0 84 39 84 75c0 27 -4 60 -8 88c-5 28 -8 74 -8 101c0 92 60 131 145 131h21v-55h-18c-59 -1 -79 -31 -79 -86c0 -23 3 -65 7 -89c3 -24 7 -54 7 -80c1 -65 -27 -97 -72 -109v-2c45 -11 73 -45 72 -109c0 -27 -4 -57 -7 -81c-4 -25 -7 -65 -7 -89
c0 -57 23 -86 79 -88h18v-55h-21c-82 0 -145 37 -145 138c0 26 3 71 8 98c4 28 8 60 8 87c0 32 -12 74 -84 74z" />
    <glyph glyph-name="braceright.lat" horiz-adv-x="284" 
d="M258 313v-51c-71 0 -83 -42 -83 -74c0 -27 4 -59 8 -87c4 -27 8 -72 8 -98c0 -101 -63 -122 -145 -122h-21v39h18c55 2 79 31 79 88c0 24 -4 64 -7 89c-4 24 -8 54 -8 81c-1 64 28 98 73 109v2c-45 12 -74 44 -73 109c0 26 4 56 8 80c3 24 7 66 7 89c0 55 -21 85 -79 86
h-18v55h20c86 0 146 -39 146 -131c0 -27 -4 -73 -8 -101s-8 -61 -8 -88c0 -36 12 -75 83 -75z" />
    <glyph glyph-name="asterisk.lat" horiz-adv-x="415" 
d="M269 685l60 -35l-95 -123v-3l151 20v-68l-151 18v-2l96 -121l-62 -35l-61 140h-2l-65 -141l-57 36l95 122v2l-148 -19v68l146 -19l1 2l-94 122l61 35l62 -138h2z" />
    <glyph glyph-name="dagger.lat" horiz-adv-x="500" 
d="M209 674h82l-8 -212l174 8v-72l-174 8l8 -456h-82l9 456l-174 -8v72l174 -8z" />
    <glyph glyph-name="daggerdbl.lat" horiz-adv-x="500" 
d="M209 674h81l-6 -200l173 6v-71l-173 7v-204l173 8v-72l-173 7l6 -205h-81l6 205l-172 -7v72l173 -8v204l-173 -7v71l173 -6z" />
    <glyph glyph-name="section.lat" horiz-adv-x="519" 
d="M130 352c0 -37 27 -67 106 -96c51 -19 90 -33 115 -48c23 18 37 46 37 77c0 38 -24 69 -89 93c-40 14 -90 31 -124 50c-31 -22 -45 -47 -45 -76zM418 650l-22 -57c-25 16 -65 32 -119 32c-59 0 -104 -29 -104 -74c0 -52 50 -71 125 -96c91 -30 162 -67 162 -158
c0 -52 -24 -90 -65 -121c17 -14 39 -47 39 -89c0 -104 -97 -149 -190 -149c-61 0 -119 14 -157 41l23 58c25 -17 73 -41 133 -41c63 0 112 30 112 82c0 46 -29 72 -122 104c-103 35 -174 72 -174 158c0 38 20 82 73 117c-20 16 -37 50 -37 84c0 88 82 142 184 142
c57 0 105 -14 139 -33z" />
    <glyph glyph-name="paragraph.lat" horiz-adv-x="512" 
d="M293 -49h-62v313h-8c-79 0 -188 61 -190 190c-1 104 56 222 276 222c53 0 92 -3 117 -9v-716h-62v665h-71v-665z" />
    <glyph glyph-name="at.lat" horiz-adv-x="737" 
d="M448 255l21 113c-10 3 -27 8 -50 8c-88 0 -159 -84 -159 -181c0 -45 22 -76 66 -76c58 0 111 74 122 136zM508 -22l16 -43c-55 -29 -112 -40 -178 -40c-164 0 -303 120 -303 313c0 206 142 385 365 385c174 0 291 -123 291 -289c0 -151 -84 -238 -178 -238
c-40 0 -77 25 -75 87h-3c-35 -59 -81 -87 -142 -87c-57 0 -107 46 -107 125c0 124 98 238 237 238c43 0 81 -10 107 -22l-34 -181c-15 -76 -3 -111 30 -112c51 -1 108 67 108 182c0 146 -87 250 -243 250c-162 0 -299 -129 -299 -332c0 -167 109 -271 256 -271
c58 0 111 12 152 35z" />
    <glyph glyph-name="numbersign.lat" horiz-adv-x="497" 
d="M188 255h104l19 145h-104zM153 0h-60l26 196h-82v59h91l20 145h-87v59h95l26 191h58l-25 -191h104l26 191h59l-25 -191h81v-59h-90l-18 -145h86v-59h-95l-26 -196h-60l26 196h-104z" />
    <glyph glyph-name="copyright.lat" horiz-adv-x="677" 
d="M340 648c170 0 301 -138 301 -308c0 -172 -131 -310 -301 -310c-171 0 -304 138 -304 310c0 170 133 308 304 308zM340 606c-144 0 -254 -116 -254 -269c0 -149 110 -265 254 -265c141 0 251 116 251 268c0 150 -110 266 -251 266zM474 493l-12 -39c-13 7 -50 23 -97 23
c-93 0 -140 -60 -140 -140c0 -79 49 -141 140 -141c41 0 79 11 102 26l12 -38c-35 -23 -81 -31 -123 -31c-116 0 -183 80 -183 181c0 114 90 186 191 186c52 0 96 -15 110 -27z" />
    <glyph glyph-name="trademark.lat" horiz-adv-x="618" 
d="M30 674h228v-45h-88v-227h-53v227h-87v45zM606 402h-54l-10 160c-1 21 -2 47 -3 76h-2c-8 -24 -16 -56 -23 -80l-49 -152h-56l-49 155c-5 20 -13 53 -19 77h-3c0 -25 -1 -51 -2 -76l-10 -160h-53l21 272h82l46 -133c6 -21 11 -41 18 -69h1c7 25 13 49 19 68l47 134h78z
" />
    <glyph glyph-name="registered.lat" horiz-adv-x="419" 
d="M184 433h-38v164c15 3 36 6 63 6c31 0 45 -5 57 -13c9 -7 16 -20 16 -36c0 -18 -15 -32 -34 -38v-2c16 -5 25 -18 30 -41c5 -24 8 -34 12 -40h-41c-5 6 -9 21 -13 40c-3 18 -13 26 -34 26h-18v-66zM185 573v-47h18c20 0 38 8 38 24c0 15 -11 25 -35 25
c-10 0 -17 -1 -21 -2zM210 683c94 0 167 -73 167 -164c0 -93 -73 -165 -167 -165s-169 72 -169 165c0 91 75 164 169 164zM210 649c-72 0 -127 -58 -127 -130c0 -73 55 -131 128 -131c72 0 125 58 125 131c0 72 -53 130 -126 130z" />
    <glyph glyph-name="uni20AA.lat" horiz-adv-x="534" 
d="M119 0h-72v650h211c78 0 100 -37 100 -133v-336h-61v309c0 66 -16 80 -72 80h-106v-570zM416 650h71v-650h-209c-78 0 -100 37 -100 133v336h60v-309c0 -66 16 -80 72 -80h106v570z" />
    <glyph glyph-name="dollar.lat" horiz-adv-x="513" 
d="M280 -86h-62v101c-58 1 -118 19 -153 44l24 68c36 -25 88 -44 143 -44c72 0 120 41 120 97s-39 90 -113 120c-102 40 -166 86 -166 173c0 83 60 146 151 162v100h63v-97c60 -2 101 -18 129 -36l-23 -66c-22 13 -64 35 -127 35c-77 0 -106 -46 -106 -86
c0 -52 37 -78 124 -115c103 -42 155 -93 155 -182c0 -79 -55 -153 -159 -170v-104z" />
    <glyph glyph-name="sterling.lat" horiz-adv-x="513" 
d="M471 0h-416v49c68 35 115 101 115 175c0 24 -2 44 -5 71h-103v63h93c-5 30 -11 69 -11 108c0 118 81 195 191 195c53 0 89 -12 110 -25l-20 -66c-18 10 -47 20 -89 20c-78 0 -110 -55 -110 -125c0 -43 5 -75 12 -107h144v-63h-136c3 -38 5 -76 -4 -112
c-11 -43 -35 -79 -69 -108v-2h298v-73z" />
    <glyph glyph-name="yen.lat" horiz-adv-x="513" 
d="M291 0h-82v175h-155v50h155v72h-155v50h130l-168 303h94l103 -206c17 -35 29 -61 40 -91h4c10 28 23 59 40 93l108 204h92l-179 -303h129v-50h-156v-72h156v-50h-156v-175z" />
    <glyph glyph-name="Euro.lat" horiz-adv-x="513" 
d="M479 94l17 -63c-31 -22 -84 -42 -149 -42c-81 0 -153 31 -203 89c-38 42 -63 100 -72 172h-62v49h57v15c0 16 0 31 1 45h-58v49h66c12 71 42 128 82 170c51 52 116 83 197 83c60 0 106 -17 134 -32l-20 -66c-26 15 -67 28 -112 28c-54 0 -98 -19 -132 -54
c-30 -29 -51 -75 -60 -129h279v-49h-288c-2 -13 -2 -28 -2 -42v-18h290v-49h-283c8 -58 27 -102 55 -131c37 -40 87 -58 141 -58c53 0 99 20 122 33z" />
    <glyph glyph-name="cent.lat" horiz-adv-x="513" 
d="M330 -14h-63v101c-63 8 -107 31 -143 70c-35 38 -58 96 -58 169c0 129 80 227 201 247v100h63v-98c45 -1 85 -13 110 -25l-21 -67c-20 12 -54 25 -104 25c-99 0 -160 -80 -160 -179c0 -110 68 -175 156 -175c54 0 90 14 114 25l15 -63c-19 -12 -61 -27 -110 -30v-100z
" />
    <glyph glyph-name="uni0192.lat" horiz-adv-x="514" 
d="M112 339v64h99l7 63c12 99 57 215 191 215c30 -1 55 -7 69 -15l-16 -64c-16 6 -32 10 -53 10c-68 0 -97 -65 -106 -138l-8 -71h120v-64h-127l-26 -219c-16 -129 -57 -217 -175 -217c-33 0 -61 7 -77 16l16 63c17 -8 35 -12 55 -12c62 1 86 55 98 158l24 211h-91z" />
    <glyph glyph-name="degree.lat" horiz-adv-x="318" 
d="M162 686c82 0 132 -62 132 -130c0 -81 -65 -134 -134 -134c-78 0 -131 59 -131 129c0 76 59 135 133 135zM161 639c-52 0 -78 -46 -78 -88c0 -46 33 -83 78 -83s78 37 78 86c0 37 -21 85 -78 85z" />
    <glyph glyph-name="onesuperior.lat" horiz-adv-x="244" 
d="M177 442h-70v329h-2l-72 -35l-11 52l94 44h61v-390z" />
    <glyph glyph-name="twosuperior.lat" horiz-adv-x="311" 
d="M12 442v37l63 58c83 77 125 123 125 174c0 38 -23 70 -75 70c-36 0 -66 -18 -84 -31l-21 45c27 23 72 42 122 42c94 0 133 -60 133 -113c0 -75 -57 -131 -133 -197l-31 -28v-2h171v-55h-270z" />
    <glyph glyph-name="threesuperior.lat" horiz-adv-x="304" 
d="M45 759l-18 47c25 15 67 31 116 31c86 0 122 -46 122 -94c0 -41 -30 -74 -77 -90v-2c54 -8 93 -46 93 -97c0 -62 -55 -117 -157 -117c-49 0 -93 13 -116 27l18 51c17 -11 56 -26 93 -26c62 0 89 36 88 67c0 51 -53 70 -106 70h-27v46h28c37 0 90 17 91 64
c0 25 -18 49 -63 49c-36 0 -70 -15 -85 -26z" />
    <glyph glyph-name="fraction.lat" horiz-adv-x="121" 
d="M-101 -11h-56l379 672h56z" />
    <glyph glyph-name="uni2215.lat" horiz-adv-x="121" 
d="M-101 -11h-56l379 672h56z" />
    <glyph glyph-name="onehalf.lat" horiz-adv-x="759" 
d="M183 266h-69v329h-2l-72 -35l-11 52l93 44h61v-390zM440 0v37l63 58c82 77 125 123 125 174c0 38 -24 70 -75 70c-36 0 -66 -18 -85 -31l-20 45c27 23 72 42 122 42c94 0 132 -60 132 -113c0 -75 -56 -131 -133 -197l-30 -28v-2h170v-55h-269zM174 -11h-56l380 672h56z
" />
    <glyph glyph-name="onequarter.lat" horiz-adv-x="759" 
d="M198 266h-70v329h-2l-72 -35l-11 52l93 44h62v-390zM664 0h-68v102h-189v41l177 247h80v-238h55v-50h-55v-102zM596 152v116c0 22 2 43 3 63h-2c-12 -23 -22 -41 -34 -59l-87 -118l1 -2h119zM194 -11h-56l379 672h57z" />
    <glyph glyph-name="threequarters.lat" horiz-adv-x="759" 
d="M66 583l-18 47c24 15 67 31 115 31c87 0 123 -46 123 -94c0 -41 -30 -74 -77 -90v-2c54 -8 92 -46 92 -97c0 -62 -55 -117 -157 -117c-48 0 -92 13 -115 27l18 51c17 -11 56 -26 93 -26c62 0 89 36 88 67c-1 51 -53 70 -106 70h-27v46h28c36 0 90 17 91 64
c0 25 -19 49 -64 49c-35 0 -69 -15 -84 -26zM674 0h-67v102h-190v41l178 247h79v-238h56v-50h-56v-102zM607 152v116c0 22 2 43 3 63h-2c-13 -23 -23 -41 -34 -59l-87 -118l1 -2h119zM231 -11h-56l379 672h57z" />
    <glyph glyph-name="percent.lat" horiz-adv-x="791" 
d="M187 661c91 0 151 -70 151 -194c0 -137 -72 -205 -156 -205c-81 0 -151 66 -152 196c0 130 71 203 157 203zM184 608c-55 0 -85 -65 -85 -147c-1 -83 30 -146 85 -146c59 0 84 62 84 148c0 79 -22 145 -84 145zM231 -12h-56l383 674h55zM611 392c91 0 150 -70 150 -194
c0 -137 -72 -205 -156 -205c-81 0 -150 65 -151 195c0 130 71 204 157 204zM608 339c-55 0 -85 -66 -85 -147c-2 -83 30 -146 85 -146c58 0 83 62 83 147c0 80 -22 146 -83 146z" />
    <glyph glyph-name="perthousand.lat" horiz-adv-x="1156" 
d="M187 661c91 0 151 -70 151 -194c0 -137 -72 -205 -156 -205c-81 0 -151 66 -152 196c0 130 71 203 157 203zM184 608c-55 0 -85 -65 -85 -147c-1 -83 30 -146 85 -146c59 0 84 62 84 148c0 79 -22 145 -84 145zM231 -12h-56l383 674h55zM611 392c91 0 150 -70 150 -194
c0 -137 -72 -205 -156 -205c-81 0 -150 65 -151 195c0 130 71 204 157 204zM608 339c-55 0 -85 -66 -85 -147c-2 -83 29 -146 85 -146c58 0 83 62 83 147c0 80 -22 146 -83 146zM975 392c91 0 150 -70 150 -194c0 -137 -71 -205 -155 -205c-81 0 -150 65 -152 195
c0 130 71 204 157 204zM973 339c-56 0 -85 -66 -85 -147c-2 -83 29 -146 84 -146c58 0 84 62 84 147c0 80 -23 146 -83 146z" />
    <glyph glyph-name="asciicircum.lat" horiz-adv-x="596" 
d="M535 189h-70l-166 388h-2l-168 -388h-69l207 461h62z" />
    <glyph glyph-name="slash.lat" horiz-adv-x="343" 
d="M66 -40h-67l279 725h68z" />
    <glyph glyph-name="backslash.lat" horiz-adv-x="341" 
d="M342 -40h-68l-273 725h69z" />
    <glyph glyph-name="gravecomb.cap" 
d="M-146 829h109l93 -115h-75z" />
    <glyph glyph-name="acutecomb.cap" 
d="M38 829h109l-127 -116h-74z" />
    <glyph glyph-name="uni0302.cap" 
d="M-33 826h64l106 -113h-73l-64 69h-2l-63 -69h-71z" />
    <glyph glyph-name="uni030C.cap" 
d="M34 713h-67l-105 113h74l64 -69h2l63 69h72z" />
    <glyph glyph-name="tildecomb.cap" 
d="M-84 717h-52c-2 69 28 110 75 110c24 0 43 -10 69 -23c18 -9 34 -17 48 -17c17 0 27 9 30 43h51c1 -70 -23 -106 -75 -106c-24 0 -45 10 -69 22c-22 11 -34 18 -48 18c-17 0 -27 -17 -29 -47z" />
    <glyph glyph-name="uni0308.cap" 
d="M-92 722c-30 0 -51 23 -51 51c0 27 23 51 51 51s49 -23 49 -51s-20 -51 -49 -51zM93 722c-29 0 -49 23 -49 51c0 27 21 51 50 51c28 0 49 -23 49 -51s-20 -51 -50 -51z" />
    <glyph glyph-name="uni0304.cap" 
d="M-125 799h251v-61h-251v61z" />
    <glyph glyph-name="uni0306.cap" 
d="M-127 830h55c7 -28 28 -53 71 -53c45 0 65 23 74 53h53c-8 -59 -52 -106 -128 -106c-78 0 -118 46 -125 106z" />
    <glyph glyph-name="uni030A.cap" 
d="M1 700c-63 0 -104 39 -104 89c0 48 40 89 104 89c62 0 102 -39 102 -88c0 -52 -42 -90 -102 -90zM0 738c33 0 51 25 51 51c0 24 -17 51 -50 51s-50 -26 -50 -50s16 -52 49 -52z" />
    <glyph glyph-name="uni030B.cap" 
d="M-26 829h96l-111 -112h-64zM122 829h95l-111 -112h-64z" />
    <glyph glyph-name="uni0307.cap" 
d="M0 721c-29 0 -50 24 -50 51c0 29 23 52 51 52s50 -23 50 -52c0 -27 -21 -51 -51 -51z" />
    <glyph glyph-name="uni05B7.s" 
d="M80 -86v-44h-160v44h160z" />
    <glyph glyph-name="uni05B8.s" 
d="M79 -86v-44h-61l9 -92h-54l9 92h-62v44h159z" />
    <glyph glyph-name="uni05C7.s" 
d="M79 -86v-44h-60l5 -168h-48l5 168h-62v44h160z" />
    <glyph glyph-name="uni05BC.s" 
d="M0 315c21 0 38 -17 38 -39c0 -23 -17 -38 -38 -38s-38 15 -38 38s17 39 38 39z" />
    <glyph glyph-name="uni05B0.k" 
d="M0 -80c21 0 38 -17 38 -39c0 -23 -17 -38 -38 -38s-38 15 -38 38c0 22 17 39 38 39zM0 -203c21 0 38 -17 38 -39c0 -23 -17 -38 -38 -38s-38 15 -38 38s17 39 38 39z" />
    <glyph glyph-name="uni05B8.k" 
d="M79 -86v-44h-61l9 -92h-54l9 92h-62v44h159z" />
    </font>
</defs>
</svg>
