<?xml version="1.0" encoding="utf-8"?>
<!-- Generator: Adobe Illustrator 22.0.0, SVG Export Plug-In . SVG Version: 6.00 Build 0)  -->
<svg version="1.1" id="Layer_1" xmlns="http://www.w3.org/2000/svg" xmlns:xlink="http://www.w3.org/1999/xlink" x="0px" y="0px"
	 viewBox="0 0 211.7 226.7" style="enable-background:new 0 0 211.7 226.7;" xml:space="preserve">
<style type="text/css">
	.st0{fill:#FCFDFE;}
	.st1{fill:#0597CE;}
	.st2{fill:#0798CF;}
	.st3{fill:#F9FCFD;}
	.st4{fill:#EDF7FB;}
	.st5{fill:#F4FAFC;}
	.st6{fill:#0899CF;}
	.st7{fill:#0898CF;}
	.st8{fill:#F7FBFD;}
	.st9{fill:#FAFCFD;}
</style>
<path class="st1" d="M187.7,0c6.7,3.3,9.1,8.8,9.1,16.2c-0.1,42.1-0.1,84.3-0.1,126.4c0,1.3,0,2.6,0,3.9c-3.9,2.2-6,0.1-9.3-1.8
	c-5.7-3.2-4.8-7.5-4.8-12.1c0-25.8,0-51.6,0-77.5c0-1.8,0-3.6,0-5.8c-56.5,0-112.7,0-169.3,0c0,47,0,94,0,141.6c2.1,0,4,0,5.9,0
	c38,0,76,0,114,0c6,0,8,2.7,6.8,8.6c-0.5,2.4-0.3,4.9-0.4,8.1c-1.9,0-3.8,0-5.8,0c-39.2,0-78.3-0.2-117.4,0.1
	C8.1,207.9,2,205.8-1.3,198c0-63,0-126,0-189c3-3,6-6,9-9C67.7,0,127.7,0,187.7,0z M162.1,25.9c0-6.5-1.2-7.9-6.7-7.9
	c-5.3,0-6.7,1.7-6.7,8c0,6.2,1.5,8,6.7,8C160.9,34,162.1,32.5,162.1,25.9z M128.6,25.7c0,6.8,1,8.2,6.3,8.2c5.4,0.1,6.8-1.5,6.8-7.8
	c0-6.7-1.1-8.1-6.4-8.2C129.7,17.9,128.6,19.2,128.6,25.7z M169.5,26.1c0,6.5,1.2,7.9,6.6,7.9c5.2,0,6.5-1.7,6.5-8.1
	c0-6.3-1.4-7.9-6.8-7.8C170.4,18,169.4,19.3,169.5,26.1z"/>
<path class="st2" d="M168.7,226c-0.5-0.4-0.9-1-1.5-1.1c-5.1-1.3-6.4-4-4.6-9.1c0.7-2-1.3-4.8-2-7.1c-1.7,0.3-2,0.3-2.3,0.5
	c-7.2,4-7.3,4.1-10.4-3.9c-0.5-1.3,0.1-4.4,1-4.8c4.8-2.2,4.7-5.7,3.3-10.1c-0.6-0.2-1.4-0.5-2.2-0.5c-5.2-0.3-6-3.2-5.2-7.7
	c0.8-4.4,1.7-7.5,7.2-5.3c0.8,0.3,2.8-0.5,3.1-1.3c0.8-1.8,1.7-4.3,1.1-5.8c-3.6-7.7-3.5-8.4,4.7-13.6c0.9,1.1,1.8,2.2,2.8,3.3
	c0.8,1,1.7,2,2.4,2.9c4.4-0.4,6.5-2.3,5.8-6.8c-0.8-4.7,2.1-5,5.7-5.1c3.7,0,6.5,0.5,5.8,5c-0.7,4.4,1.3,6.5,5.8,6.8
	c1.7-2,3.4-4.2,5.5-6.7c1.9,1.8,3.3,3.4,5,4.7c3.2,2.3,3.2,4.8,0.6,7.4c-2.4,2.4-2.3,4.5-0.6,7.4c1.8,3.2,4,1.7,6,1.1
	c4.7-1.4,3.4,3.4,5.2,4.8c0,2.3,0,4.7,0,7c-2.7,0.8-5.3,1.6-7.7,2.4c-1.9,4.5-1.6,7.8,3.2,10c1,0.4,1.7,3.2,1.2,4.5
	c-2.6,8.1-3.7,8.4-10.7,4.2c-0.2-0.1-0.6-0.1-2.4-0.2c-0.7,2.2-2.7,5.2-1.9,7.1c2.1,5.3,0.4,7.7-4.6,9c-0.8,0.2-1.5,0.7-2.2,1.1
	c-0.7,0-1.3,0-2,0c-0.7-2-1.2-4.2-2.3-5.9c-0.8-1.2-2.5-2.5-3.8-2.5c-1.3,0-3.1,1.2-3.8,2.5c-1.1,1.8-1.4,4-2.1,6
	C170.7,226,169.7,226,168.7,226z M167.5,187.7c-0.2,6.7,4,12.1,9.7,12.3c5.5,0.2,10.2-4.8,10.5-11.1c0.2-6.6-4.1-12.1-9.8-12.2
	C172.2,176.5,167.7,181.2,167.5,187.7z"/>
<path class="st6" d="M88.9,155.1c-6.3,0-8.9-4.4-7.4-9.9c4.5-16.3,9-32.6,13.6-48.9c2.2-8,4.4-16,6.7-24c1.4-5,4.5-7.2,8.1-6.1
	c3.4,1.1,5.3,5.1,4.1,9.5c-6.8,24.6-13.6,49.3-20.7,73.8C92.6,151.9,90,153.8,88.9,155.1z"/>
<path class="st7" d="M58.5,110.7c6.5,3.5,12.6,6.9,18.7,10.1c3.6,1.9,5,4.7,4.5,8.6c-0.7,4.6-4.7,7-8.8,4.9
	c-10.6-5.5-21.2-11.1-31.6-17c-5.2-2.9-5.1-10.3,0.1-13.3C51.7,98.1,62.4,92.6,73,87c3.5-1.8,6.1-0.4,7.9,2.8c2.1,3.7,0.9,8-3,10.4
	c-3.1,1.9-6.4,3.5-9.7,5.2C65.2,107,62.1,108.7,58.5,110.7z"/>
<path class="st7" d="M137,110.6c-6.7-3.6-12.6-6.7-18.5-9.8c-3.9-2-5.6-5.1-4.7-9.5c0.9-4,4.8-6.3,8.3-4.4
	c10.8,5.6,21.6,11.2,32.1,17.2c5.2,3,5,10.3-0.3,13.3c-10.3,5.8-20.8,11.3-31.2,16.8c-3.3,1.8-6.2,0.9-8.1-2.3
	c-2.2-3.6-1.2-8.3,2.5-10.5c4.4-2.7,9.1-4.9,13.6-7.4C132.6,113,134.5,112,137,110.6z"/>
</svg>
