<?xml version="1.0" encoding="utf-8"?>
<!-- Generator: Adobe Illustrator 22.0.0, SVG Export Plug-In . SVG Version: 6.00 Build 0)  -->
<svg version="1.1" id="Layer_1" xmlns="http://www.w3.org/2000/svg" xmlns:xlink="http://www.w3.org/1999/xlink" x="0px" y="0px"
	 viewBox="0 0 215 229" style="enable-background:new 0 0 215 229;" xml:space="preserve">
<style type="text/css">
	.st0{fill:#0396CE;}
	.st1{fill:#FEFEFE;}
</style>
<path class="st0" d="M56,2c35.3,0,70.7,0,106,0c7.7,4.2,10.2,10.5,10.2,19.4C171.8,81.7,172,142,172,202.3c0,9.3,1.2,18.9-8,25.2
	c-0.1,0.1,0,0.3,0,0.5c-36,0-72,0-108,0c-8.6-5.3-9.2-13.5-9.1-22.7c0.3-61.1,0.2-122.1,0-183.2c0-7.3,0.6-13.8,7.1-18.3
	c0.1,0-0.6-1.2-1-1.8c0.7,0,1.3,0,2,0c0.1,0.3,0.1,0.7,0.2,1C55.5,2.7,55.7,2.3,56,2z M158.7,174.8c0-48.4,0-96.5,0-144.4
	c-33.1,0-65.8,0-98.4,0c0,48.3,0,96.2,0,144.4C93.1,174.8,125.7,174.8,158.7,174.8z M109.5,19c6.8,0,13.6,0.2,20.4-0.1
	c1.4-0.1,2.7-1.8,4.1-2.8c-1.4-1.3-2.7-3.8-4.1-3.9c-13.6-0.3-27.2-0.3-40.8,0c-1.4,0-2.7,2.5-4.1,3.9c1.4,1,2.7,2.8,4.1,2.8
	C95.9,19.2,102.7,19,109.5,19z M118.8,201.6c0-5.3-4.8-10.7-9.5-10.5c-4,0.2-9.1,5.2-9,8.8c0.2,7.5,3.1,11.1,8.9,11.2
	C115,211.1,118.7,207.4,118.8,201.6z"/>
</svg>
