<?xml version="1.0" encoding="utf-8"?>
<!-- Generator: Adobe Illustrator 22.0.0, SVG Export Plug-In . SVG Version: 6.00 Build 0)  -->
<svg version="1.1" id="Layer_1" xmlns="http://www.w3.org/2000/svg" xmlns:xlink="http://www.w3.org/1999/xlink" x="0px" y="0px"
	 viewBox="0 0 214 228" style="enable-background:new 0 0 214 228;" xml:space="preserve">
<style type="text/css">
	.st0{fill:#FEFEFE;}
	.st1{fill:#0396CE;}
</style>
<path class="st0" d="M74.6,1.7c46.7,0,93.3,0,140,0c0,75.7,0,151.3,0,227c-47.7,0-95.3,0-143,0c1.6-0.7,3.4-1,4.7-2.1
	c4.5-3.7,9.8-6.9,12.9-11.5c8.1-12.2,5.3-29.1-5.7-38.3c-1.5-1.3-2.6-3.8-2.7-5.8c-0.5-8,3-14,10.4-17.1
	c12.6-5.2,25.4-9.9,37.9-15.3c12.7-5.4,22.7-14.2,29.5-26.3c6.1-10.9,9.2-22.6,9-35.2c0-1.4,0.6-3.6,1.6-4.2
	c13.1-8.4,14.8-31,6.1-42.1c-5.9-7.5-13.3-11.4-22.3-10.9c-11.1,0.6-19.5,6.7-23.4,17.4c-4.6,12.8-2.5,24.4,7.9,34
	c1.4,1.3,2.9,3.5,2.9,5.3c0.1,15.2-5.9,27.4-19.9,33.9c-12.4,5.8-25.6,10.2-38.7,15.3c-0.4-3-1.2-5.7-1.2-8.5
	c-0.1-19.5-0.2-39,0.1-58.5c0-2.3,1.4-5.2,3.1-6.6c6.4-5.5,9.3-12.4,9.7-20.5C94.3,17.4,87.5,7.6,74.6,1.7z"/>
<path class="st1" d="M74.6,1.7c12.9,5.9,19.6,15.7,18.9,30.1c-0.4,8.1-3.3,15-9.7,20.5c-1.7,1.5-3.1,4.4-3.1,6.6
	c-0.2,19.5-0.2,39-0.1,58.5c0,2.7,0.7,5.4,1.2,8.5c13.2-5.1,26.3-9.5,38.7-15.3c14-6.5,20-18.7,19.9-33.9c0-1.8-1.5-4-2.9-5.3
	c-10.4-9.6-12.5-21.2-7.9-34c3.9-10.7,12.2-16.7,23.4-17.4c9-0.5,16.5,3.4,22.3,10.9c8.7,11.1,7,33.8-6.1,42.1
	c-1,0.7-1.6,2.8-1.6,4.2c0.1,12.6-2.9,24.3-9,35.2c-6.8,12.1-16.8,20.9-29.5,26.3c-12.6,5.3-25.4,10-37.9,15.3
	C83.7,157,80.3,163,80.7,171c0.1,2,1.2,4.6,2.7,5.8c11,9.1,13.8,26.1,5.7,38.3c-3.1,4.7-8.4,7.8-12.9,11.5c-1.3,1-3.1,1.4-4.7,2.1
	c-3,0-6,0-9,0c-6.3-2.8-12.5-5.4-16.9-11.3c-8.6-11.5-6.6-32.2,4.8-40.9c2.5-1.9,3.2-3.6,3.1-6.4c-0.1-35.3-0.2-70.5,0.1-105.8
	c0-5.7-0.2-10.7-5.7-13.8c-1-0.5-1.7-1.6-2.3-2.6C37.2,35.1,38,15.3,53.1,4.8c0.8-0.6,1-2.1,1.5-3.1c0.7,0,1.3,0,2,0
	C56.8,2,57,2.3,57.2,2.6c0.5-0.3,1-0.6,1.5-0.9C64,1.7,69.3,1.7,74.6,1.7z M154.7,35.6c-0.4,0-0.8,0-1.2,0c-6,0.4-11.4,5.3-11.8,11
	c-0.5,7.9,3.5,12.5,11.7,14.4c5.3,1.2,10.5-1.5,12.4-7.2c1.7-5,1.6-10-2.4-14.2c-0.3-0.3-0.5-0.5-0.8-0.8
	C160,37.8,157.4,36.7,154.7,35.6z M54.6,199.5c0,7.8,4.9,12.6,12.1,13.3c6.3,0.6,13-6.3,12.9-13.3c-0.1-6.9-6.7-14.3-12.7-13.8
	C59.9,186.3,54.1,191.4,54.6,199.5z M54.6,29.5c0,8,5.1,14.1,11.9,14.1c6.6,0.1,13.1-6.8,13.1-14c-0.1-6.3-5.6-13.4-13-13.1
	C59.7,16.9,54.6,22.2,54.6,29.5z"/>
<path class="st0" d="M54.6,1.7c-0.5,1.1-0.7,2.5-1.5,3.1C38,15.3,37.2,35.1,45.7,47.9c0.6,1,1.4,2,2.3,2.6c5.6,3.1,5.8,8.1,5.7,13.8
	c-0.2,35.3-0.1,70.5-0.1,105.8c0,2.8-0.6,4.5-3.1,6.4c-11.5,8.7-13.5,29.4-4.8,40.9c4.4,5.9,10.7,8.5,16.9,11.3c-20.3,0-40.6,0-61,0
	c0-75.7,0-151.3,0-227C19.3,1.7,37,1.7,54.6,1.7z"/>
<path class="st0" d="M58.6,1.7c-0.5,0.3-1,0.6-1.5,0.9C57,2.3,56.8,2,56.6,1.7C57.3,1.7,58,1.7,58.6,1.7z"/>
<path class="st0" d="M54.6,199.5c-0.5-8.1,5.3-13.3,12.3-13.8c6-0.5,12.6,6.9,12.7,13.8c0.1,6.9-6.6,13.9-12.9,13.3
	C59.6,212.1,54.6,207.3,54.6,199.5z"/>
<path class="st0" d="M54.6,29.5c0-7.3,5.1-12.6,11.9-12.9c7.5-0.3,13,6.8,13,13.1c0.1,7.1-6.5,14-13.1,14
	C59.7,43.6,54.6,37.5,54.6,29.5z"/>
<path class="st0" d="M163.5,39.6c4,4.2,4.1,9.2,2.4,14.2c-2,5.7-7.2,8.5-12.4,7.2c-8.2-1.9-12.2-6.4-11.7-14.4
	c0.4-5.7,5.8-10.6,11.8-11c0.4,0,0.8,0,1.2,0c2.6,1.1,5.3,2.1,7.9,3.2C162.9,39.1,163.2,39.4,163.5,39.6z"/>
<path class="st0" d="M154.7,35.6c-0.4,0-0.8,0-1.2,0C153.9,35.6,154.3,35.6,154.7,35.6z"/>
<path class="st0" d="M163.5,39.6c-0.3-0.3-0.5-0.5-0.8-0.8C162.9,39.1,163.2,39.4,163.5,39.6z"/>
</svg>
