<?xml version="1.0" encoding="utf-8"?>
<!-- Generator: Adobe Illustrator 22.0.0, SVG Export Plug-In . SVG Version: 6.00 Build 0)  -->
<svg version="1.1" id="Layer_1" xmlns="http://www.w3.org/2000/svg" xmlns:xlink="http://www.w3.org/1999/xlink" x="0px" y="0px" viewBox="0 0 288.4 309.2" style="enable-background:new 0 0 288.4 309.2;" xml:space="preserve">
												<style type="text/css">
													.st1{fill: black;}
												</style>
												<path class="st1" d="M289.4,18.1c0,5.9,0,11.8,0,17.7c-7.5,6.8-15.1,13.4-22.4,20.4c-17.6,16.9-35.1,33.9-52.4,51.2
													c-2.3,2.4-4.1,6.5-4.1,9.8c-0.2,64.6-0.2,129.3-0.2,193.9c-70,0-140,0-209.9,0c0-89.7,0-179.5-0.1-269.2c0-2.5-0.9-5-1.3-7.5
													c0-3.6,0-7.3,0-10.9c0.7-3.5,1.4-7,2.1-10.4c69.7,0,139.3,0,209.4,0c0,11.3,0,22,0,34C224.3,33.5,236.9,20.5,250,8
													c3.1-3,7.7-5.4,12-6c8.8-1.2,15,4.3,20.6,10.4C284.5,14.5,287.1,16.2,289.4,18.1z M139.3,144.7c0,0,0.2,0.2,0.2,0.2
													c-0.6-3-2-6.1-1.5-8.9c1.4-7.6,3.5-15.1,5.7-22.5c0.6-2,2.2-3.8,3.7-5.3c10.7-10.5,21.6-21,32.3-31.5c1.4-1.3,3.2-3.2,3.2-4.8
													c0.3-10.1,0.1-20.2,0.1-30.2c-27.7,0-54.4,0-81.4,0c0,17.7,0,35,0,53c9.1,0,17.9,0,27,0c-0.3,2.6-0.4,4.5-0.7,6.8
													c-17.2,0-33.9,0-50.9,0c0,61,0,121.5,0,182.1c10.9,0,21.4,0,32.7,0c0-4.2,0-7.9,0-11.5c4.2,0,7.8,0,11.7,0c0.2,4,0.4,7.7,0.5,11.5
													c20.6,0,40.6,0,60.6,0c0-32.8,0-65.1,0-97.5c-2.7-0.2-4.9-0.4-7.3-0.6c0-3.6,0-6.8,0-10.3c2.7-0.2,5.1-0.4,7.5-0.6
													c0-12.3,0-24,0-36.4c-5.5,3.9-9.4,9.5-16.6,9.2c-4-0.2-8,0.5-12,1.2C148.6,149.4,143.2,150,139.3,144.7z M69.4,214.1
													c0-37.9,0-75.2,0-112.3c-14.2,0-27.9,0-41.4,0c0,37.7,0,74.9,0,112.3C41.9,214.1,55.4,214.1,69.4,214.1z M28.1,220.1
													c0,21.5,0,42.5,0,63.2c14.2,0,27.9,0,41.4,0c0-21.3,0-42.2,0-63.2C55.6,220.1,42.1,220.1,28.1,220.1z M149.9,116.9
													c-1.9,6.6-4,12.2-4.8,18c-0.3,2.2,2.4,6.9,3.7,6.9c6.7,0,13.4-1.2,20.7-2C164.9,129.6,158.8,122.4,149.9,116.9z M34.1,94.1
													c0-17.5,0-34.8,0-52.5c-2.1,0-4,0-6.2,0c0,17.5,0,34.8,0,52.5C30.1,94.1,31.9,94.1,34.1,94.1z M46.7,42.2c-0.6-0.5-1.1-1.1-1.7-1.6
													c-1.3,1.2-3.6,2.3-3.6,3.5c-0.2,16.7-0.2,33.3-0.2,50c0.7,0.4,1.4,0.7,2.1,1.1c1.1-1.4,3.2-2.8,3.2-4.2
													C46.8,74.7,46.7,58.4,46.7,42.2z M64.4,93.4c0.7,0.6,1.3,1.1,2,1.7c1.2-1.4,3.3-2.7,3.3-4.1c0.2-16.4,0.2-32.9,0.2-49.3
													c-0.7-0.4-1.4-0.7-2.2-1.1c-1.1,1.6-3.1,3.1-3.1,4.7C64.3,61.4,64.4,77.4,64.4,93.4z M82.1,42.2c-0.6-0.5-1.1-1.1-1.7-1.6
													c-1.2,1.2-3.6,2.3-3.6,3.5c-0.2,16.7-0.2,33.3-0.2,50c0.7,0.4,1.4,0.7,2.1,1.1c1.1-1.4,3.2-2.8,3.2-4.2
													C82.2,74.7,82.1,58.4,82.1,42.2z M92.4,95c0.7-0.6,1.4-1.1,2.1-1.7c0-16-0.1-32.1,0-48.1c0-4.6-2-4.6-5.5-3.1
													c0,16.3-0.1,32.3,0.1,48.3C89.1,92,91.2,93.5,92.4,95z M55.2,40.9c-0.6,0.2-1.1,0.5-1.7,0.7c0,16.7,0,33.3,0.1,50
													c0,1.1,1.5,2.2,2.3,3.2c0.6-0.2,1.1-0.5,1.7-0.7c0-16.7,0-33.3-0.1-50C57.5,43,56,42,55.2,40.9z"/>
												<path class="st1" d="M109.8,175.2c6.1,0,12,0,18.3,0c0,3.2,0,6.5,0,10.2c-1.7,0.2-3.6,0.5-5.9,0.8c-0.2,1.9-0.5,3.8-0.7,6.1
													c-3.8,0-7.5,0-11.6,0C109.8,186.6,109.8,181.3,109.8,175.2z"/>
												<path class="st1" d="M121.4,223.7c-4,0-7.5,0-11.5,0c0-5.2,0-10.3,0-15.7c3.8,0,7.5,0,11.5,0C121.4,213.1,121.4,218,121.4,223.7z"/>
												<path class="st1" d="M121.2,256.4c-4.1,0-7.6,0-11.5,0c0-5.2,0-10.1,0-15.5c3.6,0,7.3,0,11.5,0C121.2,245.7,121.2,250.8,121.2,256.4
													z"/>
												<path class="st1" d="M143.6,185.3c0-3.5,0-6.4,0-10.4c2.7,0,5.3,0,7.9,0c2.5,0,4.9,0,7.9,0c0,3.6,0,6.8,0,10.4
													C154.2,185.3,148.9,185.3,143.6,185.3z"/>
												<path class="st1" d="M139.3,144.7c1.7,6.1-0.9,9-8.5,9.5c-1.1-6.5,1.3-9,8.7-9.3C139.5,144.9,139.3,144.7,139.3,144.7z"/>
												</svg>